<svg xmlns="http://www.w3.org/2000/svg" id="Customer_Art" data-name="Customer Art" viewBox="0 0 180 252"><defs><style>.cls-1{fill:#231f20}.cls-3{fill:#f8f2e9}</style></defs><path d="M-9-9h198v270H-9z" class="cls-3"/><rect width="153" height="225" x="13.5" y="13.5" rx="4.5" ry="4.5" style="fill:#0072b2"/><circle cx="90" cy="126" r="36" class="cls-1"/><path d="M50.2 75.6V34.3q0-.6-.3-.9l-.2-.1v-.1h-.1V33l-.1-.1h-.1v-.2h-.2v-.2H49v-.1h-.1v-.1l-.1-.1h-.1V32h-.2v-.2h-.2v-.1h-.1v-.1l-.1-.1H48v-.2h-.2v-.2h-.2V31h-.1V31l-.1-.1h-.1v-.2H47v-.2h-.2v-.1h-.1v-.1l-.1-.1h-.1V30h-.2v-.2h-.2v-.1H46v-.1l-.1-.1h-.1v-.2h-.2V29h-.2V29h-.1v-.1l-.1-.1h-.1v-.2H45v-.2h-.2v-.1h-.1v-.1l-.1-.1h-.1v-.2h-.2v-.2H44v-.1H44v-.1l-.1-.1h-.1v-.2h-.2V27h-.2v-.1h-.1v-.1l-.1-.1H43v-.2h-.2q.3.3.3.8v41.2c0 3.2.9 4.6 2 5.7.9.9.3 2.3-.8 2.3H34q-.7 0-1-.4v.1l.1.1h.1v.1l.2.1.1.1v.1h.1l.1.2.1.1h.1v.1l.2.1.1.1v.1h.1l.1.2.1.1h.1v.1l.2.1.1.1v.1h.1l.1.2.1.1h.1v.1l.2.1.1.1v.1h.1l.1.2.1.1h.1v.1l.2.1.1.1v.1h.1l.1.2.1.1h.1v.1l.2.1.1.1v.1h.1l.1.2.1.1h.1v.1l.2.1.1.1v.1h.1l.1.2.2.1v.1l.2.1.1.1v.1h.1l.1.2.2.1v.1l.2.1.1.1v.1h.1l.1.2.2.1v.1l.2.1.1.1v.1q.4.5 1.2.5h10.4c1.1 0 1.7-1.4.8-2.3-1.1-1-2-2.5-2-5.7Z" class="cls-1"/><path d="M33.8 76.3h10.4c1.1 0 1.7-1.4.8-2.3-1.1-1-2-2.5-2-5.6V27q0-.6-.3-.8-.4-.5-1.3-.2l-8.3 3.4c-1 .4-1.2 1.5-.4 2l.4.3q1 .4 1.4 1.6.3 1.1.3 3.8v31.2c0 3.1-.9 4.6-2 5.6q-.8 1 0 1.9.3.4 1 .4Z" class="cls-3"/><path d="M137 225v-41.3c0-3.2-.9-4.7-2-5.7-.9-.9-.3-2.3.8-2.3h10.4q.7 0 1 .4v-.1l-.1-.1h-.1v-.1l-.2-.1-.1-.2-.1-.1h-.1v-.1l-.1-.1h-.1v-.1l-.2-.1-.1-.2-.1-.1h-.1v-.1l-.1-.1h-.1v-.1l-.2-.1-.1-.2-.1-.1h-.1v-.1l-.1-.1h-.1v-.1l-.2-.1-.1-.2-.1-.1h-.1v-.1l-.1-.1h-.1v-.1l-.2-.1-.1-.2-.1-.1h-.1v-.1l-.1-.1h-.1v-.1l-.2-.1-.1-.2-.1-.1h-.1v-.1l-.1-.1h-.1v-.1l-.2-.1-.1-.2-.1-.1h-.1v-.1l-.1-.1h-.1v-.1l-.2-.1-.1-.2-.1-.1h-.1v-.1l-.1-.1h-.1v-.1l-.2-.1-.1-.2-.1-.1h-.1v-.1l-.1-.1h-.1v-.1l-.2-.1-.1-.2q-.4-.5-1.2-.5h-10.4c-1.1 0-1.7 1.4-.8 2.3 1.1 1 2 2.5 2 5.6V218q0 .6.3.9l.2.1v.2h.2v.1h.1v.1l.1.1h.1v.2h.2v.2h.2v.1h.1v.1l.1.1h.1v.2h.2v.2h.2v.1h.1v.1l.1.1h.1v.2h.2v.2h.2v.1h.1v.1l.1.1h.1v.2h.2v.2h.2v.1h.1v.1l.1.1h.1v.2h.2v.2h.2v.1h.1v.1l.1.1h.1v.2h.2v.2h.2v.1h.1v.1l.1.1h.1v.2h.2v.2h.2v.1h.1v.1l.1.1h.1v.2h.2v.2h.2v.1h.1v.1l.1.1h.1v.2h.2v.2h.2v.1h.1v.1l.1.1z" class="cls-1"/><path d="m147.3 220.5-.4-.3q-1-.4-1.4-1.6-.3-1.1-.3-3.8v-31.2c0-3.1.9-4.6 2-5.6q.8-1 0-1.9-.3-.4-1-.4H136c-1.2 0-1.8 1.4-.9 2.3 1.2 1 2 2.5 2 5.6V225q0 .6.3.8.3.5 1.3.2l8.4-3.4c1-.4 1-1.5.3-2Z" class="cls-3"/></svg>