<?xml version="1.0" encoding="UTF-8"?>
<svg id="Customer_Art" data-name="Customer Art" xmlns="http://www.w3.org/2000/svg" viewBox="0 0 180 252">
  <defs>
    <style>
      .cls-1 {
        fill: none;
      }

      .cls-2 {
        fill: #231f20;
      }

      .cls-3 {
        fill: #d72229;
      }

      .cls-4 {
        fill: #f8f2e9;
      }
    </style>
  </defs>
  <rect class="cls-4" x="-9" y="-9" width="198" height="270"/>
  <path class="cls-2" d="M33.06,31.77c-.14-.06-.26-.14-.37-.22.03.02.04.05.07.07.03.02.04.05.07.07.03.02.04.05.07.07.03.02.04.05.07.07.03.02.04.05.07.07.03.02.04.05.07.07.03.02.04.05.07.07.03.02.04.05.07.07.03.02.04.05.07.07.03.02.04.05.07.07.03.02.04.05.07.07.03.02.04.05.07.07.03.02.04.05.07.07.03.02.04.05.07.07.03.02.04.05.07.07.03.02.04.05.07.07.03.02.04.05.07.07.03.02.04.05.07.07.03.02.04.05.07.07.03.02.04.05.07.07.03.02.04.05.07.07.03.02.04.05.07.07.03.02.04.05.07.07.03.02.04.05.07.07.03.02.04.05.07.07,0,0,.01.01.02.02-.24-.81-.67-1.28-1.45-1.6Z"/>
  <g>
    <rect class="cls-3" x="13.5" y="13.5" width="153" height="225" rx="4.5" ry="4.5"/>
    <g>
      <circle class="cls-2" cx="67.48" cy="159.12" r="26.99"/>
      <circle class="cls-2" cx="112.52" cy="92.88" r="26.99"/>
    </g>
    <path class="cls-1" d="M137.74,211.65c.31-.47.53-.99.67-1.54-.25.52-.48,1.03-.67,1.54Z"/>
    <path class="cls-1" d="M42.25,40.35c-.31.47-.53.99-.67,1.54.25-.52.48-1.03.67-1.54Z"/>
    <path class="cls-2" d="M58.47,68.14s-.05-.05-.07-.07c-.02-.03-.05-.05-.07-.07-.02-.03-.05-.05-.07-.07-.02-.03-.05-.05-.07-.07-.02-.03-.05-.05-.07-.07-.02-.03-.05-.05-.07-.07-.02-.03-.05-.05-.07-.07-.02-.03-.05-.05-.07-.07-.02-.03-.05-.05-.07-.07-.02-.03-.05-.05-.07-.07-.02-.03-.05-.05-.07-.07-.02-.03-.05-.05-.07-.07-.02-.03-.05-.05-.07-.07-.02-.03-.05-.05-.07-.07-.02-.03-.05-.05-.07-.07-.02-.03-.05-.05-.07-.07-.02-.03-.05-.05-.07-.07-.02-.03-.05-.05-.07-.07-.02-.03-.05-.05-.07-.07-.02-.03-.05-.05-.07-.07-.02-.03-.05-.05-.07-.07-.02-.03-.05-.05-.07-.07-.02-.03-.05-.05-.07-.07-.02-.03-.05-.05-.07-.07-.02-.03-.05-.05-.07-.07-.02-.03-.05-.05-.07-.07-.02-.03-.05-.05-.07-.07-.02-.03-.05-.05-.07-.07-.02-.03-.05-.05-.07-.07-.02-.03-.05-.05-.07-.07-.02-.03-.05-.05-.07-.07-.02-.03-.05-.05-.07-.07-.02-.03-.05-.05-.07-.07-.02-.03-.05-.05-.07-.07-.02-.03-.05-.05-.07-.07-.02-.03-.05-.05-.07-.07-.02-.03-.05-.05-.07-.07-.02-.03-.05-.05-.07-.07-.02-.03-.05-.05-.07-.07-.02-.03-.05-.05-.07-.07-.02-.03-.05-.05-.07-.07-.02-.03-.05-.05-.07-.07-.02-.03-.05-.05-.07-.07-.02-.03-.05-.05-.07-.07-.02-.03-.05-.05-.07-.07-.02-.03-.05-.05-.07-.07-.02-.03-.05-.05-.07-.07-.02-.03-.05-.05-.07-.07-.02-.03-.05-.05-.07-.07-.02-.03-.05-.05-.07-.07-.02-.03-.05-.05-.07-.07-.02-.03-.05-.05-.07-.07-.02-.03-.05-.05-.07-.07-.02-.03-.05-.05-.07-.07-.02-.03-.05-.05-.07-.07-.02-.03-.05-.05-.07-.07-.02-.03-.05-.05-.07-.07-.02-.03-.05-.05-.07-.07-.02-.03-.05-.05-.07-.07-.02-.03-.05-.05-.07-.07-.02-.03-.05-.05-.07-.07-.02-.03-.05-.05-.07-.07-.02-.03-.05-.05-.07-.07-.02-.03-.05-.05-.07-.07-.02-.03-.05-.05-.07-.07-.02-.03-.05-.05-.07-.07-.02-.03-.05-.05-.07-.07-.02-.03-.05-.05-.07-.07-.02-.03-.05-.05-.07-.07-.02-.03-.05-.05-.07-.07-.02-.03-.05-.05-.07-.07-.02-.03-.05-.05-.07-.07-.02-.03-.05-.05-.07-.07-.02-.03-.05-.05-.07-.07-.02-.03-.05-.05-.07-.07-.02-.03-.05-.05-.07-.07-.02-.03-.05-.05-.07-.07-.02-.03-.05-.05-.07-.07-.02-.03-.05-.05-.07-.07-.02-.03-.05-.05-.07-.07-.02-.03-.05-.05-.07-.07-.02-.03-.05-.05-.07-.07-.02-.03-.05-.05-.07-.07-.02-.03-.05-.05-.07-.07-.02-.03-.05-.05-.07-.07-.02-.03-.05-.05-.07-.07-.02-.03-.05-.05-.07-.07-.02-.03-.05-.05-.07-.07-.02-.03-.05-.05-.07-.07-.02-.03-.05-.05-.07-.07-.02-.03-.05-.05-.07-.07-.02-.03-.05-.05-.07-.07-.02-.03-.05-.05-.07-.07-.02-.03-.05-.05-.07-.07-.02-.03-.05-.05-.07-.07-.02-.03-.05-.05-.07-.07-.02-.03-.05-.05-.07-.07-.02-.03-.05-.05-.07-.07-.02-.03-.05-.05-.07-.07.37.45.55,1.08.34,1.79l-3.6,12.38c-.36,1.3-.94,1.87-1.94,1.87-1.58,0-2.02-.72-4.32-.72h-14.04c-.69,0-1.14-.14-1.43-.41.02.03.05.05.07.07.02.03.05.05.07.07.02.03.05.05.07.07.02.03.05.05.07.07.02.03.05.05.07.07.02.03.05.05.07.07.02.03.05.05.07.07.02.03.05.05.07.07.02.03.05.05.07.07.02.03.05.05.07.07.02.03.05.05.07.07.02.03.05.05.07.07.02.03.05.05.07.07.02.03.05.05.07.07.02.03.05.05.07.07.02.03.05.05.07.07.02.03.05.05.07.07.02.03.05.05.07.07.02.03.05.05.07.07.02.03.05.05.07.07.02.03.05.05.07.07.02.03.05.05.07.07.02.03.05.05.07.07.02.03.05.05.07.07.02.03.05.05.07.07.02.03.05.05.07.07.02.03.05.05.07.07.02.03.05.05.07.07.02.03.05.05.07.07.02.03.05.05.07.07.02.03.05.05.07.07.02.03.05.05.07.07.02.03.05.05.07.07.02.03.05.05.07.07.02.03.05.05.07.07.02.03.05.05.07.07.02.03.05.05.07.07.02.03.05.05.07.07.02.03.05.05.07.07.02.03.05.05.07.07.02.03.05.05.07.07.02.03.05.05.07.07.02.03.05.05.07.07.02.03.05.05.07.07.02.03.05.05.07.07.02.03.05.05.07.07.02.03.05.05.07.07.02.03.05.05.07.07.02.03.05.05.07.07.02.03.05.05.07.07.02.03.05.05.07.07.02.03.05.05.07.07.02.03.05.05.07.07.02.03.05.05.07.07.02.03.05.05.07.07.02.03.05.05.07.07.02.03.05.05.07.07.02.03.05.05.07.07.02.03.05.05.07.07.02.03.05.05.07.07.02.03.05.05.07.07.02.03.05.05.07.07.02.03.05.05.07.07.02.03.05.05.07.07.02.03.05.05.07.07.02.03.05.05.07.07.02.03.05.05.07.07.02.03.05.05.07.07.02.03.05.05.07.07.02.03.05.05.07.07.02.03.05.05.07.07.02.03.05.05.07.07.02.03.05.05.07.07.02.03.05.05.07.07.02.03.05.05.07.07.02.03.05.05.07.07.02.03.05.05.07.07.02.03.05.05.07.07.02.03.05.05.07.07.02.03.05.05.07.07.02.03.05.05.07.07.02.03.05.05.07.07.02.03.05.05.07.07.02.03.05.05.07.07.02.03.05.05.07.07.02.03.05.05.07.07.02.03.05.05.07.07.02.03.05.05.07.07.02.03.05.05.07.07.02.03.05.05.07.07.02.03.05.05.07.07.02.03.05.05.07.07.02.03.05.05.07.07.02.03.05.05.07.07.02.03.05.05.07.07.02.03.05.05.07.07.02.03.05.05.07.07.02.03.05.05.07.07.02.03.05.05.07.07.29.33.76.48,1.5.48h14.04c2.3,0,2.74.72,4.32.72,1.01,0,1.58-.58,1.94-1.87l3.6-12.38c.23-.76.01-1.41-.41-1.86Z"/>
    <path class="cls-2" d="M41.58,41.89c.14-.55.37-1.07.67-1.54.54-1.39.85-2.76.85-4.12,0-3.1-1.94-4.97-4.39-4.97-3.17,0-4.54,2.59-4.54,4.97,0,1.73.72,3.38,2.09,4.1.86.43,1.22,1.22.72,2.09-.79,1.37-2.23,2.88-4.54,2.88-1.42,0-2.62-.51-3.55-1.38.02.02.05.05.07.07.02.02.05.05.07.07.02.02.05.05.07.07.02.02.05.05.07.07.02.02.05.05.07.07.02.02.05.05.07.07.02.02.05.05.07.07.02.02.05.05.07.07.02.02.05.05.07.07.02.02.05.05.07.07.02.02.05.05.07.07.02.02.05.05.07.07.02.02.05.05.07.07.02.02.05.05.07.07.02.02.05.05.07.07.02.02.05.05.07.07.02.02.05.05.07.07.02.02.05.05.07.07.02.02.05.05.07.07.02.02.05.05.07.07.02.02.05.05.07.07.02.02.05.05.07.07.02.02.05.05.07.07.02.02.05.05.07.07.02.02.05.05.07.07.02.02.05.05.07.07.02.02.05.05.07.07.02.02.05.05.07.07.02.02.05.05.07.07.02.02.05.05.07.07.02.02.05.05.07.07.02.02.05.05.07.07.02.02.05.05.07.07.02.02.05.05.07.07.02.02.05.05.07.07.02.02.05.05.07.07.02.02.05.05.07.07.02.02.05.05.07.07.02.02.05.05.07.07.02.02.05.05.07.07.02.02.05.05.07.07.02.02.05.05.07.07.02.02.05.05.07.07.02.02.05.05.07.07.02.02.05.05.07.07.02.02.05.05.07.07.02.02.05.05.07.07.02.02.05.05.07.07.02.02.05.05.07.07.02.02.05.05.07.07.02.02.05.05.07.07.02.02.05.05.07.07.02.02.05.05.07.07.02.02.05.05.07.07.02.02.05.05.07.07.02.02.05.05.07.07.02.02.05.05.07.07.02.02.05.05.07.07.02.02.05.05.07.07.02.02.05.05.07.07.02.02.05.05.07.07.02.02.05.05.07.07.02.02.05.05.07.07.02.02.05.05.07.07.02.02.05.05.07.07.02.02.05.05.07.07.02.02.05.05.07.07.02.02.05.05.07.07.02.02.05.05.07.07.02.02.05.05.07.07.02.02.05.05.07.07.02.02.05.05.07.07.02.02.05.05.07.07.02.02.05.05.07.07.02.02.05.05.07.07.02.02.05.05.07.07.02.02.05.05.07.07.02.02.05.05.07.07.02.02.05.05.07.07.02.02.05.05.07.07.02.02.05.05.07.07.02.02.05.05.07.07.02.02.05.05.07.07.02.02.05.05.07.07.02.02.05.05.07.07.02.02.05.05.07.07.02.02.05.05.07.07.02.02.05.05.07.07.02.02.05.05.07.07.02.02.05.05.07.07.02.02.05.05.07.07.02.02.05.05.07.07.02.02.05.05.07.07.02.02.05.05.07.07.02.02.05.05.07.07.01.01.02.02.03.04,2.28-3.17,4.43-6.1,5.81-8.91Z"/>
    <path class="cls-2" d="M50.96,37.53c0,11.59-14.33,19.59-17.93,30.03-.5,1.37-.29,1.94,1.44,1.94h2.38c5.4,0,7.99-1.73,11.02-7.99.36-.79,1.22-1.22,1.94-1.22.19,0,.38.04.56.1,4.1-4.82,7.79-9.77,7.79-15.65,0-3.58-1.29-6.62-3.48-8.75-.02-.02-.05-.05-.07-.07-.02-.02-.05-.05-.07-.07-.02-.02-.05-.05-.07-.07-.02-.02-.05-.05-.07-.07-.02-.02-.05-.05-.07-.07-.02-.02-.05-.05-.07-.07-.02-.02-.05-.05-.07-.07-.02-.02-.05-.05-.07-.07-.02-.02-.05-.05-.07-.07-.02-.02-.05-.05-.07-.07-.02-.02-.05-.05-.07-.07-.02-.02-.05-.05-.07-.07-.02-.02-.05-.05-.07-.07-.02-.02-.05-.05-.07-.07-.02-.02-.05-.05-.07-.07-.02-.02-.05-.05-.07-.07-.02-.02-.05-.05-.07-.07-.02-.02-.05-.05-.07-.07-.02-.02-.05-.05-.07-.07-.02-.02-.05-.05-.07-.07-.02-.02-.05-.05-.07-.07-.02-.02-.05-.05-.07-.07-.02-.02-.05-.05-.07-.07-.02-.02-.05-.05-.07-.07-.02-.02-.05-.05-.07-.07-.02-.02-.05-.05-.07-.07-.02-.02-.05-.05-.07-.07s-.05-.05-.07-.07c-.02-.02-.05-.05-.07-.07-.02-.02-.05-.05-.07-.07-.02-.02-.05-.05-.07-.07-.02-.02-.05-.05-.07-.07-.02-.02-.05-.05-.07-.07-.02-.02-.05-.05-.07-.07-.02-.02-.05-.05-.07-.07-.02-.02-.05-.05-.07-.07-.02-.02-.05-.05-.07-.07-.02-.02-.05-.05-.07-.07-.02-.02-.05-.05-.07-.07-.02-.02-.05-.05-.07-.07-.02-.02-.05-.05-.07-.07-.02-.02-.05-.05-.07-.07-.02-.02-.05-.05-.07-.07-.02-.02-.05-.05-.07-.07-.02-.02-.05-.05-.07-.07-.02-.02-.05-.05-.07-.07-.02-.02-.05-.05-.07-.07-.02-.02-.05-.05-.07-.07-.02-.02-.05-.05-.07-.07-.02-.02-.05-.05-.07-.07-.02-.02-.05-.05-.07-.07-.02-.02-.05-.05-.07-.07-.02-.02-.05-.05-.07-.07-.02-.02-.05-.05-.07-.07-.02-.02-.05-.05-.07-.07-.02-.02-.05-.05-.07-.07-.02-.02-.05-.05-.07-.07-.02-.02-.05-.05-.07-.07-.02-.02-.05-.05-.07-.07-.02-.02-.05-.05-.07-.07-.02-.02-.05-.05-.07-.07-.02-.02-.05-.05-.07-.07-.02-.02-.05-.05-.07-.07-.02-.02-.05-.05-.07-.07-.02-.02-.05-.05-.07-.07-.02-.02-.05-.05-.07-.07-.02-.02-.05-.05-.07-.07-.02-.02-.05-.05-.07-.07-.02-.02-.05-.05-.07-.07-.02-.02-.05-.05-.07-.07-.02-.02-.05-.05-.07-.07-.02-.02-.05-.05-.07-.07-.02-.02-.05-.05-.07-.07-.02-.02-.05-.05-.07-.07-.02-.02-.05-.05-.07-.07-.02-.02-.05-.05-.07-.07-.02-.02-.05-.05-.07-.07-.02-.02-.05-.05-.07-.07-.02-.02-.05-.05-.07-.07-.02-.02-.05-.05-.07-.07-.02-.02-.05-.05-.07-.07-.02-.02-.05-.05-.07-.07-.02-.02-.05-.05-.07-.07-.02-.02-.05-.05-.07-.07s-.05-.05-.07-.07c-.02-.02-.05-.05-.07-.07-.02-.02-.05-.05-.07-.07-.02-.02-.05-.05-.07-.07-.02-.02-.05-.05-.07-.07-.02-.02-.05-.05-.07-.07-.02-.02-.05-.05-.07-.07-.02-.02-.05-.05-.07-.07-.02-.02-.05-.05-.07-.07-.02-.02-.05-.05-.07-.07-.02-.02-.05-.05-.07-.07-.02-.02-.05-.05-.07-.07-.02-.02-.05-.05-.07-.07-.02-.02-.05-.05-.07-.07-.02-.02-.05-.05-.07-.07,2.14,2.13,3.41,5.14,3.41,8.68Z"/>
    <path class="cls-4" d="M27.77,76.34h14.04c2.3,0,2.74.72,4.32.72,1.01,0,1.58-.58,1.94-1.87l3.6-12.38c.21-.72.04-1.34-.34-1.79-.25-.31-.6-.52-.97-.63-.18-.06-.37-.1-.56-.1-.72,0-1.58.43-1.94,1.22-3.02,6.26-5.62,7.99-11.02,7.99h-2.38c-1.73,0-1.94-.58-1.44-1.94,3.6-10.44,17.93-18.43,17.93-30.03,0-3.54-1.26-6.55-3.41-8.68-2.17-2.16-5.25-3.42-8.83-3.42-8.42,0-12.24,6.41-12.24,11.88,0,2.71.85,5.16,2.42,6.61.94.87,2.13,1.38,3.55,1.38,2.3,0,3.74-1.51,4.54-2.88.5-.86.14-1.66-.72-2.09-1.37-.72-2.09-2.38-2.09-4.1,0-2.38,1.37-4.97,4.54-4.97,2.45,0,4.39,1.87,4.39,4.97,0,1.36-.32,2.73-.85,4.12-.2.51-.42,1.02-.67,1.54-1.38,2.81-3.53,5.75-5.81,8.91-4.72,6.55-9.95,14.1-9.87,23.67,0,.68.12,1.16.44,1.46.29.28.74.41,1.43.41Z"/>
    <path class="cls-2" d="M138.42,210.11c-.14.55-.36,1.07-.67,1.54-.54,1.39-.85,2.76-.85,4.12,0,3.1,1.94,4.97,4.39,4.97,3.17,0,4.54-2.59,4.54-4.97,0-1.73-.72-3.38-2.09-4.1-.86-.43-1.22-1.22-.72-2.09.79-1.37,2.23-2.88,4.54-2.88,1.42,0,2.62.51,3.55,1.38-.02-.02-.05-.05-.07-.07-.02-.02-.05-.05-.07-.07-.02-.02-.05-.05-.07-.07-.02-.02-.05-.05-.07-.07-.02-.02-.05-.05-.07-.07-.02-.02-.05-.05-.07-.07-.02-.02-.05-.05-.07-.07-.02-.02-.05-.05-.07-.07-.02-.02-.05-.05-.07-.07-.02-.02-.05-.05-.07-.07-.02-.02-.05-.05-.07-.07-.02-.02-.05-.05-.07-.07-.02-.02-.05-.05-.07-.07-.02-.02-.05-.05-.07-.07-.02-.02-.05-.05-.07-.07-.02-.02-.05-.05-.07-.07-.02-.02-.05-.05-.07-.07-.02-.02-.05-.05-.07-.07-.02-.02-.05-.05-.07-.07-.02-.02-.05-.05-.07-.07-.02-.02-.05-.05-.07-.07-.02-.02-.05-.05-.07-.07-.02-.02-.05-.05-.07-.07-.02-.02-.05-.05-.07-.07-.02-.02-.05-.05-.07-.07-.02-.02-.05-.05-.07-.07-.02-.02-.05-.05-.07-.07-.02-.02-.05-.05-.07-.07-.02-.02-.05-.05-.07-.07-.02-.02-.05-.05-.07-.07-.02-.02-.05-.05-.07-.07-.02-.02-.05-.05-.07-.07-.02-.02-.05-.05-.07-.07-.02-.02-.05-.05-.07-.07-.02-.02-.05-.05-.07-.07-.02-.02-.05-.05-.07-.07-.02-.02-.05-.05-.07-.07-.02-.02-.05-.05-.07-.07-.02-.02-.05-.05-.07-.07-.02-.02-.05-.05-.07-.07-.02-.02-.05-.05-.07-.07-.02-.02-.05-.05-.07-.07-.02-.02-.05-.05-.07-.07-.02-.02-.05-.05-.07-.07-.02-.02-.05-.05-.07-.07-.02-.02-.05-.05-.07-.07-.02-.02-.05-.05-.07-.07-.02-.02-.05-.05-.07-.07-.02-.02-.05-.05-.07-.07-.02-.02-.05-.05-.07-.07-.02-.02-.05-.05-.07-.07-.02-.02-.05-.05-.07-.07-.02-.02-.05-.05-.07-.07-.02-.02-.05-.05-.07-.07-.02-.02-.05-.05-.07-.07-.02-.02-.05-.05-.07-.07-.02-.02-.05-.05-.07-.07-.02-.02-.05-.05-.07-.07-.02-.02-.05-.05-.07-.07-.02-.02-.05-.05-.07-.07-.02-.02-.05-.05-.07-.07-.02-.02-.05-.05-.07-.07-.02-.02-.05-.05-.07-.07-.02-.02-.05-.05-.07-.07-.02-.02-.05-.05-.07-.07-.02-.02-.05-.05-.07-.07-.02-.02-.05-.05-.07-.07-.02-.02-.05-.05-.07-.07-.02-.02-.05-.05-.07-.07-.02-.02-.05-.05-.07-.07-.02-.02-.05-.05-.07-.07-.02-.02-.05-.05-.07-.07-.02-.02-.05-.05-.07-.07-.02-.02-.05-.05-.07-.07-.02-.02-.05-.05-.07-.07-.02-.02-.05-.05-.07-.07-.02-.02-.05-.05-.07-.07-.02-.02-.05-.05-.07-.07-.02-.02-.05-.05-.07-.07-.02-.02-.05-.05-.07-.07-.02-.02-.05-.05-.07-.07-.02-.02-.05-.05-.07-.07-.02-.02-.05-.05-.07-.07-.02-.02-.05-.05-.07-.07-.02-.02-.05-.05-.07-.07-.02-.02-.05-.05-.07-.07-.02-.02-.05-.05-.07-.07-.02-.02-.05-.05-.07-.07-.02-.02-.05-.05-.07-.07-.02-.02-.05-.05-.07-.07-.02-.02-.05-.05-.07-.07-.02-.02-.05-.05-.07-.07-.02-.02-.05-.05-.07-.07-.02-.02-.05-.05-.07-.07-.02-.02-.05-.05-.07-.07-.01-.01-.02-.02-.03-.03-2.28,3.17-4.43,6.1-5.81,8.91Z"/>
    <path class="cls-2" d="M129.04,214.47c0-11.59,14.33-19.59,17.93-30.03.5-1.37.29-1.94-1.44-1.94h-2.38c-5.4,0-7.99,1.73-11.02,7.99-.36.79-1.22,1.22-1.94,1.22-.19,0-.38-.04-.56-.1-4.1,4.82-7.79,9.77-7.79,15.65,0,3.58,1.29,6.62,3.48,8.75.02.02.05.05.07.07.02.02.05.05.07.07.02.02.05.05.07.07s.05.05.07.07c.02.02.05.05.07.07.02.02.05.05.07.07.02.02.05.05.07.07.02.02.05.05.07.07.02.02.05.05.07.07.02.02.05.05.07.07.02.02.05.05.07.07.02.02.05.05.07.07.02.02.05.05.07.07.02.02.05.05.07.07.02.02.05.05.07.07.02.02.05.05.07.07.02.02.05.05.07.07.02.02.05.05.07.07.02.02.05.05.07.07.02.02.05.05.07.07.02.02.05.05.07.07.02.02.05.05.07.07.02.02.05.05.07.07.02.02.05.05.07.07.02.02.05.05.07.07.02.02.05.05.07.07.02.02.05.05.07.07.02.02.05.05.07.07.02.02.05.05.07.07.02.02.05.05.07.07.02.02.05.05.07.07.02.02.05.05.07.07.02.02.05.05.07.07.02.02.05.05.07.07.02.02.05.05.07.07.02.02.05.05.07.07.02.02.05.05.07.07.02.02.05.05.07.07.02.02.05.05.07.07.02.02.05.05.07.07.02.02.05.05.07.07.02.02.05.05.07.07.02.02.05.05.07.07.02.02.05.05.07.07.02.02.05.05.07.07.02.02.05.05.07.07.02.02.05.05.07.07.02.02.05.05.07.07.02.02.05.05.07.07.02.02.05.05.07.07.02.02.05.05.07.07.02.02.05.05.07.07.02.02.05.05.07.07.02.02.05.05.07.07.02.02.05.05.07.07.02.02.05.05.07.07.02.02.05.05.07.07.02.02.05.05.07.07.02.02.05.05.07.07.02.02.05.05.07.07.02.02.05.05.07.07.02.02.05.05.07.07.02.02.05.05.07.07.02.02.05.05.07.07.02.02.05.05.07.07.02.02.05.05.07.07.02.02.05.05.07.07.02.02.05.05.07.07.02.02.05.05.07.07.02.02.05.05.07.07.02.02.05.05.07.07s.05.05.07.07c.02.02.05.05.07.07.02.02.05.05.07.07.02.02.05.05.07.07.02.02.05.05.07.07.02.02.05.05.07.07.02.02.05.05.07.07.02.02.05.05.07.07.02.02.05.05.07.07.02.02.05.05.07.07.02.02.05.05.07.07.02.02.05.05.07.07.02.02.05.05.07.07.02.02.05.05.07.07.02.02.05.05.07.07.02.02.05.05.07.07.02.02.05.05.07.07.02.02.05.05.07.07.02.02.05.05.07.07.02.02.05.05.07.07.02.02.05.05.07.07.02.02.05.05.07.07.02.02.05.05.07.07.02.02.05.05.07.07.02.02.05.05.07.07.02.02.05.05.07.07.02.02.05.05.07.07.02.02.05.05.07.07-2.14-2.13-3.41-5.14-3.41-8.68Z"/>
    <path class="cls-2" d="M128.32,189.2l3.6-12.38c.36-1.3.94-1.87,1.94-1.87,1.58,0,2.02.72,4.32.72h14.04c.69,0,1.14.14,1.43.41-.02-.03-.05-.05-.07-.07-.02-.03-.05-.05-.07-.07-.02-.03-.05-.05-.07-.07-.02-.03-.05-.05-.07-.07-.02-.03-.05-.05-.07-.07-.02-.03-.05-.05-.07-.07-.02-.03-.05-.05-.07-.07-.02-.03-.05-.05-.07-.07-.02-.03-.05-.05-.07-.07-.02-.03-.05-.05-.07-.07-.02-.03-.05-.05-.07-.07-.02-.03-.05-.05-.07-.07-.02-.03-.05-.05-.07-.07-.02-.03-.05-.05-.07-.07-.02-.03-.05-.05-.07-.07-.02-.03-.05-.05-.07-.07-.02-.03-.05-.05-.07-.07-.02-.03-.05-.05-.07-.07-.02-.03-.05-.05-.07-.07-.02-.03-.05-.05-.07-.07-.02-.03-.05-.05-.07-.07-.02-.03-.05-.05-.07-.07-.02-.03-.05-.05-.07-.07-.02-.03-.05-.05-.07-.07-.02-.03-.05-.05-.07-.07-.02-.03-.05-.05-.07-.07-.02-.03-.05-.05-.07-.07-.02-.03-.05-.05-.07-.07-.02-.03-.05-.05-.07-.07-.02-.03-.05-.05-.07-.07-.02-.03-.05-.05-.07-.07-.02-.03-.05-.05-.07-.07-.02-.03-.05-.05-.07-.07-.02-.03-.05-.05-.07-.07-.02-.03-.05-.05-.07-.07-.02-.03-.05-.05-.07-.07-.02-.03-.05-.05-.07-.07-.02-.03-.05-.05-.07-.07-.02-.03-.05-.05-.07-.07-.02-.03-.05-.05-.07-.07-.02-.03-.05-.05-.07-.07-.02-.03-.05-.05-.07-.07-.02-.03-.05-.05-.07-.07-.02-.03-.05-.05-.07-.07-.02-.03-.05-.05-.07-.07-.02-.03-.05-.05-.07-.07-.02-.03-.05-.05-.07-.07-.02-.03-.05-.05-.07-.07-.02-.03-.05-.05-.07-.07-.02-.03-.05-.05-.07-.07-.02-.03-.05-.05-.07-.07-.02-.03-.05-.05-.07-.07-.02-.03-.05-.05-.07-.07-.02-.03-.05-.05-.07-.07-.02-.03-.05-.05-.07-.07-.02-.03-.05-.05-.07-.07-.02-.03-.05-.05-.07-.07-.02-.03-.05-.05-.07-.07-.02-.03-.05-.05-.07-.07-.02-.03-.05-.05-.07-.07-.02-.03-.05-.05-.07-.07-.02-.03-.05-.05-.07-.07-.02-.03-.05-.05-.07-.07-.02-.03-.05-.05-.07-.07-.02-.03-.05-.05-.07-.07-.02-.03-.05-.05-.07-.07-.02-.03-.05-.05-.07-.07-.02-.03-.05-.05-.07-.07-.02-.03-.05-.05-.07-.07-.02-.03-.05-.05-.07-.07-.02-.03-.05-.05-.07-.07-.02-.03-.05-.05-.07-.07-.02-.03-.05-.05-.07-.07-.02-.03-.05-.05-.07-.07-.02-.03-.05-.05-.07-.07-.02-.03-.05-.05-.07-.07-.02-.03-.05-.05-.07-.07-.02-.03-.05-.05-.07-.07-.02-.03-.05-.05-.07-.07-.02-.03-.05-.05-.07-.07-.02-.03-.05-.05-.07-.07-.02-.03-.05-.05-.07-.07-.02-.03-.05-.05-.07-.07-.02-.03-.05-.05-.07-.07-.02-.03-.05-.05-.07-.07-.02-.03-.05-.05-.07-.07-.02-.03-.05-.05-.07-.07-.02-.03-.05-.05-.07-.07-.02-.03-.05-.05-.07-.07-.02-.03-.05-.05-.07-.07-.02-.03-.05-.05-.07-.07-.02-.03-.05-.05-.07-.07-.02-.03-.05-.05-.07-.07-.02-.03-.05-.05-.07-.07-.02-.03-.05-.05-.07-.07-.02-.03-.05-.05-.07-.07-.02-.03-.05-.05-.07-.07-.02-.03-.05-.05-.07-.07-.02-.03-.05-.05-.07-.07-.29-.33-.76-.48-1.5-.48h-14.04c-2.3,0-2.74-.72-4.32-.72-1.01,0-1.58.58-1.94,1.87l-3.6,12.38c-.23.76-.01,1.41.41,1.86.02.03.05.05.07.07.02.03.05.05.07.07.02.03.05.05.07.07.02.03.05.05.07.07.02.03.05.05.07.07.02.03.05.05.07.07.02.03.05.05.07.07.02.03.05.05.07.07.02.03.05.05.07.07.02.03.05.05.07.07.02.03.05.05.07.07.02.03.05.05.07.07.02.03.05.05.07.07.02.03.05.05.07.07.02.03.05.05.07.07.02.03.05.05.07.07.02.03.05.05.07.07.02.03.05.05.07.07.02.03.05.05.07.07.02.03.05.05.07.07.02.03.05.05.07.07.02.03.05.05.07.07.02.03.05.05.07.07.02.03.05.05.07.07.02.03.05.05.07.07.02.03.05.05.07.07.02.03.05.05.07.07.02.03.05.05.07.07.02.03.05.05.07.07.02.03.05.05.07.07.02.03.05.05.07.07.02.03.05.05.07.07.02.03.05.05.07.07.02.03.05.05.07.07.02.03.05.05.07.07.02.03.05.05.07.07.02.03.05.05.07.07.02.03.05.05.07.07.02.03.05.05.07.07.02.03.05.05.07.07.02.03.05.05.07.07.02.03.05.05.07.07.02.03.05.05.07.07.02.03.05.05.07.07.02.03.05.05.07.07.02.03.05.05.07.07.02.03.05.05.07.07.02.03.05.05.07.07.02.03.05.05.07.07.02.03.05.05.07.07.02.03.05.05.07.07.02.03.05.05.07.07.02.03.05.05.07.07.02.03.05.05.07.07.02.03.05.05.07.07.02.03.05.05.07.07.02.03.05.05.07.07.02.03.05.05.07.07.02.03.05.05.07.07.02.03.05.05.07.07.02.03.05.05.07.07.02.03.05.05.07.07.02.03.05.05.07.07.02.03.05.05.07.07.02.03.05.05.07.07.02.03.05.05.07.07.02.03.05.05.07.07.02.03.05.05.07.07.02.03.05.05.07.07.02.03.05.05.07.07.02.03.05.05.07.07.02.03.05.05.07.07.02.03.05.05.07.07.02.03.05.05.07.07.02.03.05.05.07.07.02.03.05.05.07.07.02.03.05.05.07.07.02.03.05.05.07.07.02.03.05.05.07.07.02.03.05.05.07.07.02.03.05.05.07.07.02.03.05.05.07.07.02.03.05.05.07.07.02.03.05.05.07.07.02.03.05.05.07.07.02.03.05.05.07.07.02.03.05.05.07.07.02.03.05.05.07.07.02.03.05.05.07.07.02.03.05.05.07.07.02.03.05.05.07.07.02.03.05.05.07.07.02.03.05.05.07.07.02.03.05.05.07.07.02.03.05.05.07.07.02.03.05.05.07.07.02.03.05.05.07.07.02.03.05.05.07.07.02.03.05.05.07.07-.37-.45-.55-1.08-.34-1.79Z"/>
    <path class="cls-4" d="M153.66,176.07c-.29-.28-.74-.41-1.43-.41h-14.04c-2.3,0-2.74-.72-4.32-.72-1.01,0-1.58.58-1.94,1.87l-3.6,12.38c-.21.72-.04,1.34.34,1.79.25.31.6.52.97.63.18.06.37.1.56.1.72,0,1.58-.43,1.94-1.22,3.02-6.26,5.62-7.99,11.02-7.99h2.38c1.73,0,1.94.58,1.44,1.94-3.6,10.44-17.93,18.43-17.93,30.03,0,3.54,1.26,6.55,3.41,8.68,2.17,2.16,5.25,3.42,8.83,3.42,8.42,0,12.24-6.41,12.24-11.88,0-2.71-.85-5.16-2.42-6.61-.94-.87-2.13-1.38-3.55-1.38-2.3,0-3.74,1.51-4.54,2.88-.5.86-.14,1.66.72,2.09,1.37.72,2.09,2.38,2.09,4.1,0,2.38-1.37,4.97-4.54,4.97-2.45,0-4.39-1.87-4.39-4.97,0-1.36.32-2.73.85-4.12.2-.51.42-1.02.67-1.54,1.38-2.81,3.53-5.75,5.81-8.91,4.72-6.55,9.95-14.1,9.87-23.67,0-.68-.12-1.16-.44-1.46Z"/>
  </g>
</svg>