<svg xmlns="http://www.w3.org/2000/svg" id="Customer_Art" data-name="Customer Art" viewBox="0 0 180 252"><defs><style>.cls-1{fill:none}.cls-2{fill:#231f20}.cls-4{fill:#f8f2e9}</style></defs><path d="M-9-9h198v270H-9z" class="cls-4"/><path d="m33 31.8-.3-.3v.1h.1zl.1.1h.1v.1l.2.1v.1l.2.1.1.2.1.1h.1v.1l.2.1v.2h.2l.1.2.1.1q-.3-1.2-1.4-1.6Z" class="cls-2"/><rect width="153" height="225" x="13.5" y="13.5" rx="4.5" ry="4.5" style="fill:#d72229"/><circle cx="67.5" cy="159.1" r="27" class="cls-2"/><circle cx="112.5" cy="92.9" r="27" class="cls-2"/><path d="M137.7 211.7q.6-.7.7-1.6zM42.3 40.4l-.7 1.5z" class="cls-1"/><path d="M58.5 68.1h-.1V68h-.1l-.1-.1v-.1H58v-.2h-.2v-.2h-.1v-.1h-.1l-.1-.1V67h-.2v-.2H57v-.2H57v-.1h-.1l-.1-.1v-.1h-.2v-.2h-.2V66h-.1v-.1h-.1l-.1-.1v-.1h-.2v-.2h-.2v-.2h-.1v-.1h-.1l-.1-.1V65h-.2v-.2H55v-.2h-.1v-.1h-.1l-.1-.1v-.1h-.2V64h-.2v-.2h-.1v-.1H54l-.1-.1v-.1h-.2v-.2h-.2v-.2h-.1V63h-.1l-.1-.1v-.1H53v-.2h-.2v-.2h-.1v-.1h-.1l-.1-.1v-.1h-.2V62h-.2v-.2H52v-.1H52l-.1-.1v-.1h-.2v-.2h-.2q.6.6.4 1.7l-3.6 12.4q-.5 2-2 1.9c-1.5 0-2-.8-4.3-.8H28q-1 0-1.5-.4h.1v.2h.2v.1h.1v.1l.1.1h.1v.2h.2v.2h.2v.1h.1v.1l.1.1h.1v.2h.2v.2h.2v.1h.1v.1l.1.1h.1v.2h.2v.2h.2v.1h.1v.1l.1.1h.1v.2h.2v.2h.2v.1h.1v.1l.1.1h.1v.2h.2v.2h.2v.1h.1v.1l.1.1h.1v.2h.2v.2h.2v.1h.1v.1l.1.1h.1v.1l.1.1h.1v.2h.2v.1h.1v.1l.1.1h.1v.1l.1.1h.1v.2h.2v.1h.1v.1l.1.1h.1v.1l.1.1h.1v.2h.2v.1h.1v.1l.1.1h.1v.1q.5.6 1.6.5h14c2.3 0 2.8.7 4.3.7q1.5 0 2-1.8L58.9 70q.3-1.2-.4-1.9M41.6 41.9q.1-.8.6-1.5.9-2.1.9-4.2c0-3-2-5-4.4-5-3.2 0-4.5 2.7-4.5 5q0 2.9 2 4.1 1.5.8.8 2.1c-.8 1.4-2.2 2.9-4.6 2.9a5 5 0 0 1-3.5-1.4l.1.2h.1v.1h.1l.1.1v.1h.2v.2h.2v.2h.1v.1h.1l.1.1v.1h.2v.2h.2v.2h.1v.1h.1l.1.1v.1h.2v.2h.2v.2h.1v.1h.1l.1.1v.1h.2v.2h.2v.2h.1v.1h.1l.1.1v.1h.2v.2h.2v.2h.1v.1h.1l.1.1v.1h.2v.2h.2v.2h.1v.1h.1l.1.1v.1h.2v.2h.2v.2h.1v.1h.1l.1.1v.1h.2v.2h.2v.2h.1v.1h.1l.1.1v.1h.2v.2h.2v.2h.1v.1h.1v.1q3.7-4.7 5.9-8.9Z" class="cls-2"/><path d="M51 37.5c0 11.6-14.4 19.6-18 30-.5 1.4-.3 2 1.5 2h2.3c5.5 0 8-1.7 11-8q.8-1.2 2-1.2h.6c4-4.7 7.8-9.7 7.8-15.6a12 12 0 0 0-3.5-8.7l-.2-.1v-.1h-.1v-.2h-.1l-.1-.1-.1-.1-.1-.1-.2-.1V35h-.1v-.2h-.1l-.1-.1-.1-.1-.1-.1-.2-.2H53v-.2h-.1l-.1-.1-.1-.1-.1-.1-.2-.2h-.1v-.2h-.1l-.1-.1-.2-.1v-.1l-.2-.2h-.1v-.2h-.1l-.1-.1-.2-.1v-.1l-.2-.2h-.1V32h-.1l-.1-.1-.2-.1v-.1l-.2-.2h-.1v-.2H50l-.1-.1-.2-.1V31l-.2-.2h-.1v-.2h-.1l-.1-.1-.2-.1v-.1l-.2-.2h-.1q0 0 0-.2h-.1l-.1-.1-.2-.1v-.1l-.2-.2H48v-.2H48l-.1-.1-.2-.1a12 12 0 0 1 3.5 8.6Z" class="cls-2"/><path d="M27.8 76.3h14c2.3 0 2.8.8 4.3.8q1.5 0 2-2l3.6-12.3q.3-1-.4-1.8l-1-.6-.5-.1q-1.2 0-2 1.2c-3 6.3-5.6 8-11 8h-2.3c-1.8 0-2-.6-1.5-2 3.6-10.4 18-18.4 18-30a12 12 0 0 0-3.5-8.7 12 12 0 0 0-8.8-3.4c-8.4 0-12.2 6.4-12.2 12a9 9 0 0 0 2.4 6.5 5 5 0 0 0 3.5 1.4c2.3 0 3.8-1.5 4.6-2.9q.6-1.3-.7-2c-1.4-.8-2.1-2.5-2.1-4.2 0-2.4 1.3-5 4.5-5 2.5 0 4.4 2 4.4 5q0 2.1-.8 4.1l-.7 1.6q-2.3 4.1-5.8 8.9c-4.8 6.5-10 14.1-9.9 23.7q0 1 .4 1.4t1.5.4" class="cls-4"/><path d="m138.4 210.1-.7 1.6q-.8 2-.8 4c0 3.2 2 5 4.4 5 3.2 0 4.5-2.5 4.5-5 0-1.7-.7-3.3-2-4q-1.5-.7-.8-2.1c.8-1.4 2.2-2.9 4.6-2.9a5 5 0 0 1 3.5 1.4l-.1-.2h-.1v-.1h-.1l-.1-.1v-.1h-.1l-.1-.1v-.1h-.2v-.2h-.1v-.1h-.1l-.1-.1v-.1h-.1l-.1-.1v-.1h-.2v-.2h-.1v-.1h-.1l-.1-.1v-.1h-.1l-.1-.1v-.1h-.2v-.2h-.1v-.1h-.1l-.1-.1v-.1h-.1l-.1-.1v-.1h-.2v-.2h-.1v-.1h-.1l-.1-.1v-.1h-.1l-.1-.1v-.1h-.2v-.2h-.1v-.1h-.1l-.1-.1v-.1h-.1l-.1-.1v-.1h-.2v-.2h-.1v-.1h-.1l-.1-.1v-.1h-.1l-.1-.1v-.1h-.2v-.2h-.1v-.1h-.1l-.1-.1v-.1h-.1l-.1-.1v-.1h-.2v-.2h-.1v-.1h-.1l-.1-.1v-.1h-.1l-.1-.1v-.1h-.2v-.2h-.1v-.1h-.1v-.1q-3.6 4.7-5.9 9ZM129 214.5c0-11.6 14.4-19.6 18-30 .5-1.4.3-2-1.5-2h-2.3c-5.4 0-8 1.7-11 8q-.8 1.2-2 1.2h-.6c-4 4.7-7.8 9.7-7.8 15.6a12 12 0 0 0 3.5 8.7l.2.2h.1v.2h.1l.1.1.1.1.1.1.2.1v.1h.1v.2h.1l.1.1.1.1.1.1.2.1v.1h.1v.2h.1l.1.1.1.1.1.1.2.1v.1h.1v.2h.1l.1.1.1.1.1.1.2.1v.1h.1v.2h.1l.1.1.1.1.1.1.2.1v.1h.1v.2h.1l.1.1.1.1.1.1.2.1v.1h.1v.2h.1l.1.1.1.1.1.1.2.1v.1h.1v.2h.1l.1.1.1.1.1.1.2.1v.1h.1v.2h.1l.1.1.1.1.1.1.2.1v.1h.1v.2h.1l.1.1.1.1a12 12 0 0 1-3.4-8.6Z" class="cls-2"/><path d="m128.3 189.2 3.6-12.4q.6-2 2-1.9c1.5 0 2 .8 4.3.8h14q1 0 1.4.4v-.2h-.2v-.1h-.1v-.1l-.1-.1h-.1v-.1l-.1-.1h-.1v-.2h-.2v-.1h-.1v-.1l-.1-.1h-.1v-.1l-.1-.1h-.1v-.2h-.2v-.1h-.1v-.1l-.1-.1h-.1v-.1l-.1-.1h-.1v-.2h-.2v-.1h-.1v-.1l-.1-.1h-.1v-.1l-.1-.1h-.1v-.2h-.2v-.1h-.1v-.1l-.1-.1h-.1v-.1l-.1-.1h-.1v-.2h-.2v-.1h-.1v-.1l-.1-.1h-.1v-.1l-.1-.1h-.1v-.2h-.2v-.1h-.1v-.1l-.1-.1h-.1v-.1l-.1-.1h-.1v-.2h-.2v-.1h-.1v-.1l-.1-.1h-.1v-.1l-.1-.1h-.1v-.2h-.2v-.1h-.1v-.1l-.1-.1h-.1v-.1l-.1-.1h-.1v-.2h-.2v-.1h-.1v-.1l-.1-.1h-.1v-.1q-.5-.6-1.6-.5h-14c-2.3 0-2.8-.7-4.3-.7q-1.5 0-2 1.8l-3.6 12.4q-.2 1.2.4 1.9h.1v.1h.1l.1.1v.1h.2v.2h.2v.2h.1v.1h.1l.1.1v.1h.2v.2h.2v.2h.1v.1h.1l.1.1v.1h.2v.2h.2v.2h.1v.1h.1l.1.1v.1h.2v.2h.2v.2h.1v.1h.1l.1.1v.1h.2v.2h.2v.2h.1v.1h.1l.1.1v.1h.2v.2h.2v.2h.1v.1h.1l.1.1v.1h.2v.2h.2v.2h.1v.1h.1l.1.1v.1h.2v.2h.2v.2h.1v.1h.1l.1.1v.1h.2v.2h.2v.2h.1v.1h.1l.1.1v.1h.2v.2h.2q-.7-.6-.4-1.7" class="cls-2"/><path d="M153.7 176q-.5-.3-1.5-.3h-14c-2.3 0-2.7-.8-4.3-.8q-1.4 0-2 2l-3.6 12.3q-.2 1 .4 1.8.3.5 1 .6l.5.1q1.2 0 2-1.2c3-6.3 5.6-8 11-8h2.3c1.8 0 2 .6 1.5 2-3.6 10.4-18 18.4-18 30a12 12 0 0 0 3.5 8.6q3.3 3.4 8.8 3.5c8.4 0 12.2-6.4 12.2-12a9 9 0 0 0-2.4-6.5 5 5 0 0 0-3.5-1.4c-2.3 0-3.8 1.5-4.6 2.9q-.6 1.3.7 2 2.1 1.4 2.1 4.2c0 2.3-1.3 5-4.5 5-2.5 0-4.4-2-4.4-5q0-2.1.9-4.2l.6-1.5q2.3-4.1 5.8-8.9c4.8-6.6 10-14.1 9.9-23.7q0-1-.4-1.4" class="cls-4"/></svg>