<?xml version="1.0" encoding="UTF-8"?>
<svg id="Customer_Art" data-name="Customer Art" xmlns="http://www.w3.org/2000/svg" viewBox="0 0 180 252">
  <defs>
    <style>
      .cls-1 {
        fill: #231f20;
      }

      .cls-2 {
        fill: #0072b2;
      }

      .cls-3 {
        fill: #f8f2e9;
      }
    </style>
  </defs>
  <rect class="cls-3" x="-9" y="-9" width="198" height="270"/>
  <rect class="cls-2" x="13.5" y="13.5" width="153" height="225" rx="4.5" ry="4.5"/>
  <g>
    <g>
      <path class="cls-1" d="M53.79,55.52s-.05-.05-.07-.07c-.02-.02-.05-.05-.07-.07-.02-.02-.05-.05-.07-.07-.02-.02-.05-.05-.07-.07-.02-.02-.05-.05-.07-.07-.02-.02-.05-.05-.07-.07-.02-.02-.05-.05-.07-.07-.02-.02-.05-.05-.07-.07-.02-.02-.05-.05-.07-.07-.02-.02-.05-.05-.07-.07-.02-.02-.05-.05-.07-.07-.02-.02-.05-.05-.07-.07-.02-.02-.05-.05-.07-.07-.02-.02-.05-.05-.07-.07-.02-.02-.05-.05-.07-.07-.02-.02-.05-.05-.07-.07-.02-.02-.05-.05-.07-.07-.02-.02-.05-.05-.07-.07-.02-.02-.05-.05-.07-.07-.02-.02-.05-.05-.07-.07-.02-.02-.05-.05-.07-.07-.02-.02-.05-.05-.07-.07-.02-.02-.05-.05-.07-.07-.02-.02-.05-.05-.07-.07-.02-.02-.05-.05-.07-.07-.02-.02-.05-.05-.07-.07-.02-.02-.05-.05-.07-.07-.02-.02-.05-.05-.07-.07-.02-.02-.05-.05-.07-.07-.02-.02-.05-.05-.07-.07-.02-.02-.05-.05-.07-.07-.02-.02-.05-.05-.07-.07-.02-.02-.05-.05-.07-.07-.02-.02-.05-.05-.07-.07-.02-.02-.05-.05-.07-.07-.02-.02-.05-.05-.07-.07-.02-.02-.05-.05-.07-.07-.02-.02-.05-.05-.07-.07-.02-.02-.05-.05-.07-.07-.02-.02-.05-.05-.07-.07-.02-.02-.05-.05-.07-.07-.02-.02-.05-.05-.07-.07-.02-.02-.05-.05-.07-.07-.02-.02-.05-.05-.07-.07-.02-.02-.05-.05-.07-.07-.02-.02-.05-.05-.07-.07-.02-.02-.05-.05-.07-.07-.02-.02-.05-.05-.07-.07-.02-.02-.05-.05-.07-.07-.02-.02-.05-.05-.07-.07-.02-.02-.05-.05-.07-.07-.02-.02-.05-.05-.07-.07-.02-.02-.05-.05-.07-.07-.02-.02-.05-.05-.07-.07-.02-.02-.05-.05-.07-.07-.02-.02-.05-.05-.07-.07-.02-.02-.05-.05-.07-.07-.02-.02-.05-.05-.07-.07-.02-.02-.05-.05-.07-.07-.02-.02-.05-.05-.07-.07-.02-.02-.05-.05-.07-.07-.02-.02-.05-.05-.07-.07-.02-.02-.05-.05-.07-.07-.02-.02-.05-.05-.07-.07-.02-.02-.05-.05-.07-.07-.02-.02-.05-.05-.07-.07-.02-.02-.05-.05-.07-.07-.02-.02-.05-.05-.07-.07-.02-.02-.05-.05-.07-.07,0,0,0,0,0,0l8.73-13.81c.64-.96.64-1.82.01-2.33-.03-.02-.04-.05-.07-.07-.02-.02-.04-.05-.07-.07-.02-.02-.04-.05-.07-.07-.02-.02-.04-.05-.07-.07-.03-.02-.04-.05-.07-.07-.02-.02-.04-.05-.07-.07-.02-.02-.04-.05-.07-.07-.02-.02-.04-.05-.07-.07-.02-.02-.04-.05-.07-.07-.02-.02-.04-.05-.07-.07-.03-.02-.04-.05-.07-.07-.02-.02-.04-.05-.07-.07-.02-.02-.04-.05-.07-.07-.03-.02-.04-.05-.07-.07-.02-.02-.04-.05-.07-.07-.03-.02-.04-.05-.07-.07-.02-.02-.04-.05-.07-.07-.02-.02-.04-.05-.07-.07-.03-.02-.04-.05-.07-.07-.02-.02-.04-.05-.07-.07-.02-.02-.04-.05-.07-.07-.02-.02-.04-.05-.07-.07-.02-.02-.04-.05-.07-.07-.02-.02-.04-.05-.07-.07-.02-.02-.04-.05-.07-.07-.02-.02-.04-.05-.07-.07-.03-.02-.04-.05-.07-.07-.02-.02-.04-.05-.07-.07-.02-.02-.04-.05-.07-.07-.03-.02-.04-.05-.07-.07-.03-.02-.04-.05-.07-.07-.02-.02-.04-.05-.07-.07-.02-.02-.04-.05-.07-.07-.02-.02-.04-.05-.07-.07-.02-.02-.04-.05-.07-.07-.02-.02-.04-.05-.07-.07-.03-.02-.04-.05-.07-.07-.02-.02-.04-.05-.07-.07-.02-.02-.04-.05-.07-.07-.03-.02-.04-.05-.07-.07-.02-.02-.04-.05-.07-.07-.03-.02-.04-.05-.07-.07-.02-.02-.04-.05-.07-.07-.02-.02-.04-.05-.07-.07-.03-.02-.04-.05-.07-.07-.02-.02-.04-.05-.07-.07-.02-.02-.04-.05-.07-.07-.02-.02-.04-.05-.07-.07-.02-.02-.04-.05-.07-.07-.02-.02-.04-.05-.07-.07-.03-.02-.04-.05-.07-.07-.02-.02-.04-.05-.07-.07-.03-.02-.04-.05-.07-.07-.02-.02-.04-.05-.07-.07-.03-.02-.04-.05-.07-.07-.03-.02-.04-.05-.07-.07-.02-.02-.04-.05-.07-.07-.03-.02-.04-.05-.07-.07-.02-.02-.04-.05-.07-.07-.02-.02-.04-.05-.07-.07-.02-.02-.04-.05-.07-.07-.02-.02-.04-.05-.07-.07-.02-.02-.04-.05-.07-.07-.02-.02-.04-.05-.07-.07-.02-.02-.04-.05-.07-.07-.02-.02-.04-.05-.07-.07-.02-.02-.04-.05-.07-.07-.03-.02-.04-.05-.07-.07-.02-.02-.04-.05-.07-.07-.02-.02-.04-.05-.07-.07-.02-.02-.04-.05-.07-.07-.02-.02-.04-.05-.07-.07-.03-.02-.04-.05-.07-.07-.02-.02-.04-.05-.07-.07-.02-.02-.04-.05-.07-.07-.03-.02-.04-.05-.07-.07-.02-.02-.04-.05-.07-.07-.02-.02-.04-.05-.07-.07-.03-.02-.04-.05-.07-.07-.02-.02-.04-.05-.07-.07-.02-.02-.04-.05-.07-.07-.03-.02-.04-.05-.07-.07-.02-.02-.04-.05-.07-.07-.03-.02-.04-.05-.07-.07-.02-.02-.04-.05-.07-.07-.02-.02-.04-.05-.07-.07-.03-.02-.04-.05-.07-.07-.02-.02-.04-.05-.07-.07-.02-.02-.04-.05-.07-.07-.02-.02-.04-.05-.07-.07-.02-.02-.04-.05-.07-.07-.02-.02-.04-.05-.07-.07-.02-.02-.04-.05-.07-.07-.03-.02-.04-.05-.07-.07-.02-.02-.04-.05-.07-.07-.02-.02-.04-.05-.07-.07-.02-.02-.04-.05-.07-.07-.03-.02-.04-.05-.07-.07-.03-.02-.04-.05-.07-.07.55.52.53,1.35-.08,2.26l-9.65,15.26c-.72,1.01-.14,1.3.72,1.3,4.97,0,9.5,5.54,9.5,14.69,0,10.8-6.7,16.06-13.25,16.06-3.7,0-6.39-1.19-8.24-2.99.02.02.05.05.07.07.02.02.05.05.07.07.02.02.05.05.07.07.02.02.05.05.07.07.02.02.05.05.07.07.02.02.05.05.07.07.02.02.05.05.07.07.02.02.05.05.07.07.02.02.05.05.07.07.02.02.05.05.07.07.02.02.05.05.07.07.02.02.05.05.07.07.02.02.05.05.07.07.02.02.05.05.07.07.02.02.05.05.07.07.02.02.05.05.07.07.02.02.05.05.07.07.02.02.05.05.07.07.02.02.05.05.07.07.02.02.05.05.07.07.02.02.05.05.07.07.02.02.05.05.07.07.02.02.05.05.07.07.02.02.05.05.07.07.02.02.05.05.07.07.02.02.05.05.07.07.02.02.05.05.07.07.02.02.05.05.07.07.02.02.05.05.07.07.02.02.05.05.07.07.02.02.05.05.07.07.02.02.05.05.07.07.02.02.05.05.07.07.02.02.05.05.07.07.02.02.05.05.07.07.02.02.05.05.07.07.02.02.05.05.07.07.02.02.05.05.07.07.02.02.05.05.07.07.02.02.05.05.07.07.02.02.05.05.07.07.02.02.05.05.07.07.02.02.05.05.07.07.02.02.05.05.07.07.02.02.05.05.07.07.02.02.05.05.07.07.02.02.05.05.07.07.02.02.05.05.07.07.02.02.05.05.07.07.02.02.05.05.07.07.02.02.05.05.07.07.02.02.05.05.07.07.02.02.05.05.07.07.02.02.05.05.07.07.02.02.05.05.07.07.02.02.05.05.07.07.02.02.05.05.07.07.02.02.05.05.07.07.02.02.05.05.07.07.02.02.05.05.07.07.02.02.05.05.07.07.02.02.05.05.07.07.02.02.05.05.07.07.02.02.05.05.07.07.02.02.05.05.07.07.02.02.05.05.07.07.02.02.05.05.07.07.02.02.05.05.07.07.02.02.05.05.07.07.02.02.05.05.07.07.02.02.05.05.07.07.02.02.05.05.07.07.02.02.05.05.07.07.02.02.05.05.07.07.02.02.05.05.07.07.02.02.05.05.07.07.02.02.05.05.07.07.02.02.05.05.07.07.02.02.05.05.07.07.02.02.05.05.07.07.02.02.05.05.07.07.02.02.05.05.07.07.02.02.05.05.07.07.02.02.05.05.07.07.02.02.05.05.07.07.02.02.05.05.07.07.02.02.05.05.07.07.02.02.05.05.07.07.02.02.05.05.07.07.02.02.05.05.07.07.02.02.05.05.07.07.02.02.05.05.07.07.02.02.05.05.07.07.02.02.05.05.07.07.02.02.05.05.07.07.02.02.05.05.07.07.02.02.05.05.07.07.02.02.05.05.07.07.02.02.05.05.07.07,1.86,1.84,4.57,3.06,8.32,3.06,6.55,0,13.25-5.26,13.25-16.06,0-5.73-1.78-10.05-4.34-12.47Z"/>
      <path class="cls-1" d="M33.42,50.35c-.61.14-1.15-.02-1.47-.36.02.03.05.05.07.07.02.03.05.05.07.07.02.03.05.05.07.07.02.03.05.05.07.07.02.03.05.05.07.07.02.03.05.05.07.07.02.03.05.05.07.07.02.03.05.05.07.07.02.03.05.05.07.07.02.03.05.05.07.07.02.03.05.05.07.07.02.03.05.05.07.07.02.03.05.05.07.07.02.03.05.05.07.07.02.03.05.05.07.07.02.03.05.05.07.07.02.03.05.05.07.07.02.03.05.05.07.07.02.03.05.05.07.07.02.03.05.05.07.07.02.03.05.05.07.07.02.03.05.05.07.07.02.03.05.05.07.07.02.03.05.05.07.07.02.03.05.05.07.07.02.03.05.05.07.07.02.03.05.05.07.07.02.03.05.05.07.07.02.03.05.05.07.07.02.03.05.05.07.07.02.03.05.05.07.07.02.03.05.05.07.07.02.03.05.05.07.07.02.03.05.05.07.07.02.03.05.05.07.07.02.03.05.05.07.07.02.03.05.05.07.07.02.03.05.05.07.07.02.03.05.05.07.07.02.03.05.05.07.07.02.03.05.05.07.07.02.03.05.05.07.07.02.03.05.05.07.07.02.03.05.05.07.07.02.03.05.05.07.07.02.03.05.05.07.07.02.03.05.05.07.07.02.03.05.05.07.07.02.03.05.05.07.07.02.03.05.05.07.07.02.03.05.05.07.07.02.03.05.05.07.07.02.03.05.05.07.07.02.03.05.05.07.07.02.03.05.05.07.07.02.03.05.05.07.07.02.03.05.05.07.07.02.03.05.05.07.07.02.03.05.05.07.07.02.03.05.05.07.07.02.03.05.05.07.07.02.03.05.05.07.07.02.03.05.05.07.07.02.03.05.05.07.07.02.03.05.05.07.07.02.03.05.05.07.07.02.03.05.05.07.07.02.03.05.05.07.07.02.03.05.05.07.07.02.03.05.05.07.07.02.03.05.05.07.07.02.03.05.05.07.07.02.03.05.05.07.07.02.03.05.05.07.07.02.03.05.05.07.07.02.03.05.05.07.07.02.03.05.05.07.07.02.03.05.05.07.07.02.03.05.05.07.07.02.03.05.05.07.07.02.03.05.05.07.07.02.03.05.05.07.07.02.03.05.05.07.07.02.03.05.05.07.07.02.03.05.05.07.07.02.03.05.05.07.07.02.03.05.05.07.07.02.03.05.05.07.07.02.03.05.05.07.07.02.03.05.05.07.07.02.03.05.05.07.07.02.03.05.05.07.07.02.03.05.05.07.07.02.03.05.05.07.07.02.03.05.05.07.07.02.03.05.05.07.07.02.03.05.05.07.07.02.03.05.05.07.07.02.03.05.05.07.07.3.39.88.58,1.54.43.53-.11,1.03-.18,1.52-.22-.82-6.38-4.07-7.97-8.72-6.98Z"/>
      <path class="cls-1" d="M40.84,34.86c.58-1.01.14-1.44-.72-1.44h-1.44c-3.02,0-4.1.58-6.7,5.54-.43,1.01-1.15,1.44-1.87,1.44-.51,0-1-.21-1.38-.56.04.05.1.1.14.14.02.03.05.05.07.07.04.05.1.1.14.14.02.03.05.05.07.07.04.05.1.1.14.14.02.03.05.05.07.07.04.05.1.1.14.14.06.08.14.15.22.22.06.08.14.15.22.22.06.08.14.15.22.22.04.05.1.1.14.14.02.03.05.05.07.07.04.05.1.1.14.14.02.03.05.05.07.07.04.05.1.1.14.14.06.08.14.15.22.22.06.08.14.15.22.22.06.08.14.15.22.22.04.05.1.1.14.14.02.03.05.05.07.07.04.05.1.1.14.14.02.03.05.05.07.07.04.05.1.1.14.14.02.03.05.05.07.07.04.05.1.1.14.14.06.08.14.15.22.22.06.08.14.15.22.22.04.05.1.1.14.14.02.03.05.05.07.07.04.05.1.1.14.14.02.03.05.05.07.07.04.05.1.1.14.14.02.03.05.05.07.07.04.05.1.1.14.14.06.08.14.15.22.22.06.08.14.15.22.22.04.05.1.1.14.14.02.03.05.04.07.07l6.78-10.31Z"/>
      <path class="cls-1" d="M36.81,59.92c.58.86.29,1.66-.72,2.09-1.22.58-1.94,2.3-1.94,4.03,0,2.38,1.3,4.97,3.82,4.97,1.96,0,3.59-1.67,4.17-6.24-.02-.02-.04-.04-.07-.07-.02-.02-.05-.05-.07-.07-.02-.02-.05-.05-.07-.07-.02-.02-.05-.05-.07-.07-.02-.02-.05-.05-.07-.07-.02-.02-.05-.05-.07-.07-.02-.02-.05-.05-.07-.07-.02-.02-.05-.05-.07-.07-.02-.02-.05-.05-.07-.07-.02-.02-.05-.05-.07-.07-.02-.02-.05-.05-.07-.07-.02-.02-.05-.05-.07-.07-.02-.02-.05-.05-.07-.07-.02-.02-.05-.05-.07-.07-.02-.02-.05-.05-.07-.07-.02-.02-.05-.05-.07-.07-.02-.02-.05-.05-.07-.07-.02-.02-.05-.05-.07-.07-.02-.02-.05-.05-.07-.07-.02-.02-.05-.05-.07-.07-.02-.02-.05-.05-.07-.07-.02-.02-.05-.05-.07-.07-.02-.02-.05-.05-.07-.07-.02-.02-.05-.05-.07-.07-.02-.02-.05-.05-.07-.07-.02-.02-.05-.05-.07-.07-.02-.02-.05-.05-.07-.07-.02-.02-.05-.05-.07-.07-.02-.02-.05-.05-.07-.07-.02-.02-.05-.05-.07-.07-.02-.02-.05-.05-.07-.07-.02-.02-.05-.05-.07-.07-.02-.02-.05-.05-.07-.07-.02-.02-.05-.05-.07-.07-.02-.02-.05-.05-.07-.07-.02-.02-.05-.05-.07-.07-.02-.02-.05-.05-.07-.07-.02-.02-.05-.05-.07-.07-.02-.02-.05-.05-.07-.07-.02-.02-.05-.05-.07-.07-.02-.02-.05-.05-.07-.07-.02-.02-.05-.05-.07-.07-.02-.02-.05-.05-.07-.07-.02-.02-.05-.05-.07-.07-.02-.02-.05-.05-.07-.07-.02-.02-.05-.05-.07-.07-.02-.02-.05-.05-.07-.07-.02-.02-.05-.05-.07-.07-.02-.02-.05-.05-.07-.07-.02-.02-.05-.05-.07-.07-.02-.02-.05-.05-.07-.07-.02-.02-.05-.05-.07-.07-.02-.02-.05-.05-.07-.07-.02-.02-.05-.05-.07-.07-.02-.02-.05-.05-.07-.07-.02-.02-.05-.05-.07-.07-.02-.02-.05-.05-.07-.07-.02-.02-.05-.05-.07-.07-.02-.02-.05-.05-.07-.07-.02-.02-.05-.05-.07-.07-.02-.02-.05-.05-.07-.07-.02-.02-.05-.05-.07-.07-.02-.02-.05-.05-.07-.07-.02-.02-.05-.05-.07-.07-.02-.02-.05-.05-.07-.07-.02-.02-.05-.05-.07-.07-.02-.02-.05-.05-.07-.07-.02-.02-.05-.05-.07-.07-.02-.02-.05-.05-.07-.07-.02-.02-.05-.05-.07-.07-.02-.02-.05-.05-.07-.07-.02-.02-.05-.05-.07-.07-.02-.02-.05-.05-.07-.07-.02-.02-.05-.05-.07-.07-.02-.02-.05-.05-.07-.07-.02-.02-.05-.05-.07-.07-.02-.02-.05-.05-.07-.07-.02-.02-.05-.05-.07-.07-.02-.02-.05-.05-.07-.07-.02-.02-.05-.05-.07-.07-.02-.02-.05-.05-.07-.07-.02-.02-.05-.05-.07-.07-.02-.02-.05-.05-.07-.07-.02-.02-.05-.05-.07-.07-.02-.02-.05-.05-.07-.07-.02-.02-.05-.05-.07-.07-.02-.02-.05-.05-.07-.07-.02-.02-.05-.05-.07-.07-.02-.02-.05-.05-.07-.07.47.48.82,1.03,1.08,1.55Z"/>
      <path class="cls-3" d="M37.67,76.84c6.55,0,13.25-5.26,13.25-16.06,0-9.14-4.54-14.69-9.5-14.69-.86,0-1.44-.29-.72-1.3l9.65-15.26c.61-.91.63-1.74.08-2.26-.36-.34-.96-.55-1.81-.55h-11.52c-2.38,0-2.66-.72-4.25-.72-1.01,0-1.73.43-2.02,1.73l-2.66,9.94c-.25.92.04,1.69.57,2.18.38.35.87.56,1.38.56.72,0,1.44-.43,1.87-1.44,2.59-4.97,3.67-5.54,6.7-5.54h1.44c.86,0,1.3.43.72,1.44l-6.78,10.31-2.07,3.15c-.46.69-.38,1.28-.03,1.66.32.33.86.49,1.47.36,4.65-.99,7.9.59,8.72,6.98.13,1.03.21,2.17.21,3.46,0,1.53-.08,2.84-.22,3.98-.58,4.57-2.21,6.24-4.17,6.24-2.52,0-3.82-2.59-3.82-4.97,0-1.73.72-3.46,1.94-4.03,1.01-.43,1.3-1.22.72-2.09-.26-.53-.62-1.07-1.08-1.55-.81-.83-1.95-1.47-3.6-1.47-3.96,0-6.12,3.89-6.12,8.14,0,3.13,1.01,6.49,3.42,8.82,1.86,1.8,4.54,2.99,8.24,2.99Z"/>
    </g>
    <g>
      <path class="cls-1" d="M146.58,201.65c.61-.14,1.15.02,1.47.36-.02-.03-.05-.05-.07-.07-.02-.03-.05-.05-.07-.07-.02-.03-.05-.05-.07-.07-.02-.03-.05-.05-.07-.07-.02-.03-.05-.05-.07-.07-.02-.03-.05-.05-.07-.07-.02-.03-.05-.05-.07-.07-.02-.03-.05-.05-.07-.07-.02-.03-.05-.05-.07-.07-.02-.03-.05-.05-.07-.07-.02-.03-.05-.05-.07-.07-.02-.03-.05-.05-.07-.07-.02-.03-.05-.05-.07-.07-.02-.03-.05-.05-.07-.07-.02-.03-.05-.05-.07-.07-.02-.03-.05-.05-.07-.07-.02-.03-.05-.05-.07-.07-.02-.03-.05-.05-.07-.07-.02-.03-.05-.05-.07-.07-.02-.03-.05-.05-.07-.07-.02-.03-.05-.05-.07-.07-.02-.03-.05-.05-.07-.07-.02-.03-.05-.05-.07-.07-.02-.03-.05-.05-.07-.07-.02-.03-.05-.05-.07-.07-.02-.03-.05-.05-.07-.07-.02-.03-.05-.05-.07-.07-.02-.03-.05-.05-.07-.07-.02-.03-.05-.05-.07-.07-.02-.03-.05-.05-.07-.07-.02-.03-.05-.05-.07-.07-.02-.03-.05-.05-.07-.07-.02-.03-.05-.05-.07-.07-.02-.03-.05-.05-.07-.07-.02-.03-.05-.05-.07-.07-.02-.03-.05-.05-.07-.07-.02-.03-.05-.05-.07-.07-.02-.03-.05-.05-.07-.07-.02-.03-.05-.05-.07-.07-.02-.03-.05-.05-.07-.07-.02-.03-.05-.05-.07-.07-.02-.03-.05-.05-.07-.07-.02-.03-.05-.05-.07-.07-.02-.03-.05-.05-.07-.07-.02-.03-.05-.05-.07-.07-.02-.03-.05-.05-.07-.07-.02-.03-.05-.05-.07-.07-.02-.03-.05-.05-.07-.07-.02-.03-.05-.05-.07-.07-.02-.03-.05-.05-.07-.07-.02-.03-.05-.05-.07-.07-.02-.03-.05-.05-.07-.07-.02-.03-.05-.05-.07-.07-.02-.03-.05-.05-.07-.07-.02-.03-.05-.05-.07-.07-.02-.03-.05-.05-.07-.07-.02-.03-.05-.05-.07-.07-.02-.03-.05-.05-.07-.07-.02-.03-.05-.05-.07-.07-.02-.03-.05-.05-.07-.07-.02-.03-.05-.05-.07-.07-.02-.03-.05-.05-.07-.07-.02-.03-.05-.05-.07-.07-.02-.03-.05-.05-.07-.07-.02-.03-.05-.05-.07-.07-.02-.03-.05-.05-.07-.07-.02-.03-.05-.05-.07-.07-.02-.03-.05-.05-.07-.07-.02-.03-.05-.05-.07-.07-.02-.03-.05-.05-.07-.07-.02-.03-.05-.05-.07-.07-.02-.03-.05-.05-.07-.07-.02-.03-.05-.05-.07-.07-.02-.03-.05-.05-.07-.07-.02-.03-.05-.05-.07-.07-.02-.03-.05-.05-.07-.07-.02-.03-.05-.05-.07-.07-.02-.03-.05-.05-.07-.07-.02-.03-.05-.05-.07-.07-.02-.03-.05-.05-.07-.07-.02-.03-.05-.05-.07-.07-.02-.03-.05-.05-.07-.07-.02-.03-.05-.05-.07-.07-.02-.03-.05-.05-.07-.07-.02-.03-.05-.05-.07-.07-.02-.03-.05-.05-.07-.07-.02-.03-.05-.05-.07-.07-.02-.03-.05-.05-.07-.07-.02-.03-.05-.05-.07-.07-.02-.03-.05-.05-.07-.07-.02-.03-.05-.05-.07-.07-.02-.03-.05-.05-.07-.07-.02-.03-.05-.05-.07-.07-.02-.03-.05-.05-.07-.07-.02-.03-.05-.05-.07-.07-.02-.03-.05-.05-.07-.07-.02-.03-.05-.05-.07-.07-.02-.03-.05-.05-.07-.07-.02-.03-.05-.05-.07-.07-.3-.39-.88-.58-1.54-.43-.53.11-1.03.18-1.52.22.82,6.38,4.07,7.97,8.72,6.98Z"/>
      <path class="cls-1" d="M139.16,217.14c-.58,1.01-.14,1.44.72,1.44h1.44c3.02,0,4.1-.58,6.7-5.54.43-1.01,1.15-1.44,1.87-1.44.58,0,1.13.26,1.52.7-.02-.03-.05-.05-.07-.07-.04-.05-.1-.1-.14-.14-.06-.08-.14-.15-.22-.22-.06-.08-.14-.15-.22-.22-.06-.08-.14-.15-.22-.22-.04-.05-.1-.1-.14-.14-.02-.03-.05-.05-.07-.07-.04-.05-.1-.1-.14-.14-.02-.03-.05-.05-.07-.07-.04-.05-.1-.1-.14-.14-.02-.03-.05-.05-.07-.07-.04-.05-.1-.1-.14-.14-.06-.08-.14-.15-.22-.22-.06-.08-.14-.15-.22-.22-.04-.05-.1-.1-.14-.14-.02-.03-.05-.05-.07-.07-.04-.05-.1-.1-.14-.14-.02-.03-.05-.05-.07-.07-.04-.05-.1-.1-.14-.14-.02-.03-.05-.05-.07-.07-.04-.05-.1-.1-.14-.14-.06-.08-.14-.15-.22-.22-.06-.08-.14-.15-.22-.22-.06-.08-.14-.15-.22-.22-.04-.05-.1-.1-.14-.14-.02-.03-.05-.05-.07-.07-.04-.05-.1-.1-.14-.14-.02-.03-.05-.05-.07-.07-.04-.05-.1-.1-.14-.14-.06-.08-.14-.15-.22-.22-.06-.08-.14-.15-.22-.22-.06-.08-.14-.15-.22-.22-.04-.05-.1-.1-.14-.14-.02-.03-.05-.05-.07-.07-.04-.05-.1-.1-.14-.14-.02-.03-.05-.05-.07-.07-.04-.05-.1-.1-.14-.14-.04-.05-.09-.09-.14-.14l-6.78,10.31Z"/>
      <path class="cls-1" d="M143.19,192.08c-.58-.86-.29-1.66.72-2.09,1.22-.58,1.94-2.3,1.94-4.03,0-2.38-1.3-4.97-3.82-4.97-1.96,0-3.59,1.67-4.17,6.24.02.02.04.04.07.06.02.02.05.05.07.07.02.02.05.05.07.07.02.02.05.05.07.07.02.02.05.05.07.07.02.02.05.05.07.07.02.02.05.05.07.07.02.02.05.05.07.07.02.02.05.05.07.07.02.02.05.05.07.07.02.02.05.05.07.07.02.02.05.05.07.07.02.02.05.05.07.07.02.02.05.05.07.07.02.02.05.05.07.07.02.02.05.05.07.07.02.02.05.05.07.07.02.02.05.05.07.07.02.02.05.05.07.07.02.02.05.05.07.07.02.02.05.05.07.07.02.02.05.05.07.07.02.02.05.05.07.07.02.02.05.05.07.07.02.02.05.05.07.07.02.02.05.05.07.07.02.02.05.05.07.07.02.02.05.05.07.07.02.02.05.05.07.07.02.02.05.05.07.07.02.02.05.05.07.07.02.02.05.05.07.07.02.02.05.05.07.07.02.02.05.05.07.07.02.02.05.05.07.07.02.02.05.05.07.07.02.02.05.05.07.07.02.02.05.05.07.07.02.02.05.05.07.07.02.02.05.05.07.07.02.02.05.05.07.07.02.02.05.05.07.07.02.02.05.05.07.07.02.02.05.05.07.07.02.02.05.05.07.07.02.02.05.05.07.07.02.02.05.05.07.07.02.02.05.05.07.07.02.02.05.05.07.07.02.02.05.05.07.07.02.02.05.05.07.07.02.02.05.05.07.07.02.02.05.05.07.07.02.02.05.05.07.07.02.02.05.05.07.07.02.02.05.05.07.07.02.02.05.05.07.07.02.02.05.05.07.07.02.02.05.05.07.07.02.02.05.05.07.07.02.02.05.05.07.07.02.02.05.05.07.07.02.02.05.05.07.07.02.02.05.05.07.07.02.02.05.05.07.07.02.02.05.05.07.07.02.02.05.05.07.07.02.02.05.05.07.07.02.02.05.05.07.07.02.02.05.05.07.07.02.02.05.05.07.07.02.02.05.05.07.07.02.02.05.05.07.07.02.02.05.05.07.07.02.02.05.05.07.07.02.02.05.05.07.07.02.02.05.05.07.07.02.02.05.05.07.07.02.02.05.05.07.07.02.02.05.05.07.07.02.02.05.05.07.07.02.02.05.05.07.07.02.02.05.05.07.07.02.02.05.05.07.07.02.02.05.05.07.07.02.02.05.05.07.07.02.02.05.05.07.07.02.02.05.05.07.07.02.02.05.05.07.07-.47-.48-.82-1.03-1.08-1.55Z"/>
      <path class="cls-1" d="M129.66,222.46l9.65-15.26c.72-1.01.14-1.3-.72-1.3-4.97,0-9.5-5.54-9.5-14.69,0-10.8,6.7-16.06,13.25-16.06,3.7,0,6.39,1.19,8.24,2.99-.02-.02-.05-.05-.07-.07-.02-.02-.05-.05-.07-.07-.02-.02-.05-.05-.07-.07-.02-.02-.05-.05-.07-.07-.02-.02-.05-.05-.07-.07-.02-.02-.05-.05-.07-.07-.02-.02-.05-.05-.07-.07-.02-.02-.05-.05-.07-.07-.02-.02-.05-.05-.07-.07-.02-.02-.05-.05-.07-.07-.02-.02-.05-.05-.07-.07-.02-.02-.05-.05-.07-.07-.02-.02-.05-.05-.07-.07-.02-.02-.05-.05-.07-.07-.02-.02-.05-.05-.07-.07-.02-.02-.05-.05-.07-.07-.02-.02-.05-.05-.07-.07-.02-.02-.05-.05-.07-.07-.02-.02-.05-.05-.07-.07-.02-.02-.05-.05-.07-.07-.02-.02-.05-.05-.07-.07-.02-.02-.05-.05-.07-.07-.02-.02-.05-.05-.07-.07-.02-.02-.05-.05-.07-.07-.02-.02-.05-.05-.07-.07-.02-.02-.05-.05-.07-.07-.02-.02-.05-.05-.07-.07-.02-.02-.05-.05-.07-.07-.02-.02-.05-.05-.07-.07-.02-.02-.05-.05-.07-.07-.02-.02-.05-.05-.07-.07-.02-.02-.05-.05-.07-.07-.02-.02-.05-.05-.07-.07-.02-.02-.05-.05-.07-.07-.02-.02-.05-.05-.07-.07-.02-.02-.05-.05-.07-.07-.02-.02-.05-.05-.07-.07-.02-.02-.05-.05-.07-.07-.02-.02-.05-.05-.07-.07-.02-.02-.05-.05-.07-.07-.02-.02-.05-.05-.07-.07-.02-.02-.05-.05-.07-.07-.02-.02-.05-.05-.07-.07-.02-.02-.05-.05-.07-.07-.02-.02-.05-.05-.07-.07-.02-.02-.05-.05-.07-.07-.02-.02-.05-.05-.07-.07-.02-.02-.05-.05-.07-.07-.02-.02-.05-.05-.07-.07-.02-.02-.05-.05-.07-.07-.02-.02-.05-.05-.07-.07-.02-.02-.05-.05-.07-.07-.02-.02-.05-.05-.07-.07-.02-.02-.05-.05-.07-.07-.02-.02-.05-.05-.07-.07-.02-.02-.05-.05-.07-.07-.02-.02-.05-.05-.07-.07-.02-.02-.05-.05-.07-.07-.02-.02-.05-.05-.07-.07-.02-.02-.05-.05-.07-.07-.02-.02-.05-.05-.07-.07-.02-.02-.05-.05-.07-.07-.02-.02-.05-.05-.07-.07-.02-.02-.05-.05-.07-.07-.02-.02-.05-.05-.07-.07-.02-.02-.05-.05-.07-.07-.02-.02-.05-.05-.07-.07-.02-.02-.05-.05-.07-.07-.02-.02-.05-.05-.07-.07-.02-.02-.05-.05-.07-.07-.02-.02-.05-.05-.07-.07-.02-.02-.05-.05-.07-.07-.02-.02-.05-.05-.07-.07-.02-.02-.05-.05-.07-.07-.02-.02-.05-.05-.07-.07-.02-.02-.05-.05-.07-.07-.02-.02-.05-.05-.07-.07-.02-.02-.05-.05-.07-.07-.02-.02-.05-.05-.07-.07-.02-.02-.05-.05-.07-.07-.02-.02-.05-.05-.07-.07-.02-.02-.05-.05-.07-.07-.02-.02-.05-.05-.07-.07-.02-.02-.05-.05-.07-.07-.02-.02-.05-.05-.07-.07-.02-.02-.05-.05-.07-.07-.02-.02-.05-.05-.07-.07-.02-.02-.05-.05-.07-.07-.02-.02-.05-.05-.07-.07-.02-.02-.05-.05-.07-.07-.02-.02-.05-.05-.07-.07-.02-.02-.05-.05-.07-.07-.02-.02-.05-.05-.07-.07-.02-.02-.05-.05-.07-.07-.02-.02-.05-.05-.07-.07-.02-.02-.05-.05-.07-.07-.02-.02-.05-.05-.07-.07-.02-.02-.05-.05-.07-.07-.02-.02-.05-.05-.07-.07-1.86-1.84-4.57-3.06-8.32-3.06-6.55,0-13.25,5.26-13.25,16.06,0,5.73,1.78,10.05,4.34,12.47.02.02.05.05.07.07.02.02.05.05.07.07.02.02.05.05.07.07.02.02.05.05.07.07.02.02.05.05.07.07.02.02.05.05.07.07.02.02.05.05.07.07.02.02.05.05.07.07.02.02.05.05.07.07.02.02.05.05.07.07.02.02.05.05.07.07.02.02.05.05.07.07.02.02.05.05.07.07.02.02.05.05.07.07.02.02.05.05.07.07.02.02.05.05.07.07.02.02.05.05.07.07.02.02.05.05.07.07.02.02.05.05.07.07.02.02.05.05.07.07.02.02.05.05.07.07.02.02.05.05.07.07.02.02.05.05.07.07.02.02.05.05.07.07.02.02.05.05.07.07.02.02.05.05.07.07.02.02.05.05.07.07.02.02.05.05.07.07.02.02.05.05.07.07.02.02.05.05.07.07.02.02.05.05.07.07.02.02.05.05.07.07.02.02.05.05.07.07.02.02.05.05.07.07.02.02.05.05.07.07.02.02.05.05.07.07.02.02.05.05.07.07.02.02.05.05.07.07.02.02.05.05.07.07.02.02.05.05.07.07.02.02.05.05.07.07.02.02.05.05.07.07.02.02.05.05.07.07.02.02.05.05.07.07.02.02.05.05.07.07.02.02.05.05.07.07.02.02.05.05.07.07.02.02.05.05.07.07.02.02.05.05.07.07.02.02.05.05.07.07.02.02.05.05.07.07.02.02.05.05.07.07.02.02.05.05.07.07.02.02.05.05.07.07.02.02.05.05.07.07.02.02.05.05.07.07.02.02.05.05.07.07.02.02.05.05.07.07.02.02.05.05.07.07.02.02.05.05.07.07.02.02.05.05.07.07.02.02.05.05.07.07.02.02.05.05.07.07.02.02.05.05.07.07.02.02.05.05.07.07.02.02.05.05.07.07.02.02.05.05.07.07.02.02.05.05.07.07.02.02.05.05.07.07,0,0,0,0,0,0l-8.73,13.81c-.64.96-.64,1.82-.01,2.33.03.02.04.05.07.07.02.02.04.05.07.07.02.02.04.05.07.07.02.02.04.05.07.07.02.02.04.05.07.07.02.02.04.05.07.07.03.02.04.05.07.07.02.02.04.05.07.07.03.02.04.05.07.07.02.02.04.05.07.07.03.02.04.05.07.07.03.02.04.05.07.07.02.02.04.05.07.07.03.02.04.05.07.07.02.02.04.05.07.07.02.02.04.05.07.07.02.02.04.05.07.07.02.02.04.05.07.07.02.02.04.05.07.07.02.02.04.05.07.07.02.02.04.05.07.07.02.02.04.05.07.07.02.02.04.05.07.07.03.02.04.05.07.07.02.02.04.05.07.07.02.02.04.05.07.07.02.02.04.05.07.07.02.02.04.05.07.07.03.02.04.05.07.07.02.02.04.05.07.07.02.02.04.05.07.07.03.02.04.05.07.07.02.02.04.05.07.07.02.02.04.05.07.07.03.02.04.05.07.07.02.02.04.05.07.07.02.02.04.05.07.07.03.02.04.05.07.07.02.02.04.05.07.07.03.02.04.05.07.07.02.02.04.05.07.07.02.02.04.05.07.07.03.02.04.05.07.07.02.02.04.05.07.07.02.02.04.05.07.07.02.02.04.05.07.07.02.02.04.05.07.07.02.02.04.05.07.07.02.02.04.05.07.07.02.02.04.05.07.07.03.02.04.05.07.07.02.02.04.05.07.07.02.02.04.05.07.07.03.02.04.05.07.07.03.02.04.05.07.07.02.02.04.05.07.07.02.02.04.05.07.07.03.02.04.05.07.07.02.02.04.05.07.07.02.02.04.05.07.07.03.02.04.05.07.07.02.02.04.05.07.07.02.02.04.05.07.07.03.02.04.05.07.07.02.02.04.05.07.07.03.02.04.05.07.07.02.02.04.05.07.07.03.02.04.05.07.07.03.02.04.05.07.07.02.02.04.05.07.07.02.02.04.05.07.07.02.02.04.05.07.07.02.02.04.05.07.07.02.02.04.05.07.07.02.02.04.05.07.07.02.02.04.05.07.07.03.02.04.05.07.07.02.02.04.05.07.07.03.02.04.05.07.07.03.02.04.05.07.07.02.02.04.05.07.07.03.02.04.05.07.07.02.02.04.05.07.07.02.02.04.05.07.07.02.02.04.05.07.07.03.02.04.05.07.07.02.02.04.05.07.07.02.02.04.05.07.07.02.02.04.05.07.07.02.02.04.05.07.07.02.02.04.05.07.07.03.02.04.05.07.07.02.02.04.05.07.07.02.02.04.05.07.07.03.02.04.05.07.07.02.02.04.05.07.07.03.02.04.05.07.07.02.02.04.05.07.07.02.02.04.05.07.07-.55-.52-.53-1.35.08-2.26Z"/>
      <path class="cls-3" d="M150.57,178.14c-1.86-1.8-4.54-2.99-8.24-2.99-6.55,0-13.25,5.26-13.25,16.06,0,9.14,4.54,14.69,9.5,14.69.86,0,1.44.29.72,1.3l-9.65,15.26c-.61.91-.63,1.74-.08,2.26.36.34.96.55,1.81.55h11.52c2.38,0,2.66.72,4.25.72,1.01,0,1.73-.43,2.02-1.73l2.66-9.94c.23-.84,0-1.54-.42-2.03-.39-.44-.94-.7-1.52-.7-.72,0-1.44.43-1.87,1.44-2.59,4.97-3.67,5.54-6.7,5.54h-1.44c-.86,0-1.3-.43-.72-1.44l6.78-10.31,2.07-3.15c.46-.69.38-1.28.03-1.66-.32-.34-.86-.49-1.47-.36-4.65.99-7.9-.59-8.72-6.98-.13-1.03-.21-2.17-.21-3.46,0-1.53.08-2.84.22-3.98.58-4.57,2.21-6.24,4.17-6.24,2.52,0,3.82,2.59,3.82,4.97,0,1.73-.72,3.46-1.94,4.03-1.01.43-1.3,1.22-.72,2.09.26.53.62,1.07,1.08,1.55.81.83,1.96,1.47,3.6,1.47,3.96,0,6.12-3.89,6.12-8.14,0-3.13-1.01-6.49-3.42-8.82Z"/>
    </g>
  </g>
  <g>
    <polygon class="cls-1" points="89.27 175.7 47 151.3 47 200.11 89.27 175.7"/>
    <polygon class="cls-1" points="118.03 126 75.77 101.6 75.77 150.4 118.03 126"/>
    <polygon class="cls-1" points="146.79 76.3 104.52 51.89 104.52 100.7 146.79 76.3"/>
  </g>
</svg>