<svg xmlns="http://www.w3.org/2000/svg" id="Customer_Art" data-name="Customer Art" viewBox="0 0 180 252"><defs><style>.cls-1{fill:#231f20}.cls-3{fill:#f8f2e9}</style></defs><path d="M-9-9h198v270H-9z" class="cls-3"/><rect width="153" height="225" x="13.5" y="13.5" rx="4.5" ry="4.5" style="fill:#d72229"/><path d="m53.8 55.5-.1-.1h-.1v-.2h-.2V55h-.1V55l-.1-.1H53v-.1l-.2-.1v-.2h-.2v-.1h-.1v-.1l-.1-.1h-.1V54h-.2v-.2H52v-.1h-.1v-.1l-.1-.1h-.1v-.2h-.2V53h-.2V53h-.1v-.1l-.1-.1H51v-.2h-.2v-.2h-.2v-.1h-.1v-.1l-.1-.1h-.1v-.2H50v-.2h-.2v-.1h-.1v-.1l-.1-.1h-.1v-.2h-.2V51h-.2v-.1H49v-.1l-.1-.1 8.7-13.8q.9-1.5 0-2.4h-.1l-.1-.2-.2-.1V34L57 34l-.1-.2h-.1l-.1-.2-.2-.1v-.1l-.2-.1-.1-.2h-.1l-.1-.2-.2-.1v-.1l-.2-.1-.1-.2h-.1l-.1-.2-.2-.1V32l-.2-.1-.1-.2h-.1l-.1-.2-.2-.1v-.1l-.2-.1-.1-.2H54l-.1-.2-.2-.1v-.1l-.2-.1-.1-.2h-.1l-.1-.2-.2-.1v-.1l-.2-.1-.1-.2h-.1l-.1-.2-.2-.1v-.1l-.2-.1-.1-.2H52l-.1-.2-.2-.1v-.1l-.2-.1-.1-.2h-.1l-.1-.2-.2-.1v-.1l-.2-.1q.8.7-.1 2.2L41 45c-.7 1-.1 1.3.8 1.3 5 0 9.5 5.6 9.5 14.7 0 10.8-6.7 16-13.3 16q-5.5-.1-8.2-2.9l.1.1v.1h.1l.1.1v.1h.2v.2h.1v.1h.1l.1.1v.1h.1l.1.1v.1h.2v.2h.1v.1h.1l.1.1v.1h.1l.1.1v.1h.2v.2h.1v.1h.1l.1.1v.1h.1l.1.1v.1h.2v.2h.1v.1h.1l.1.1v.1h.1l.1.1v.1h.2v.2h.1v.1h.1l.1.1v.1h.1l.1.1v.1h.2v.2h.1v.1h.1l.1.1v.1h.1l.1.1v.1h.2v.2h.1v.1h.1l.1.1v.1h.1l.1.1v.1h.2v.2h.1v.1h.1l.1.1v.1h.1l.1.1v.1h.2v.2h.1v.1h.1l.1.1v.1h.1l.1.1v.1h.2v.2h.1q2.8 3 8.3 3c6.6 0 13.3-5.2 13.3-16 0-5.7-1.8-10-4.4-12.4Z" class="cls-1"/><path d="M33.4 50.4q-1 .1-1.4-.4v.1l.2.1.1.1v.1h.1l.1.2h.2v.2l.2.1.1.1v.1h.1l.1.2h.2v.2l.2.1.1.1v.1h.1l.1.2h.2v.2l.2.1.1.1v.1h.1l.1.2h.2v.2l.2.1.1.1v.1h.1l.1.2h.2v.2l.2.1.1.1v.1h.1l.1.2h.2v.2l.2.1.1.1v.1h.1l.1.2h.2v.2l.2.1.1.1v.1h.1l.1.2h.2v.2l.2.1.1.1v.1h.1l.1.2h.2v.2l.2.1.1.1v.1h.1l.1.2q.6.6 1.6.5L42 57c-.8-6.3-4-8-8.7-7ZM40.8 34.9q.8-1.5-.7-1.5h-1.4c-3 0-4.1.6-6.7 5.6q-.7 1.4-1.9 1.4a2 2 0 0 1-1.4-.6l.2.2.2.2.2.2.2.2.2.2.2.3.3.2.1.1.2.2.2.2.2.3.3.2.2.2.1.1v.1l.2.1.1.1.1.1.1.1.2.2.2.2.2.2.1.1.1.1.1.1.1.1.2.2.2.2.2.2.2.2.1.1.1.1zM36.8 60q.9 1.3-.7 2c-1.2.6-2 2.3-2 4 0 2.4 1.4 5 3.9 5 2 0 3.6-1.7 4.1-6.2v-.1H42v-.1l-.1-.1h-.1v-.1l-.1-.1h-.1V64h-.2V64h-.1v-.1l-.1-.1H41v-.1l-.1-.1h-.1v-.2h-.2v-.1h-.1v-.1l-.1-.1h-.1V63l-.1-.1h-.1v-.2H40v-.1h-.1v-.1l-.1-.1h-.1v-.1l-.2-.1V62h-.2v-.1h-.1v-.1l-.1-.1H39v-.1l-.2-.1v-.2h-.2v-.1h-.1V61l-.1-.1h-.1v-.1l-.2-.1v-.2h-.2v-.1h-.1v-.1l-.1-.1h-.1v-.1l-.2-.1v-.2h-.2v-.1H37v-.1l-.1-.1h-.1v-.1l-.2-.1v-.2h-.2V59h-.1V59l-.1-.1h-.1v-.1l-.2-.1v-.2l1 1.6Z" class="cls-1"/><path d="M37.7 76.8c6.5 0 13.2-5.2 13.2-16 0-9.2-4.5-14.7-9.5-14.7-.8 0-1.4-.3-.7-1.3l9.7-15.3q.9-1.4 0-2.2-.5-.6-1.8-.6H37.1c-2.4 0-2.7-.7-4.3-.7q-1.5-.1-2 1.7l-2.6 10a2 2 0 0 0 2 2.7q1 0 1.8-1.4c2.6-5 3.7-5.6 6.7-5.6H40q1.5 0 .7 1.5l-6.7 10.3-2.1 3.1q-.7 1 0 1.7.5.5 1.4.4c4.7-1 8 .5 8.8 7a28 28 0 0 1 0 7.4c-.6 4.5-2.3 6.2-4.2 6.2-2.5 0-3.8-2.6-3.8-5 0-1.7.7-3.4 1.9-4q1.5-.7.7-2-.4-.9-1-1.6-1.2-1.4-3.7-1.5c-4 0-6 3.9-6 8.1 0 3.2 1 6.5 3.3 8.9q2.8 2.8 8.3 3Z" class="cls-3"/><path d="M146.6 201.7q.9-.2 1.5.3h-.1v-.1l-.2-.1-.1-.1v-.1h-.1l-.1-.1v-.1h-.1l-.1-.2-.2-.1-.1-.1v-.1h-.1l-.1-.1v-.1h-.1l-.1-.2-.2-.1-.1-.1v-.1h-.1l-.1-.1v-.1h-.1l-.1-.2-.2-.1-.1-.1v-.1h-.1l-.1-.1v-.1h-.1l-.1-.2-.2-.1-.1-.1v-.1h-.1l-.1-.1v-.1h-.1l-.1-.2-.2-.1-.1-.1v-.1h-.1l-.1-.1v-.1h-.1l-.1-.2-.2-.1-.1-.1v-.1h-.1l-.1-.1v-.1h-.1l-.1-.2-.2-.1-.1-.1v-.1h-.1l-.1-.1v-.1h-.1l-.1-.2-.2-.1-.1-.1v-.1h-.1l-.1-.1v-.1h-.1l-.1-.2-.2-.1-.1-.1v-.1h-.1l-.1-.1v-.1q-.7-.7-1.6-.4l-1.5.2c.8 6.4 4 8 8.7 7ZM139.2 217.1q-.8 1.5.7 1.5h1.4c3 0 4.1-.6 6.7-5.6q.7-1.4 1.9-1.4a2 2 0 0 1 1.5.7l-.2-.2-.2-.2-.2-.3-.3-.2-.1-.1-.2-.2-.2-.2v-.1l-.2-.1-.2-.3-.3-.2-.1-.1-.2-.2v-.1l-.2-.1-.1-.1-.1-.1-.3-.3-.2-.2-.2-.2-.1-.1-.1-.1-.1-.2h-.1l-.2-.2-.2-.2-.2-.2-.2-.2-.2-.2-.2-.2-.2-.2-.1-.1zM143.2 192q-.9-1.3.7-2c1.2-.6 2-2.3 2-4 0-2.4-1.4-5-3.9-5-2 0-3.6 1.7-4.1 6.2l.1.2.1.1h.1v.1l.1.1h.1v.1l.2.1.1.2.1.1h.1v.1l.1.1h.1v.1l.2.1.1.2.1.1h.1v.1l.1.1h.1v.1l.2.1.1.2.1.1h.1v.1l.1.1h.1v.1l.2.1.1.2.1.1h.1v.1l.1.1h.1v.1l.2.1.1.2.1.1h.1v.1l.1.1h.1v.1l.2.1.1.2.1.1h.1v.1l.1.1h.1v.1l.2.1.1.2.1.1h.1v.1l.1.1h.1v.1l.2.1.1.2.1.1h.1v.1l.1.1h.1v.1q-.6-.7-1-1.5Z" class="cls-1"/><path d="m129.7 222.5 9.6-15.3c.7-1 .1-1.3-.7-1.3-5 0-9.5-5.5-9.5-14.7 0-10.8 6.7-16 13.2-16q5.5 0 8.3 3v-.1l-.2-.1-.1-.1v-.1h-.1l-.1-.1v-.1h-.1l-.1-.2-.2-.1-.1-.1v-.1h-.1l-.1-.1v-.1h-.1l-.1-.2-.2-.1-.1-.1v-.1h-.1l-.1-.1v-.1h-.1l-.1-.2-.2-.1-.1-.1v-.1h-.1l-.1-.1v-.1h-.1l-.1-.2-.2-.1-.1-.1v-.1h-.1l-.1-.1v-.1h-.1l-.1-.2-.2-.1-.1-.1v-.1h-.1l-.1-.1v-.1h-.1l-.1-.2-.2-.1-.1-.1v-.1h-.1l-.1-.1v-.1h-.1l-.1-.2-.2-.1-.1-.1v-.1h-.1l-.1-.1v-.1h-.1l-.1-.2-.2-.1-.1-.1v-.1h-.1l-.1-.1v-.1h-.1l-.1-.2-.2-.1-.1-.1v-.1h-.1l-.1-.1v-.1h-.1q-2.8-3-8.4-3.1c-6.5 0-13.2 5.2-13.2 16 0 5.7 1.8 10 4.3 12.5l.2.1.1.2.1.1h.1v.1l.2.1v.2h.2l.1.2.1.1h.1v.1l.2.1v.2h.2l.1.2.1.1h.1v.1l.2.1v.2h.2l.1.2.1.1h.1v.1l.2.1v.2h.2l.1.2.1.1h.1v.1l.2.1v.2h.2l.1.2.1.1h.1v.1l.2.1v.2h.2l.1.2.1.1h.1v.1l.2.1-8.8 13.8q-.9 1.5 0 2.4h.2v.2l.2.1.1.1v.1h.1l.1.2h.2v.2l.2.1.1.1v.1h.1l.1.2h.2v.2l.2.1.1.1v.1h.1l.1.2h.2v.2l.2.1.1.1v.1h.1l.1.1v.1h.1l.1.2.2.1.1.1v.1h.1l.1.1v.1h.1l.1.2.2.1.1.1v.1h.1l.1.1v.1h.1l.1.2.2.1.1.1v.1h.1l.1.1v.1h.1l.1.2.2.1.1.1v.1h.1l.1.1v.1h.1l.1.2.2.1.1.1v.1h.1l.1.1v.1h.1l.1.2.2.1.1.1v.1h.1q-.8-.7.1-2.2Z" class="cls-1"/><path d="M150.6 178.1q-2.8-2.8-8.3-3c-6.5 0-13.2 5.3-13.2 16.1 0 9.1 4.5 14.7 9.5 14.7.8 0 1.4.3.7 1.3l-9.7 15.3q-.9 1.4 0 2.2.5.6 1.8.6h11.5c2.4 0 2.7.7 4.2.7q1.6.1 2-1.7l2.7-10q.3-1.2-.4-2a2 2 0 0 0-1.5-.7q-1.2 0-1.9 1.4c-2.6 5-3.7 5.6-6.7 5.6H140q-1.5 0-.7-1.5l6.7-10.3 2.1-3.1q.7-1 0-1.7-.5-.5-1.4-.4c-4.7 1-8-.5-8.8-7a28 28 0 0 1 0-7.4c.6-4.5 2.3-6.2 4.2-6.2 2.5 0 3.8 2.6 3.8 5 0 1.7-.7 3.4-1.9 4q-1.6.7-.7 2 .3.9 1 1.6 1.3 1.4 3.7 1.5c4 0 6-3.9 6-8.1 0-3.2-1-6.5-3.3-8.9" class="cls-3"/><path d="M89.3 175.7 47 151.3v48.8zM118 126l-42.2-24.4v48.8zM146.8 76.3l-42.3-24.4v48.8z" class="cls-1"/></svg>