<svg xmlns="http://www.w3.org/2000/svg" id="Customer_Art" data-name="Customer Art" viewBox="0 0 180 252"><defs><style>.cls-1{fill:#231f20}.cls-3{fill:#f8f2e9}</style></defs><path d="M-9-9h198v270H-9z" class="cls-3"/><rect width="153" height="225" x="13.5" y="13.5" rx="4.5" ry="4.5" style="fill:#0072b2"/><circle cx="59.1" cy="126" r="22.5" class="cls-1"/><circle cx="59.1" cy="187.7" r="22.5" class="cls-1"/><circle cx="120.8" cy="64.3" r="22.5" class="cls-1"/><circle cx="120.8" cy="126" r="22.5" class="cls-1"/><path d="M58.2 65.4H58v-.1h-.2v-.1l-.1-.1-.1-.1-.1-.1-.2-.2v-.1h-.2v-.1l-.1-.1-.1-.1-.1-.1-.2-.2v-.1h-.2v-.1l-.1-.1-.1-.1-.1-.1-.2-.2v-.1h-.2V63l-.1-.1-.1-.1-.1-.1-.2-.2v-.1H55v-.1l-.1-.1-.1-.1-.1-.1-.2-.2v-.1h-.2v-.1l-.1-.1-.1-.1-.1-.1-.2-.2v-25q.1-1.4-.4-1.8h-.1v-.1h-.1l-.1-.2-.4-.4h-.1v-.1l-.2-.1v-.1l-.2-.1-.1-.1V33H52l-.1-.2-.2-.1v-.1l-.2-.1-.1-.1v-.1h-.1l-.1-.2-.2-.1V32l-.2-.1-.1-.1v-.1h-.1l-.1-.2-.2-.1v-.1l-.2-.1-.1-.1V31H50l-.1-.2-.2-.1v-.1l-.2-.1-.1-.1v-.1h-.1l-.1-.2-.2-.1v-.1l-.2-.1-.1-.1v-.1h-.1l-.1-.2-.2-.1v-.1L48 29 48 29v-.1h-.1l-.1-.2-.2-.1v-.1l-.2-.1-.1-.1v-.1h-.1L47 28l-.2-.1v-.1l-.2-.1-.1-.1v-.1q.3.4.3 1.8v27.3q-.1 1.8 1.7 1.7H50q1.6-.1 1.5 1.4v1.7q.1 1.6-1.5 1.4h-1.5q-1.8 0-1.7 1.8v4c0 3.2.9 4.7 2 5.8.8.8.2 2.3-.8 2.3H37.6q-.6 0-1-.5l.1.2.1.1h.1v.1l.2.1.1.2h.1l.1.2.1.1h.1v.1l.2.1.1.1v.1h.1l.1.2.1.1h.1v.1l.2.1.1.1v.1h.1l.1.2.1.1h.1v.1l.2.1.1.1v.1h.1l.1.2.1.1h.1v.1l.2.1.1.1v.1h.1l.1.2.1.1h.1v.1l.2.1.1.1v.1h.1l.1.2.1.1h.1v.1l.2.1.1.1v.1h.1l.1.2.1.1h.1v.1l.2.1.1.1v.1h.1l.1.2.1.1h.1v.1l.2.1.1.1v.1h.1l.1.2.1.1h.1v.1l.2.1.1.1q.3.6 1.1.6h10.5c1 0 1.6-1.5.8-2.3-1.1-1.1-2-2.6-2-5.7v-4.1q-.1-1.9 1.7-1.8h1.6q1.5.2 1.4-1.4v-1.7q0-1-.3-1.1Z" class="cls-1"/><path d="M38.3 68.4v-4.2q.1-1.8-1.7-1.7h-8q-1.7 0-2.3-.5l.1.1.2.2v.1h.2v.1l.1.1.1.2h.1l.2.2v.1h.2v.1l.1.1.1.2h.1l.2.2v.1h.2v.1l.1.1.1.1.1.1.2.2v.1h.2v.1l.1.1.1.1.1.1.2.2v.1h.2v.1l.1.1.1.1.1.1.2.2v.1h.2v.1l.1.1.1.1.1.1.2.2v.1h.2v.1l.1.1.1.1.1.1.2.2v.1h.2v.1l.1.1.1.1.1.1.2.2v.1h.2v.1l.1.1.1.1.1.1.2.2v.1h.2v.1l.1.1q.6.7 2.3.6h2.6v-1.4ZM33 58h3.6q1.8 0 1.7-1.8V42.7q-.2-3.1-1.4-.2L32 56.5q-.6 1.7 1 1.5" class="cls-1"/><path d="M37.3 76.3h10.5c1 0 1.6-1.4.7-2.3-1-1-1.9-2.5-1.9-5.6v-4.1q-.1-1.9 1.7-1.8h1.5q1.6.1 1.5-1.4v-1.7q.1-1.5-1.5-1.4h-1.5q-1.8.1-1.7-1.7V29q.1-1.4-.4-1.8t-2-.5h-3c-1.4 0-1.5.2-2 1.5L26 58.2q-.4.9-.4 1.5 0 1.8.7 2.3t2.2.5h8q2-.1 1.8 1.7v5.5c-.3 2.3-1 3.4-2 4.3q-.8 1 0 1.9.4.4 1 .4Zm-5.2-19.8 4.8-14q1.2-3 1.4 0v13.8q.1 1.8-1.7 1.7H33q-1.6.2-1-1.5" class="cls-3"/><path d="M121.9 186.6zh.2v.1l.1.1.1.1.1.1.1.2h.1v.1h.2v.1l.1.1.1.1.1.1.1.2h.1v.1h.2v.1l.1.1.1.1.1.1.1.2h.1v.1h.2v.1l.1.1.1.1.1.1.1.2h.1v.1h.2v.1l.1.1.1.1.1.1.1.2h.1v.1h.2v.1l.1.1.1.1.1.1.1.2v25q0 1.4.5 1.8h.1v.1h.1l.1.2.1.1h.1v.1l.2.1.1.1v.1h.1l.1.2.1.1h.1v.1l.2.1.1.1v.1h.1l.1.2.1.1h.1v.1l.2.1.1.1v.1h.1l.1.2.1.1h.1v.1l.2.1.1.1v.1h.1l.1.2.1.1h.1v.1l.2.1.1.1v.1h.1l.1.2.1.1h.1v.1l.2.1.1.1v.1h.1l.1.2.1.1h.1v.1l.2.1.1.1v.1h.1l.1.2.1.1h.1v.1l.2.1.1.1v.1h.1l.1.2.1.1h.1v.1l.2.1.1.1v.1h.1l.1.2.1.1h.1v.1l.2.1q-.4-.4-.4-1.8v-27.3q0-1.8-1.7-1.7h-1.6q-1.5.1-1.4-1.5v-1.6q-.1-1.6 1.4-1.5h1.6q1.8.1 1.7-1.7v-4c0-3.3-.9-4.7-2-5.8-.8-.8-.3-2.3.8-2.3h10.5q.7 0 1 .5v-.1h-.1v-.1l-.2-.1-.1-.2h-.1l-.1-.2-.2-.1v-.1l-.2-.1-.1-.2h-.1l-.1-.2-.2-.1v-.1l-.2-.1-.1-.2h-.1l-.1-.2-.2-.1v-.1l-.2-.1-.1-.2h-.1l-.1-.2-.2-.1v-.1l-.2-.1-.1-.2h-.1l-.1-.2-.2-.1v-.1l-.2-.1-.1-.2h-.1l-.1-.2-.2-.1v-.1l-.2-.1-.1-.2h-.1l-.1-.2-.2-.1v-.1l-.2-.1-.1-.2h-.1l-.1-.2-.2-.1v-.1l-.2-.1-.1-.2h-.1l-.1-.2-.2-.1v-.1l-.2-.1-.1-.2h-.1l-.1-.2q-.4-.5-1.1-.5h-10.5c-1 0-1.6 1.5-.8 2.3 1.1 1.1 2 2.5 2 5.7v4.1q0 1.8-1.7 1.7h-1.6q-1.5-.2-1.4 1.5v1.6q0 .9.3 1.2Z" class="cls-1"/><path d="M141.7 183.7v4q-.1 2 1.7 1.8h8q1.8 0 2.3.5l-.1-.1-.1-.2h-.1v-.1h-.2v-.1l-.1-.1-.1-.1-.1-.1-.1-.2h-.1v-.1h-.2v-.1l-.1-.1-.1-.1-.1-.1-.1-.2h-.1v-.1h-.2v-.1l-.1-.1-.1-.1-.1-.1-.1-.2h-.1v-.1h-.2v-.1l-.1-.1-.1-.1-.1-.1-.1-.2h-.1v-.1h-.2v-.1l-.1-.1-.1-.1-.1-.1-.1-.2h-.1v-.1h-.2v-.1l-.1-.1-.1-.1-.1-.1-.1-.2h-.1v-.1h-.2v-.1l-.1-.1-.1-.1-.1-.1-.1-.2h-.1v-.1h-.2v-.1l-.1-.1-.1-.1-.1-.1-.1-.2h-.1v-.1h-.2v-.1l-.1-.1-.1-.1-.1-.1-.1-.2h-.1v-.1h-.2v-.1l-.1-.1q-.5-.7-2.3-.6h-2.6v1.4ZM147 194h-3.6q-1.8 0-1.7 1.8v13.6q.2 3.1 1.4.2l4.8-14.1q.6-1.7-1-1.5" class="cls-1"/><path d="M142.7 175.7h-10.4c-1.1 0-1.7 1.4-.8 2.3 1 1 1.9 2.5 1.9 5.7v4q.1 2-1.7 1.8h-1.5q-1.6-.1-1.5 1.4v1.7q-.2 1.5 1.5 1.4h1.5q1.8-.1 1.7 1.7V223q-.1 1.4.4 1.8.5.6 2 .5h3c1.4 0 1.5-.2 2-1.5l13.2-30q.4-.9.3-1.5 0-1.7-.6-2.3t-2.2-.5h-8q-2 .1-1.8-1.7v-5.5q.5-3.1 2-4.3.8-1 0-1.9-.3-.4-1-.4m5.2 19.8-4.8 14q-1.2 3-1.4 0v-13.7q-.1-2 1.7-1.8h3.5q1.6-.1 1 1.5" class="cls-3"/></svg>