<svg xmlns="http://www.w3.org/2000/svg" id="Customer_Art" data-name="Customer Art" viewBox="0 0 180 252"><defs><style>.cls-1{fill:#231f20}.cls-2{fill:#d72229}.cls-3{fill:#0072b2}.cls-4{fill:#e79024}</style></defs><path d="M-9-9h198v270H-9z" style="fill:#f8f2e9"/><path d="M52 166.4c-.8-2.7-1.6-3-2.9-2.7-2.4.8-3 5.2-1.7 9.8s4.4 8 6.8 7.3c1.3-.4 1.7-1.2 1-3.8zM112.7 110.4c3.4-1 2-8.3-.7-17.5s-5.9-15.7-9-14.8c-3.2 1-2.1 8.1.6 17.3s5.6 16 9.1 15ZM89.2 135c-3.4 1-2 8.3.7 17.5s6 15.8 9 14.8c3.2-1 2.2-8.1-.6-17.3s-5.5-16-9.1-15" class="cls-1"/><path d="M162.6 151c.7-1.1.6-2.4-.6-5l-9.2-19.9q-.6-1.1-1-1-.2 0 0 1.3l3.7 21.4c.5 3 1.1 4 2.3 4.6 1 .5 1 1.8 0 2.1l-7.4 2.2c-.9.3-1.6-.7-1-1.7.6-1.2.4-2.3-.9-5l-9.4-20q-.6-1.4-.8-1.1-.3 0-.1 1.5l2.7 15.3c1.6 9 2.3 10.2 3.5 10.8 1 .5 1 1.8 0 2l-7 2.2h-.5l-.4.2-8.6 2.6c-1 .3-1.8-.8-1.4-1.7.7-1.1 1-2.6.2-5.3l-2.4-8.3c-.6-1.9-1.1-2.3-3-1.7l-3 1c-2 .5-2.3 1.1-1.8 3l2.5 8.3c.8 2.8 2 3.7 3.2 4.3.9.6.7 1.9-.2 2.2l-8.6 2.6c-1 .2-1.8-.8-1.4-1.7.6-1.2 1-2.6.2-5.4l-8.5-28.4c-.8-2.7-1.9-3.6-3.1-4.3-.8-.5-.7-1.8.2-2.1l8.7-2.6c1-.3 1.7.8 1.4 1.7-.7 1.1-1.2 2.6-.4 5.2l3 10.3c.6 1.9 1.2 2 3.1 1.5l3-1c2-.5 2.2-1 1.7-2.8l-3-10.3c-.9-2.6-2-3.6-3.2-4.2-.8-.5-.7-1.9.3-2.2l8.6-2.6c1-.2 1.8.8 1.4 1.7-.7 1.2-1.2 2.6-.4 5.3l8.6 28.4c.7 2.5 1.7 3.5 2.8 4.1.7-1.3 1-4-.2-11.4l-3.8-28.4c-.2-1.6.2-2.2 1.8-2.7l2.2-.7q2.1-.7 3 1.4l8.8 18.6q.5 1.3.9 1 .3 0 0-1.3l-3-20.4q-.4-2.2 1.8-2.7l2.2-.7c1.6-.5 2.3-.2 3 1.3l13.4 27.2V18c0-2.5-2-4.5-4.5-4.5H18c-2.5 0-4.5 2-4.5 4.5v82l2.8-.8c1-.3 1.6.8 1.1 1.8-.7 1.1-.6 2.4.6 5l9.2 19.9q.6 1.1 1 1 .2 0 0-1.3l-3.8-21.4c-.5-3-1-4-2.3-4.6-.9-.5-.9-1.9 0-2.1l7.4-2.2c1-.3 1.7.7 1.1 1.7-.7 1.1-.4 2.3.8 5l9.4 20q.6 1.4 1 1v-1.4L39 106.3c-1.6-9-2.3-10.2-3.6-10.8-.9-.5-.9-1.8 0-2l7.1-2.2h.5l.4-.2 8.6-2.6c1-.3 1.8.8 1.4 1.7-.7 1.1-1 2.6-.2 5.3l2.4 8.3c.6 1.9 1.1 2.3 3 1.7l3-1c2-.5 2.3-1.1 1.7-3L61 93.2c-.8-2.8-2-3.7-3.3-4.3-.8-.6-.7-1.9.3-2.2l8.6-2.6c1-.2 1.8.8 1.4 1.7-.7 1.2-1 2.6-.2 5.4l8.5 28.4c.8 2.7 1.9 3.6 3.1 4.3.8.5.7 1.8-.3 2.1l-8.6 2.6c-1 .3-1.8-.8-1.4-1.7.7-1.1 1.2-2.6.4-5.2l-3-10.3c-.6-1.9-1.2-2-3.1-1.5l-3 .9c-2 .6-2.3 1-1.7 2.9l3 10.3c.9 2.6 2 3.6 3.2 4.2.8.5.7 1.9-.3 2.2l-8.6 2.5c-1 .3-1.8-.7-1.4-1.6.7-1.2 1.1-2.6.3-5.3l-8.5-28.4c-.7-2.5-1.7-3.5-2.8-4.1-.7 1.3-1 4 .2 11.4l3.7 28.4c.3 1.6-.1 2.2-1.7 2.7l-2.3.7q-2 .7-2.9-1.4l-8.8-18.6q-.5-1.2-.9-1-.3 0 0 1.3l3 20.4c.2 1.6-.3 2.2-1.8 2.7l-2.3.7q-2.1.7-3-1.3l-13.3-27.2V234c0 2.5 2 4.5 4.5 4.5h144c2.5 0 4.5-2 4.5-4.5v-82l-2.8.8c-1 .3-1.6-.8-1.1-1.8m-15-45q-3.8-.2-3.7-5.3t3.7-5.2c2.3 0 3.6 2 3.6 5.2q0 5.1-3.7 5.3Zm-1.4-45.6h3c1.6 0 2.5.5 2.5 2.5 0 6.5-1.1 17.4-2.4 27.9-.1 1-1 1.5-1.9 1.5-.7 0-1.5-.4-1.6-1.5a279 279 0 0 1-2.2-28c0-2 1-2.4 2.5-2.4m-31.4 9.4 9-2.8c8.1-2.4 14 2.7 16 9.4 2.5 8.6-1.6 14.2-7.7 16.4-1.6.6-1.6 1.1-1.2 2.6l2.2 7.3c.8 2.6 1.9 3.6 3 4.2.9.5.8 1.9-.2 2.2l-8.6 2.6c-1 .2-1.8-.8-1.4-1.7.7-1.2 1.2-2.6.4-5.3l-8.5-28.4c-.9-2.8-2-3.7-3.3-4.4-.8-.5-.7-1.8.3-2.1Zm-40.6 35c-4-13.3-2.1-22.7 5.5-25 5.6-1.7 10.7 1.8 14.6 9-.8-8.2 1.7-13.9 7.3-15.6 7.6-2.2 14.2 4.7 18.2 18 3.9 13.1 2.1 22.5-5.4 24.8-5.6 1.6-10.8-1.7-14.7-9 .8 8.2-1.6 13.8-7.2 15.5-7.6 2.3-14.3-4.6-18.3-17.7M32.5 146q3.7.2 3.6 5.3c0 3.2-1.2 5.2-3.7 5.1-2.3 0-3.6-2-3.6-5.1q0-5.2 3.7-5.3m1.4 45.6h-3.1c-1.6 0-2.5-.5-2.5-2.5 0-6.5 1.1-17.4 2.4-27.8.1-1.2 1-1.6 1.9-1.6q1.2-.1 1.7 1.6c1.2 10.4 2 21.3 2 27.8 0 2-.8 2.5-2.4 2.5Zm31.3-9.4-9 2.8c-8.1 2.4-14-2.7-16-9.4-2.5-8.6 1.6-14.2 7.7-16.4 1.6-.6 1.6-1.1 1.2-2.6l-2.2-7.3c-.8-2.6-1.9-3.6-3-4.2-.9-.5-.8-1.9.2-2.2l8.6-2.5c1-.3 1.8.7 1.4 1.6-.7 1.2-1.2 2.6-.4 5.3l8.5 28.4c.9 2.8 2 3.7 3.3 4.4.8.5.7 1.8-.3 2.1Zm35.1-10c-5.6 1.7-10.7-1.8-14.6-9 .8 8.2-1.7 13.9-7.3 15.6-7.6 2.2-14.2-4.7-18.2-18-3.9-13.1-2.1-22.5 5.4-24.8 5.6-1.7 10.8 1.7 14.7 9-.8-8.2 1.6-13.9 7.2-15.5 7.6-2.3 14.3 4.6 18.3 17.7s2.1 22.7-5.5 25" class="cls-1"/><path d="M90.8 117c3.4-1 2-8.3-.7-17.5s-6-15.8-9-14.9c-3.2 1-2.2 8.2.6 17.4s5.5 16 9.1 15ZM128 85.6c.8 2.7 1.6 3 2.9 2.7 2.4-.7 3-5.2 1.7-9.8s-4.4-8-6.8-7.3c-1.3.4-1.8 1.2-1 3.8zM67.3 141.6c-3.4 1-2 8.3.7 17.5s5.9 15.7 9 14.8c3.2-1 2.1-8.1-.6-17.3s-5.6-16-9.1-15" class="cls-1"/><path d="M92.5 122.5c5.6-1.7 8-7.3 7.2-15.5 3.9 7.2 9 10.6 14.7 9 7.5-2.3 9.3-11.7 5.4-24.9S109.2 71 101.6 73.2c-5.6 1.7-8 7.4-7.3 15.7-3.9-7.3-9-10.8-14.6-9.1-7.6 2.3-9.4 11.7-5.5 25 4 13.1 10.6 20 18.2 17.7M103 78.1c3-1 6.2 5.6 9 14.8s4 16.5.6 17.5c-3.6 1-6.3-5.7-9-15-2.8-9.2-3.9-16.3-.6-17.3Zm-22 6.6c3-1 6.2 5.6 9 14.8s4 16.4.7 17.5c-3.6 1-6.4-5.8-9.1-15-2.8-9.2-3.8-16.4-.6-17.3Z" class="cls-4"/><path d="M114.5 72c1.2.5 2.4 1.5 3.3 4.2l8.5 28.5c.8 2.6.3 4-.4 5.3-.4.9.4 2 1.4 1.6l8.6-2.5c1-.3 1.1-1.7.3-2.2-1.2-.6-2.3-1.6-3-4.2l-2.3-7.3c-.4-1.5-.4-2 1.2-2.6 6-2.2 10.2-7.8 7.6-16.4-2-6.7-7.8-11.8-15.8-9.4l-9.1 2.7c-1 .3-1 1.7-.3 2.2Zm11.3-.8c2.4-.7 5.4 2.6 6.8 7.3s.8 9-1.7 9.8c-1.3.4-2.1 0-2.9-2.7L124.8 75c-.8-2.6-.3-3.4 1-3.8" class="cls-3"/><path d="M147.4 92.3q1.5.1 2-1.6c1.2-10.5 2.3-21.3 2.3-27.8 0-2-.9-2.5-2.5-2.5h-3c-1.7 0-2.6.5-2.6 2.5 0 6.5 1 17.3 2.2 27.8 0 1.2.9 1.6 1.6 1.6M147.6 95.6c-2.5 0-3.7 2-3.7 5.1q0 5.1 3.6 5.3 3.6-.2 3.7-5.3c0-3.1-1.3-5.2-3.7-5.2Z" class="cls-2"/><path d="M87.6 129.5c-5.7 1.7-8 7.3-7.3 15.5-3.9-7.2-9-10.6-14.7-9-7.5 2.3-9.3 11.7-5.4 24.9s10.6 20.1 18.2 17.9c5.6-1.7 8-7.4 7.3-15.7 3.9 7.4 9 10.8 14.6 9.1 7.6-2.3 9.4-11.7 5.5-25-4-13.1-10.6-20-18.2-17.7m-10.7 44.4c-3 1-6.2-5.6-9-14.8s-4-16.5-.6-17.5c3.6-1 6.3 5.7 9 15 2.8 9.2 3.9 16.4.6 17.3m22-6.6c-3 1-6.2-5.6-9-14.8s-4-16.4-.7-17.5c3.6-1 6.4 5.8 9.1 15 2.8 9.2 3.8 16.4.6 17.3" class="cls-4"/><path d="M65.5 180c-1.2-.5-2.4-1.5-3.3-4.2l-8.5-28.5c-.8-2.6-.3-4 .4-5.3.4-.9-.4-2-1.4-1.6L44 143c-1 .2-1.1 1.6-.3 2.1 1.2.6 2.3 1.6 3 4.3l2.3 7.3c.4 1.4.4 1.9-1.2 2.5-6 2.2-10.2 7.8-7.6 16.4 2 6.7 7.8 11.8 15.8 9.4l9.1-2.7c1-.3 1-1.7.3-2.2Zm-11.3.8c-2.4.7-5.4-2.6-6.8-7.3s-.7-9 1.7-9.8c1.3-.4 2.1 0 2.9 2.7l3.2 10.6c.8 2.6.3 3.4-1 3.8" class="cls-3"/><path d="M32.6 159.7q-1.5-.1-2 1.6a285 285 0 0 0-2.3 27.8c0 2 .9 2.5 2.5 2.5h3c1.7 0 2.6-.5 2.6-2.5 0-6.5-1-17.3-2.2-27.8 0-1.2-.9-1.6-1.6-1.6M32.5 156.5c2.4 0 3.6-2 3.7-5.2q0-5.1-3.7-5.3-3.6.2-3.6 5.3c0 3.1 1.2 5.2 3.6 5.2Z" class="cls-2"/></svg>