<?xml version="1.0" encoding="UTF-8"?>
<svg id="Layer_2" data-name="Layer 2" xmlns="http://www.w3.org/2000/svg" viewBox="0 0 166.15 131.24">
  <defs>
    <style>
      .cls-1 {
        fill: none;
      }

      .cls-2 {
        fill: #d72229;
      }

      .cls-3 {
        fill: #0072b2;
      }

      .cls-4 {
        fill: #e79024;
      }

      .cls-5 {
        fill: #f8f2e9;
      }
    </style>
  </defs>
  <g id="Your_Design" data-name="Your Design">
    <g>
      <path class="cls-1" d="M83.86,56.58c3.41-1.02,2.03-8.24-.72-17.45-2.76-9.21-5.89-15.77-8.94-14.86-3.23.97-2.19,8.15.57,17.36,2.76,9.21,5.51,16.02,9.1,14.94Z"/>
      <path class="cls-1" d="M60.33,81.23c-3.41,1.02-2.03,8.24.72,17.45,2.76,9.21,5.89,15.77,8.94,14.86,3.23-.97,2.19-8.15-.57-17.36-2.76-9.21-5.51-16.02-9.1-14.94Z"/>
      <path class="cls-1" d="M45.06,106c-.79-2.63-1.57-3.05-2.88-2.66-2.45.73-3.09,5.16-1.71,9.77,1.4,4.67,4.36,8.02,6.81,7.28,1.32-.39,1.74-1.17.95-3.8l-3.17-10.59Z"/>
      <path class="cls-1" d="M82.29,74.66c-3.41,1.02-2.03,8.24.72,17.45,2.76,9.21,5.89,15.77,8.94,14.86,3.23-.97,2.19-8.15-.57-17.36-2.76-9.21-5.51-16.02-9.1-14.94Z"/>
      <path class="cls-1" d="M121.08,25.24c.79,2.63,1.56,3.05,2.88,2.66,2.45-.73,3.09-5.16,1.71-9.77-1.4-4.67-4.36-8.02-6.81-7.28-1.32.39-1.74,1.17-.95,3.8l3.17,10.59Z"/>
      <path class="cls-1" d="M105.81,50.01c3.41-1.02,2.03-8.24-.72-17.45-2.76-9.21-5.89-15.77-8.94-14.86-3.23.97-2.19,8.15.57,17.36,2.76,9.21,5.51,16.02,9.1,14.94Z"/>
      <path class="cls-5" d="M22.94,80.41l2.21-.66c1.56-.47,2.01-1.12,1.78-2.75l-3.02-20.35c-.13-.87-.14-1.33.1-1.4.24-.07.48.31.85,1.11l8.83,18.61c.71,1.48,1.45,1.78,2.94,1.34l2.27-.68c1.56-.47,1.95-1.11,1.72-2.73l-3.78-28.33c-1.13-7.51-.85-10.15-.19-11.49,1.09.62,2.12,1.64,2.86,4.1l8.52,28.48c.79,2.63.31,4.08-.38,5.26-.38.9.45,1.95,1.41,1.66l8.62-2.58c.96-.29,1.08-1.63.27-2.17-1.23-.61-2.3-1.59-3.09-4.22l-3.08-10.29c-.55-1.85-.3-2.32,1.61-2.89l3.05-.91c1.91-.57,2.5-.36,3.06,1.5l3.08,10.29c.79,2.63.31,4.08-.38,5.26-.38.9.45,1.95,1.41,1.66l8.62-2.58c.96-.29,1.08-1.63.27-2.17-1.23-.61-2.3-1.59-3.09-4.22l-8.52-28.48c-.82-2.75-.46-4.16.22-5.35.38-.9-.45-1.95-1.41-1.66l-8.62,2.58c-.96.29-1.08,1.63-.26,2.16,1.23.61,2.42,1.56,3.24,4.31l2.47,8.26c.57,1.91.24,2.54-1.68,3.11l-3.05.91c-1.91.57-2.42.2-2.99-1.71l-2.47-8.26c-.82-2.75-.46-4.16.23-5.35.38-.9-.45-1.95-1.41-1.66l-8.62,2.58c-.16.05-.28.13-.39.22-.14-.02-.28-.02-.44.03l-7.12,2.13c-.9.27-.9,1.57.03,2.08,1.29.59,1.94,1.7,3.56,10.8l2.69,15.3c.15.93.1,1.41-.08,1.46-.24.07-.37-.15-.87-1.17-2.8-5.88-8.45-18.01-9.4-19.87-1.22-2.76-1.5-3.92-.79-5.04.54-1.01-.21-2.02-1.11-1.75l-7.36,2.2c-.96.29-.96,1.59-.03,2.09,1.22.61,1.79,1.62,2.29,4.6l3.8,21.42c.15.93.06,1.29-.12,1.34-.24.07-.51-.17-.9-1.04l-9.19-19.81c-1.24-2.63-1.3-3.91-.61-5.1.5-.93-.21-2.02-1.17-1.73l-8.62,2.58c-.96.29-.96,1.59-.03,2.09,1.23.61,2.31,1.2,3.78,4.15l15.46,31.42c.7,1.48,1.45,1.78,3,1.32Z"/>
      <path class="cls-4" d="M85.52,62.14c5.62-1.68,8.02-7.33,7.25-15.55,3.89,7.28,9.04,10.67,14.71,8.98,7.54-2.26,9.29-11.65,5.35-24.81-3.96-13.22-10.6-20.16-18.14-17.91-5.66,1.69-8.1,7.39-7.34,15.65-3.88-7.33-9-10.77-14.62-9.08-7.6,2.27-9.39,11.74-5.44,24.96,3.94,13.16,10.62,20.03,18.22,17.76ZM96.15,17.7c3.05-.91,6.19,5.64,8.94,14.86,2.76,9.21,4.13,16.43.72,17.45-3.59,1.07-6.34-5.73-9.1-14.94-2.76-9.21-3.8-16.4-.57-17.36ZM74.19,24.27c3.05-.91,6.19,5.64,8.94,14.86,2.76,9.21,4.13,16.43.72,17.45-3.59,1.07-6.34-5.73-9.1-14.94-2.76-9.21-3.8-16.4-.57-17.36Z"/>
      <path class="cls-3" d="M107.6,11.54c1.23.61,2.42,1.56,3.24,4.31l8.52,28.48c.79,2.63.31,4.08-.38,5.26-.38.9.45,1.95,1.41,1.66l8.62-2.58c.96-.29,1.08-1.63.27-2.17-1.23-.61-2.3-1.59-3.09-4.23l-2.18-7.3c-.43-1.44-.45-1.95,1.19-2.57,6.05-2.2,10.18-7.8,7.6-16.42-1.99-6.64-7.82-11.74-15.83-9.34l-9.09,2.72c-.96.29-1.08,1.63-.26,2.16ZM118.86,10.84c2.45-.73,5.41,2.62,6.81,7.28,1.38,4.61.75,9.03-1.71,9.77-1.32.39-2.09-.03-2.88-2.66l-3.17-10.59c-.79-2.63-.37-3.41.95-3.8Z"/>
      <path class="cls-2" d="M136.92,40.35c0,3.31,1.24,5.31,3.67,5.32,2.37,0,3.63-1.99,3.63-5.3,0-3.18-1.24-5.19-3.61-5.19-2.44,0-3.69,1.99-3.7,5.17Z"/>
      <path class="cls-2" d="M140.5,31.92c.87,0,1.75-.43,1.88-1.56,1.27-10.49,2.37-21.36,2.39-27.86,0-2-.87-2.5-2.49-2.51h-3.06c-1.62-.01-2.5.49-2.5,2.49-.02,6.49.88,17.37,2.11,27.87.12,1.12.93,1.56,1.68,1.56Z"/>
      <path class="cls-5" d="M165.45,87.72c-1.23-.61-2.31-1.2-3.78-4.15l-15.46-31.42c-.7-1.48-1.45-1.78-3-1.32l-2.21.66c-1.56.47-2.01,1.12-1.78,2.75l3.02,20.35c.13.87.14,1.33-.1,1.4-.24.07-.48-.31-.86-1.11l-8.83-18.61c-.7-1.48-1.45-1.78-2.94-1.34l-2.27.68c-1.56.47-1.95,1.11-1.72,2.73l3.78,28.33c1.13,7.51.85,10.15.19,11.49-1.09-.62-2.12-1.64-2.86-4.1l-8.52-28.48c-.79-2.63-.31-4.08.38-5.26.38-.9-.45-1.95-1.41-1.66l-8.62,2.58c-.96.29-1.08,1.63-.27,2.17,1.23.61,2.3,1.59,3.09,4.22l3.08,10.29c.55,1.85.3,2.32-1.61,2.89l-3.05.91c-1.91.57-2.5.36-3.06-1.5l-3.08-10.29c-.79-2.63-.31-4.08.38-5.26.38-.9-.45-1.95-1.41-1.66l-8.62,2.58c-.96.29-1.08,1.63-.27,2.17,1.23.61,2.3,1.59,3.09,4.22l8.52,28.48c.82,2.75.46,4.16-.22,5.35-.38.9.45,1.95,1.41,1.66l8.62-2.58c.96-.29,1.08-1.63.26-2.16-1.23-.61-2.42-1.56-3.24-4.31l-2.47-8.26c-.57-1.91-.24-2.54,1.68-3.11l3.05-.91c1.91-.57,2.42-.2,2.99,1.71l2.47,8.26c.82,2.75.46,4.16-.23,5.35-.38.9.45,1.95,1.41,1.66l8.62-2.58c.16-.05.28-.13.39-.22.14.02.28.02.44-.03l7.12-2.13c.9-.27.9-1.57-.03-2.08-1.29-.59-1.94-1.7-3.56-10.8l-2.69-15.3c-.15-.93-.1-1.41.08-1.46.24-.07.37.15.87,1.17,2.8,5.88,8.45,18.01,9.4,19.87,1.22,2.76,1.5,3.92.79,5.04-.54,1.01.21,2.02,1.11,1.75l7.36-2.2c.96-.29.96-1.59.03-2.09-1.22-.61-1.79-1.62-2.29-4.6l-3.8-21.42c-.15-.93-.06-1.29.12-1.34.24-.07.51.17.9,1.04l9.18,19.81c1.24,2.63,1.3,3.91.61,5.1-.5.93.21,2.02,1.17,1.73l8.62-2.58c.96-.29.96-1.59.03-2.09Z"/>
      <path class="cls-4" d="M80.62,69.1c-5.62,1.68-8.02,7.33-7.25,15.55-3.89-7.28-9.04-10.67-14.71-8.98-7.54,2.26-9.29,11.65-5.35,24.81,3.96,13.22,10.6,20.16,18.14,17.91,5.66-1.69,8.1-7.39,7.34-15.65,3.88,7.33,9,10.77,14.62,9.08,7.6-2.27,9.39-11.74,5.44-24.96-3.94-13.16-10.62-20.03-18.22-17.76ZM70,113.54c-3.05.91-6.19-5.64-8.94-14.86-2.76-9.21-4.13-16.43-.72-17.45,3.59-1.07,6.34,5.73,9.1,14.94,2.76,9.21,3.8,16.4.57,17.36ZM91.95,106.97c-3.05.91-6.19-5.65-8.94-14.86-2.76-9.21-4.13-16.43-.72-17.45,3.59-1.07,6.34,5.73,9.1,14.94,2.76,9.21,3.8,16.4.57,17.36Z"/>
      <path class="cls-3" d="M58.55,119.7c-1.23-.61-2.42-1.56-3.24-4.31l-8.52-28.48c-.79-2.63-.31-4.08.38-5.26.38-.9-.45-1.95-1.41-1.66l-8.62,2.58c-.96.29-1.08,1.63-.27,2.17,1.23.61,2.3,1.59,3.09,4.23l2.18,7.3c.43,1.44.45,1.95-1.19,2.57-6.05,2.2-10.18,7.8-7.6,16.42,1.99,6.64,7.82,11.74,15.83,9.34l9.09-2.72c.96-.29,1.08-1.63.26-2.16ZM47.29,120.4c-2.45.73-5.41-2.62-6.81-7.28-1.38-4.61-.75-9.03,1.71-9.77,1.32-.39,2.09.03,2.88,2.66l3.17,10.59c.79,2.63.37,3.41-.95,3.8Z"/>
      <path class="cls-2" d="M21.92,90.88c0,3.18,1.24,5.19,3.61,5.19,2.44,0,3.69-1.99,3.7-5.17,0-3.31-1.24-5.31-3.67-5.32-2.37,0-3.63,1.99-3.63,5.3Z"/>
      <path class="cls-2" d="M25.64,99.32c-.87,0-1.75.43-1.88,1.56-1.27,10.49-2.37,21.36-2.39,27.86,0,2,.87,2.5,2.49,2.5h3.06c1.62.01,2.5-.49,2.5-2.49.02-6.49-.88-17.37-2.11-27.87-.12-1.12-.93-1.56-1.68-1.56Z"/>
    </g>
  </g>
</svg>