<svg width="167" height="132" viewBox="0 0 167 132" fill="none" xmlns="http://www.w3.org/2000/svg">
<g clip-path="url(#clip0_61_2268)">
<path d="M22.94 80.41L25.15 79.75C26.71 79.28 27.16 78.63 26.93 77L23.91 56.65C23.78 55.78 23.77 55.32 24.01 55.25C24.25 55.18 24.49 55.56 24.86 56.36L33.69 74.97C34.4 76.45 35.14 76.75 36.63 76.31L38.9 75.63C40.46 75.16 40.85 74.52 40.62 72.9L36.84 44.57C35.71 37.06 35.99 34.42 36.65 33.08C37.74 33.7 38.77 34.72 39.51 37.18L48.03 65.66C48.82 68.29 48.34 69.74 47.65 70.92C47.27 71.82 48.1 72.87 49.06 72.58L57.68 70C58.64 69.71 58.76 68.37 57.95 67.83C56.72 67.22 55.65 66.24 54.86 63.61L51.78 53.32C51.23 51.47 51.48 51 53.39 50.43L56.44 49.52C58.35 48.95 58.94 49.16 59.5 51.02L62.58 61.31C63.37 63.94 62.89 65.39 62.2 66.57C61.82 67.47 62.65 68.52 63.61 68.23L72.23 65.65C73.19 65.36 73.31 64.02 72.5 63.48C71.27 62.87 70.2 61.89 69.41 59.26L60.89 30.78C60.07 28.03 60.43 26.62 61.11 25.43C61.49 24.53 60.66 23.48 59.7 23.77L51.08 26.35C50.12 26.64 50 27.98 50.82 28.51C52.05 29.12 53.24 30.07 54.06 32.82L56.53 41.08C57.1 42.99 56.77 43.62 54.85 44.19L51.8 45.1C49.89 45.67 49.38 45.3 48.81 43.39L46.34 35.13C45.52 32.38 45.88 30.97 46.57 29.78C46.95 28.88 46.12 27.83 45.16 28.12L36.54 30.7C36.38 30.75 36.26 30.83 36.15 30.92C36.01 30.9 35.87 30.9 35.71 30.95L28.59 33.08C27.69 33.35 27.69 34.65 28.62 35.16C29.91 35.75 30.56 36.86 32.18 45.96L34.87 61.26C35.02 62.19 34.97 62.67 34.79 62.72C34.55 62.79 34.42 62.57 33.92 61.55C31.12 55.67 25.47 43.54 24.52 41.68C23.3 38.92 23.02 37.76 23.73 36.64C24.27 35.63 23.52 34.62 22.62 34.89L15.26 37.09C14.3 37.38 14.3 38.68 15.23 39.18C16.45 39.79 17.02 40.8 17.52 43.78L21.32 65.2C21.47 66.13 21.38 66.49 21.2 66.54C20.96 66.61 20.69 66.37 20.3 65.5L11.11 45.69C9.87 43.06 9.81 41.78 10.5 40.59C11 39.66 10.29 38.57 9.33 38.86L0.710001 41.44C-0.249999 41.73 -0.249999 43.03 0.680001 43.53C1.91 44.14 2.99 44.73 4.46 47.68L19.92 79.1C20.62 80.58 21.37 80.88 22.92 80.42L22.94 80.41Z" fill="#231F20"/>
<path d="M85.52 62.14C91.14 60.46 93.54 54.81 92.77 46.59C96.66 53.87 101.81 57.26 107.48 55.57C115.02 53.31 116.77 43.92 112.83 30.76C108.87 17.54 102.23 10.6 94.69 12.85C89.03 14.54 86.59 20.24 87.35 28.5C83.47 21.17 78.35 17.73 72.73 19.42C65.13 21.69 63.34 31.16 67.29 44.38C71.23 57.54 77.91 64.41 85.51 62.14H85.52ZM96.15 17.7C99.2 16.79 102.34 23.34 105.09 32.56C107.85 41.77 109.22 48.99 105.81 50.01C102.22 51.08 99.47 44.28 96.71 35.07C93.95 25.86 92.91 18.67 96.14 17.71L96.15 17.7ZM74.19 24.27C77.24 23.36 80.38 29.91 83.13 39.13C85.89 48.34 87.26 55.56 83.85 56.58C80.26 57.65 77.51 50.85 74.75 41.64C71.99 32.43 70.95 25.24 74.18 24.28L74.19 24.27Z" fill="#E79024"/>
<path d="M107.6 11.54C108.83 12.15 110.02 13.1 110.84 15.85L119.36 44.33C120.15 46.96 119.67 48.41 118.98 49.59C118.6 50.49 119.43 51.54 120.39 51.25L129.01 48.67C129.97 48.38 130.09 47.04 129.28 46.5C128.05 45.89 126.98 44.91 126.19 42.27L124.01 34.97C123.58 33.53 123.56 33.02 125.2 32.4C131.25 30.2 135.38 24.6 132.8 15.98C130.81 9.34001 124.98 4.24001 116.97 6.64002L107.88 9.36001C106.92 9.65001 106.8 10.99 107.62 11.52L107.6 11.54ZM118.86 10.84C121.31 10.11 124.27 13.46 125.67 18.12C127.05 22.73 126.42 27.15 123.96 27.89C122.64 28.28 121.87 27.86 121.08 25.23L117.91 14.64C117.12 12.01 117.54 11.23 118.86 10.84Z" fill="#0072B2"/>
<path d="M136.92 40.35C136.92 43.66 138.16 45.66 140.59 45.67C142.96 45.67 144.22 43.68 144.22 40.37C144.22 37.19 142.98 35.18 140.61 35.18C138.17 35.18 136.92 37.17 136.91 40.35H136.92Z" fill="#D72229"/>
<path d="M140.5 31.92C141.37 31.92 142.25 31.49 142.38 30.36C143.65 19.87 144.75 9.00001 144.77 2.50001C144.77 0.500014 143.9 1.43028e-05 142.28 -0.0099857H139.22C137.6 -0.0199857 136.72 0.480014 136.72 2.48001C136.7 8.97001 137.6 19.85 138.83 30.35C138.95 31.47 139.76 31.91 140.51 31.91L140.5 31.92Z" fill="#D72229"/>
<path d="M165.45 87.72C164.22 87.11 163.14 86.52 161.67 83.57L146.21 52.15C145.51 50.67 144.76 50.37 143.21 50.83L141 51.49C139.44 51.96 138.99 52.61 139.22 54.24L142.24 74.59C142.37 75.46 142.38 75.92 142.14 75.99C141.9 76.06 141.66 75.68 141.28 74.88L132.45 56.27C131.75 54.79 131 54.49 129.51 54.93L127.24 55.61C125.68 56.08 125.29 56.72 125.52 58.34L129.3 86.67C130.43 94.18 130.15 96.82 129.49 98.16C128.4 97.54 127.37 96.52 126.63 94.06L118.11 65.58C117.32 62.95 117.8 61.5 118.49 60.32C118.87 59.42 118.04 58.37 117.08 58.66L108.46 61.24C107.5 61.53 107.38 62.87 108.19 63.41C109.42 64.02 110.49 65 111.28 67.63L114.36 77.92C114.91 79.77 114.66 80.24 112.75 80.81L109.7 81.72C107.79 82.29 107.2 82.08 106.64 80.22L103.56 69.93C102.77 67.3 103.25 65.85 103.94 64.67C104.32 63.77 103.49 62.72 102.53 63.01L93.91 65.59C92.95 65.88 92.83 67.22 93.64 67.76C94.87 68.37 95.94 69.35 96.73 71.98L105.25 100.46C106.07 103.21 105.71 104.62 105.03 105.81C104.65 106.71 105.48 107.76 106.44 107.47L115.06 104.89C116.02 104.6 116.14 103.26 115.32 102.73C114.09 102.12 112.9 101.17 112.08 98.42L109.61 90.16C109.04 88.25 109.37 87.62 111.29 87.05L114.34 86.14C116.25 85.57 116.76 85.94 117.33 87.85L119.8 96.11C120.62 98.86 120.26 100.27 119.57 101.46C119.19 102.36 120.02 103.41 120.98 103.12L129.6 100.54C129.76 100.49 129.88 100.41 129.99 100.32C130.13 100.34 130.27 100.34 130.43 100.29L137.55 98.16C138.45 97.89 138.45 96.59 137.52 96.08C136.23 95.49 135.58 94.38 133.96 85.28L131.27 69.98C131.12 69.05 131.17 68.57 131.35 68.52C131.59 68.45 131.72 68.67 132.22 69.69C135.02 75.57 140.67 87.7 141.62 89.56C142.84 92.32 143.12 93.48 142.41 94.6C141.87 95.61 142.62 96.62 143.52 96.35L150.88 94.15C151.84 93.86 151.84 92.56 150.91 92.06C149.69 91.45 149.12 90.44 148.62 87.46L144.82 66.04C144.67 65.11 144.76 64.75 144.94 64.7C145.18 64.63 145.45 64.87 145.84 65.74L155.02 85.55C156.26 88.18 156.32 89.46 155.63 90.65C155.13 91.58 155.84 92.67 156.8 92.38L165.42 89.8C166.38 89.51 166.38 88.21 165.45 87.71V87.72Z" fill="#231F20"/>
<path d="M80.62 69.1C75 70.78 72.6 76.43 73.37 84.65C69.48 77.37 64.33 73.98 58.66 75.67C51.12 77.93 49.37 87.32 53.31 100.48C57.27 113.7 63.91 120.64 71.45 118.39C77.11 116.7 79.55 111 78.79 102.74C82.67 110.07 87.79 113.51 93.41 111.82C101.01 109.55 102.8 100.08 98.85 86.86C94.91 73.7 88.23 66.83 80.63 69.1H80.62ZM70 113.54C66.95 114.45 63.81 107.9 61.06 98.68C58.3 89.47 56.93 82.25 60.34 81.23C63.93 80.16 66.68 86.96 69.44 96.17C72.2 105.38 73.24 112.57 70.01 113.53L70 113.54ZM91.95 106.97C88.9 107.88 85.76 101.32 83.01 92.11C80.25 82.9 78.88 75.68 82.29 74.66C85.88 73.59 88.63 80.39 91.39 89.6C94.15 98.81 95.19 106 91.96 106.96L91.95 106.97Z" fill="#E79024"/>
<path d="M58.55 119.7C57.32 119.09 56.13 118.14 55.31 115.39L46.79 86.91C46 84.28 46.48 82.83 47.17 81.65C47.55 80.75 46.72 79.7 45.76 79.99L37.14 82.57C36.18 82.86 36.06 84.2 36.87 84.74C38.1 85.35 39.17 86.33 39.96 88.97L42.14 96.27C42.57 97.71 42.59 98.22 40.95 98.84C34.9 101.04 30.77 106.64 33.35 115.26C35.34 121.9 41.17 127 49.18 124.6L58.27 121.88C59.23 121.59 59.35 120.25 58.53 119.72L58.55 119.7ZM47.29 120.4C44.84 121.13 41.88 117.78 40.48 113.12C39.1 108.51 39.73 104.09 42.19 103.35C43.51 102.96 44.28 103.38 45.07 106.01L48.24 116.6C49.03 119.23 48.61 120.01 47.29 120.4Z" fill="#0072B2"/>
<path d="M21.92 90.88C21.92 94.06 23.16 96.07 25.53 96.07C27.97 96.07 29.22 94.08 29.23 90.9C29.23 87.59 27.99 85.59 25.56 85.58C23.19 85.58 21.93 87.57 21.93 90.88H21.92Z" fill="#D72229"/>
<path d="M25.64 99.32C24.77 99.32 23.89 99.75 23.76 100.88C22.49 111.37 21.39 122.24 21.37 128.74C21.37 130.74 22.24 131.24 23.86 131.24H26.92C28.54 131.25 29.42 130.75 29.42 128.75C29.44 122.26 28.54 111.38 27.31 100.88C27.19 99.76 26.38 99.32 25.63 99.32H25.64Z" fill="#D72229"/>
</g>
<defs>
<clipPath id="clip0_61_2268">
<rect width="166.15" height="131.24" fill="white"/>
</clipPath>
</defs>
</svg>
