<?xml version="1.0" encoding="UTF-8"?>
<svg id="Customer_Art" data-name="Customer Art" xmlns="http://www.w3.org/2000/svg" viewBox="0 0 180 252">
  <defs>
    <style>
      .cls-1 {
        fill: #231f20;
      }

      .cls-2 {
        fill: #d72229;
      }

      .cls-3 {
        fill: #f8f2e9;
      }
    </style>
  </defs>
  <rect class="cls-3" x="-9" y="-9" width="198" height="270"/>
  <rect class="cls-2" x="13.5" y="13.5" width="153" height="225" rx="4.5" ry="4.5"/>
  <circle class="cls-1" cx="90" cy="126" r="36"/>
  <path class="cls-1" d="M50.2,75.55v-41.26c0-.41-.12-.69-.32-.88-.02-.03-.05-.05-.07-.07-.02-.03-.05-.05-.07-.07-.02-.03-.05-.05-.07-.07-.02-.03-.05-.05-.07-.07-.02-.03-.05-.05-.07-.07-.02-.03-.05-.05-.07-.07-.02-.03-.05-.05-.07-.07-.02-.03-.05-.05-.07-.07-.02-.03-.05-.05-.07-.07-.02-.03-.05-.05-.07-.07-.02-.03-.05-.05-.07-.07-.02-.03-.05-.05-.07-.07-.02-.03-.05-.05-.07-.07-.02-.03-.05-.05-.07-.07-.02-.03-.05-.05-.07-.07-.02-.03-.05-.05-.07-.07-.02-.03-.05-.05-.07-.07-.02-.03-.05-.05-.07-.07-.02-.03-.05-.05-.07-.07-.02-.03-.05-.05-.07-.07-.02-.03-.05-.05-.07-.07-.02-.03-.05-.05-.07-.07-.02-.03-.05-.05-.07-.07-.02-.03-.05-.05-.07-.07-.02-.03-.05-.05-.07-.07-.02-.03-.05-.05-.07-.07-.02-.03-.05-.05-.07-.07-.02-.03-.05-.05-.07-.07-.02-.03-.05-.05-.07-.07-.02-.03-.05-.05-.07-.07-.02-.03-.05-.05-.07-.07-.02-.03-.05-.05-.07-.07-.02-.03-.05-.05-.07-.07-.02-.03-.05-.05-.07-.07-.02-.03-.05-.05-.07-.07-.02-.03-.05-.05-.07-.07-.02-.03-.05-.05-.07-.07-.02-.03-.05-.05-.07-.07-.02-.03-.05-.05-.07-.07-.02-.03-.05-.05-.07-.07-.02-.03-.05-.05-.07-.07-.02-.03-.05-.05-.07-.07-.02-.03-.05-.05-.07-.07-.02-.03-.05-.05-.07-.07-.02-.03-.05-.05-.07-.07-.02-.03-.05-.05-.07-.07-.02-.03-.05-.05-.07-.07-.02-.03-.05-.05-.07-.07-.02-.03-.05-.05-.07-.07-.02-.03-.05-.05-.07-.07-.02-.03-.05-.05-.07-.07-.02-.03-.05-.05-.07-.07-.02-.03-.05-.05-.07-.07-.02-.03-.05-.05-.07-.07-.02-.03-.05-.05-.07-.07-.02-.03-.05-.05-.07-.07-.02-.03-.05-.05-.07-.07-.02-.03-.05-.05-.07-.07-.02-.03-.05-.05-.07-.07-.02-.03-.05-.05-.07-.07-.02-.03-.05-.05-.07-.07-.02-.03-.05-.05-.07-.07-.02-.03-.05-.05-.07-.07-.02-.03-.05-.05-.07-.07-.02-.03-.05-.05-.07-.07-.02-.03-.05-.05-.07-.07-.02-.03-.05-.05-.07-.07-.02-.03-.05-.05-.07-.07-.02-.03-.05-.05-.07-.07-.02-.03-.05-.05-.07-.07-.02-.03-.05-.05-.07-.07-.02-.03-.05-.05-.07-.07-.02-.03-.05-.05-.07-.07-.02-.03-.05-.05-.07-.07-.02-.03-.05-.05-.07-.07-.02-.03-.05-.05-.07-.07-.02-.03-.05-.05-.07-.07-.02-.03-.05-.05-.07-.07-.02-.03-.05-.05-.07-.07-.02-.03-.05-.05-.07-.07-.02-.03-.05-.05-.07-.07-.02-.03-.05-.05-.07-.07-.02-.03-.05-.05-.07-.07-.02-.03-.05-.05-.07-.07-.02-.03-.05-.05-.07-.07-.02-.03-.05-.05-.07-.07-.02-.03-.05-.05-.07-.07-.02-.03-.05-.05-.07-.07-.02-.03-.05-.05-.07-.07-.02-.03-.05-.05-.07-.07-.02-.03-.05-.05-.07-.07-.02-.03-.05-.05-.07-.07-.02-.03-.05-.05-.07-.07-.02-.03-.05-.05-.07-.07-.02-.03-.05-.05-.07-.07-.02-.03-.05-.05-.07-.07-.02-.03-.05-.05-.07-.07-.02-.03-.05-.05-.07-.07-.02-.03-.05-.05-.07-.07.16.18.25.45.25.8v41.26c0,3.17.86,4.61,2.02,5.69.86.86.29,2.3-.86,2.3h-10.37c-.45,0-.81-.18-1.05-.44.02.03.05.05.07.07.02.03.05.05.07.07.02.03.05.05.07.07.02.03.05.05.07.07.02.03.05.05.07.07.02.03.05.05.07.07.02.03.05.05.07.07.02.03.05.05.07.07.02.03.05.05.07.07.02.03.05.05.07.07.02.03.05.05.07.07.02.03.05.05.07.07.02.03.05.05.07.07.02.03.05.05.07.07.02.03.05.05.07.07.02.03.05.05.07.07.02.03.05.05.07.07.02.03.05.05.07.07.02.03.05.05.07.07.02.03.05.05.07.07.02.03.05.05.07.07.02.03.05.05.07.07.02.03.05.05.07.07.02.03.05.05.07.07.02.03.05.05.07.07.02.03.05.05.07.07.02.03.05.05.07.07.02.03.05.05.07.07.02.03.05.05.07.07.02.03.05.05.07.07.02.03.05.05.07.07.02.03.05.05.07.07.02.03.05.05.07.07.02.03.05.05.07.07.02.03.05.05.07.07.02.03.05.05.07.07.02.03.05.05.07.07.02.03.05.05.07.07.02.03.05.05.07.07.02.03.05.05.07.07.02.03.05.05.07.07.02.03.05.05.07.07.02.03.05.05.07.07.02.03.05.05.07.07.02.03.05.05.07.07.02.03.05.05.07.07.02.03.05.05.07.07.02.03.05.05.07.07.02.03.05.05.07.07.02.03.05.05.07.07.02.03.05.05.07.07.02.03.05.05.07.07.02.03.05.05.07.07.02.03.05.05.07.07.02.03.05.05.07.07.02.03.05.05.07.07.02.03.05.05.07.07.02.03.05.05.07.07.02.03.05.05.07.07.02.03.05.05.07.07.02.03.05.05.07.07.02.03.05.05.07.07.02.03.05.05.07.07.02.03.05.05.07.07.02.03.05.05.07.07.02.03.05.05.07.07.02.03.05.05.07.07.02.03.05.05.07.07.02.03.05.05.07.07.02.03.05.05.07.07.02.03.05.05.07.07.02.03.05.05.07.07.02.03.05.05.07.07.02.03.05.05.07.07.02.03.05.05.07.07.02.03.05.05.07.07.02.03.05.05.07.07.02.03.05.05.07.07.02.03.05.05.07.07.02.03.05.05.07.07.02.03.05.05.07.07.02.03.05.05.07.07.02.03.05.05.07.07.02.03.05.05.07.07.02.03.05.05.07.07.02.03.05.05.07.07.02.03.05.05.07.07.02.03.05.05.07.07.02.03.05.05.07.07.02.03.05.05.07.07.02.03.05.05.07.07.02.03.05.05.07.07.02.03.05.05.07.07.02.03.05.05.07.07.02.03.05.05.07.07.02.03.05.05.07.07.02.03.05.05.07.07.02.03.05.05.07.07.02.03.05.05.07.07.24.31.63.52,1.13.52h10.37c1.15,0,1.73-1.44.86-2.3-1.15-1.08-2.02-2.52-2.02-5.69Z"/>
  <path class="cls-3" d="M33.78,76.34h10.37c1.15,0,1.73-1.44.86-2.3-1.15-1.08-2.02-2.52-2.02-5.69V27.09c0-.36-.09-.62-.25-.8-.28-.33-.78-.39-1.33-.2l-8.35,3.38c-1.01.38-1.13,1.48-.37,2.08.11.08.23.16.37.22.78.32,1.21.79,1.45,1.6.24.83.28,2.02.28,3.8v31.18c0,3.17-.86,4.61-2.02,5.69-.56.56-.51,1.36-.05,1.86.25.26.6.44,1.05.44Z"/>
  <path class="cls-1" d="M137,224.91v-41.26c0-3.17-.86-4.61-2.02-5.69-.86-.86-.29-2.3.86-2.3h10.37c.45,0,.81.18,1.05.44-.02-.03-.05-.05-.07-.07-.02-.03-.05-.05-.07-.07-.02-.03-.05-.05-.07-.07-.02-.03-.05-.05-.07-.07-.02-.03-.05-.05-.07-.07-.02-.03-.05-.05-.07-.07-.02-.03-.05-.05-.07-.07-.02-.03-.05-.05-.07-.07-.02-.03-.05-.05-.07-.07-.02-.03-.05-.05-.07-.07-.02-.03-.05-.05-.07-.07-.02-.03-.05-.05-.07-.07-.02-.03-.05-.05-.07-.07-.02-.03-.05-.05-.07-.07-.02-.03-.05-.05-.07-.07-.02-.03-.05-.05-.07-.07-.02-.03-.05-.05-.07-.07-.02-.03-.05-.05-.07-.07-.02-.03-.05-.05-.07-.07-.02-.03-.05-.05-.07-.07-.02-.03-.05-.05-.07-.07-.02-.03-.05-.05-.07-.07-.02-.03-.05-.05-.07-.07-.02-.03-.05-.05-.07-.07-.02-.03-.05-.05-.07-.07-.02-.03-.05-.05-.07-.07-.02-.03-.05-.05-.07-.07-.02-.03-.05-.05-.07-.07-.02-.03-.05-.05-.07-.07-.02-.03-.05-.05-.07-.07-.02-.03-.05-.05-.07-.07-.02-.03-.05-.05-.07-.07-.02-.03-.05-.05-.07-.07-.02-.03-.05-.05-.07-.07-.02-.03-.05-.05-.07-.07-.02-.03-.05-.05-.07-.07-.02-.03-.05-.05-.07-.07-.02-.03-.05-.05-.07-.07-.02-.03-.05-.05-.07-.07-.02-.03-.05-.05-.07-.07-.02-.03-.05-.05-.07-.07-.02-.03-.05-.05-.07-.07-.02-.03-.05-.05-.07-.07-.02-.03-.05-.05-.07-.07-.02-.03-.05-.05-.07-.07-.02-.03-.05-.05-.07-.07-.02-.03-.05-.05-.07-.07-.02-.03-.05-.05-.07-.07-.02-.03-.05-.05-.07-.07-.02-.03-.05-.05-.07-.07-.02-.03-.05-.05-.07-.07-.02-.03-.05-.05-.07-.07-.02-.03-.05-.05-.07-.07-.02-.03-.05-.05-.07-.07-.02-.03-.05-.05-.07-.07-.02-.03-.05-.05-.07-.07-.02-.03-.05-.05-.07-.07-.02-.03-.05-.05-.07-.07-.02-.03-.05-.05-.07-.07-.02-.03-.05-.05-.07-.07-.02-.03-.05-.05-.07-.07-.02-.03-.05-.05-.07-.07-.02-.03-.05-.05-.07-.07-.02-.03-.05-.05-.07-.07-.02-.03-.05-.05-.07-.07-.02-.03-.05-.05-.07-.07-.02-.03-.05-.05-.07-.07-.02-.03-.05-.05-.07-.07-.02-.03-.05-.05-.07-.07-.02-.03-.05-.05-.07-.07-.02-.03-.05-.05-.07-.07-.02-.03-.05-.05-.07-.07-.02-.03-.05-.05-.07-.07-.02-.03-.05-.05-.07-.07-.02-.03-.05-.05-.07-.07-.02-.03-.05-.05-.07-.07-.02-.03-.05-.05-.07-.07-.02-.03-.05-.05-.07-.07-.02-.03-.05-.05-.07-.07-.02-.03-.05-.05-.07-.07-.02-.03-.05-.05-.07-.07-.02-.03-.05-.05-.07-.07-.02-.03-.05-.05-.07-.07-.02-.03-.05-.05-.07-.07-.02-.03-.05-.05-.07-.07-.02-.03-.05-.05-.07-.07-.02-.03-.05-.05-.07-.07-.02-.03-.05-.05-.07-.07-.02-.03-.05-.05-.07-.07-.02-.03-.05-.05-.07-.07-.02-.03-.05-.05-.07-.07-.02-.03-.05-.05-.07-.07-.02-.03-.05-.05-.07-.07-.02-.03-.05-.05-.07-.07-.02-.03-.05-.05-.07-.07-.02-.03-.05-.05-.07-.07-.02-.03-.05-.05-.07-.07-.02-.03-.05-.05-.07-.07-.02-.03-.05-.05-.07-.07-.24-.31-.63-.52-1.13-.52h-10.37c-1.15,0-1.73,1.44-.86,2.3,1.15,1.08,2.02,2.52,2.02,5.69v41.26c0,.41.12.69.32.88.02.03.05.05.07.07.02.03.05.05.07.07.02.03.05.05.07.07.02.03.05.05.07.07.02.03.05.05.07.07.02.03.05.05.07.07.02.03.05.05.07.07.02.03.05.05.07.07.02.03.05.05.07.07.02.03.05.05.07.07.02.03.05.05.07.07.02.03.05.05.07.07.02.03.05.05.07.07.02.03.05.05.07.07.02.03.05.05.07.07.02.03.05.05.07.07.02.03.05.05.07.07.02.03.05.05.07.07.02.03.05.05.07.07.02.03.05.05.07.07.02.03.05.05.07.07.02.03.05.05.07.07.02.03.05.05.07.07.02.03.05.05.07.07.02.03.05.05.07.07.02.03.05.05.07.07.02.03.05.05.07.07.02.03.05.05.07.07.02.03.05.05.07.07.02.03.05.05.07.07.02.03.05.05.07.07.02.03.05.05.07.07.02.03.05.05.07.07.02.03.05.05.07.07.02.03.05.05.07.07.02.03.05.05.07.07.02.03.05.05.07.07.02.03.05.05.07.07.02.03.05.05.07.07.02.03.05.05.07.07.02.03.05.05.07.07.02.03.05.05.07.07.02.03.05.05.07.07.02.03.05.05.07.07.02.03.05.05.07.07.02.03.05.05.07.07.02.03.05.05.07.07.02.03.05.05.07.07.02.03.05.05.07.07.02.03.05.05.07.07.02.03.05.05.07.07.02.03.05.05.07.07.02.03.05.05.07.07.02.03.05.05.07.07.02.03.05.05.07.07.02.03.05.05.07.07.02.03.05.05.07.07.02.03.05.05.07.07.02.03.05.05.07.07.02.03.05.05.07.07.02.03.05.05.07.07.02.03.05.05.07.07.02.03.05.05.07.07.02.03.05.05.07.07.02.03.05.05.07.07.02.03.05.05.07.07.02.03.05.05.07.07.02.03.05.05.07.07.02.03.05.05.07.07.02.03.05.05.07.07.02.03.05.05.07.07.02.03.05.05.07.07.02.03.05.05.07.07.02.03.05.05.07.07.02.03.05.05.07.07.02.03.05.05.07.07.02.03.05.05.07.07.02.03.05.05.07.07.02.03.05.05.07.07.02.03.05.05.07.07.02.03.05.05.07.07.02.03.05.05.07.07.02.03.05.05.07.07.02.03.05.05.07.07.02.03.05.05.07.07.02.03.05.05.07.07.02.03.05.05.07.07.02.03.05.05.07.07.02.03.05.05.07.07.02.03.05.05.07.07.02.03.05.05.07.07.02.03.05.05.07.07.02.03.05.05.07.07.02.03.05.05.07.07.02.03.05.05.07.07.02.03.05.05.07.07.02.03.05.05.07.07.02.03.05.05.07.07.02.03.05.05.07.07-.16-.18-.25-.45-.25-.8Z"/>
  <path class="cls-3" d="M147.31,220.45c-.11-.08-.23-.16-.37-.22-.78-.32-1.21-.79-1.45-1.6-.24-.83-.28-2.02-.28-3.8v-31.18c0-3.17.86-4.61,2.02-5.69.56-.56.51-1.36.05-1.86-.25-.26-.6-.44-1.05-.44h-10.37c-1.15,0-1.73,1.44-.86,2.3,1.15,1.08,2.02,2.52,2.02,5.69v41.26c0,.36.09.62.25.8.28.33.78.39,1.33.2l8.35-3.38c1.01-.38,1.13-1.48.37-2.08Z"/>
</svg>