<?xml version="1.0" encoding="UTF-8"?>
<svg id="Customer_Art" data-name="Customer Art" xmlns="http://www.w3.org/2000/svg" viewBox="0 0 180 252">
  <defs>
    <style>
      .cls-1 {
        fill: #231f20;
      }

      .cls-2 {
        fill: #e79024;
      }

      .cls-3 {
        fill: #f8f2e9;
      }
    </style>
  </defs>
  <g>
    <rect class="cls-3" x="-9" y="-9" width="198" height="270"/>
    <rect class="cls-2" x="13.5" y="13.5" width="153" height="225" rx="4.5" ry="4.5"/>
  </g>
  <g>
    <path class="cls-1" d="M58.15,65.44s-.05-.05-.07-.07c-.02-.03-.05-.05-.07-.07-.02-.03-.05-.05-.07-.07-.02-.03-.05-.05-.07-.07-.02-.03-.05-.05-.07-.07-.02-.03-.05-.05-.07-.07-.02-.03-.05-.05-.07-.07-.02-.03-.05-.05-.07-.07-.02-.03-.05-.05-.07-.07-.02-.03-.05-.05-.07-.07-.02-.03-.05-.05-.07-.07-.02-.03-.05-.05-.07-.07-.02-.03-.05-.05-.07-.07-.02-.03-.05-.05-.07-.07-.02-.03-.05-.05-.07-.07-.02-.03-.05-.05-.07-.07-.02-.03-.05-.05-.07-.07-.02-.03-.05-.05-.07-.07-.02-.03-.05-.05-.07-.07-.02-.03-.05-.05-.07-.07-.02-.03-.05-.05-.07-.07-.02-.03-.05-.05-.07-.07-.02-.03-.05-.05-.07-.07-.02-.03-.05-.05-.07-.07-.02-.03-.05-.05-.07-.07-.02-.03-.05-.05-.07-.07-.02-.03-.05-.05-.07-.07-.02-.03-.05-.05-.07-.07-.02-.03-.05-.05-.07-.07-.02-.03-.05-.05-.07-.07-.02-.03-.05-.05-.07-.07-.02-.03-.05-.05-.07-.07-.02-.03-.05-.05-.07-.07-.02-.03-.05-.05-.07-.07-.02-.03-.05-.05-.07-.07-.02-.03-.05-.05-.07-.07-.02-.03-.05-.05-.07-.07-.02-.03-.05-.05-.07-.07-.02-.03-.05-.05-.07-.07-.02-.03-.05-.05-.07-.07-.02-.03-.05-.05-.07-.07-.02-.03-.05-.05-.07-.07-.02-.03-.05-.05-.07-.07-.02-.03-.05-.05-.07-.07-.02-.03-.05-.05-.07-.07-.02-.03-.05-.05-.07-.07-.02-.03-.05-.05-.07-.07-.02-.03-.05-.05-.07-.07-.02-.03-.05-.05-.07-.07-.02-.03-.05-.05-.07-.07-.02-.03-.05-.05-.07-.07-.02-.03-.05-.05-.07-.07-.02-.03-.05-.05-.07-.07-.02-.03-.05-.05-.07-.07-.02-.03-.05-.05-.07-.07-.02-.03-.05-.05-.07-.07-.02-.03-.05-.05-.07-.07-.02-.03-.05-.05-.07-.07-.02-.03-.05-.05-.07-.07-.02-.03-.05-.05-.07-.07-.01-.01-.02-.03-.03-.04v-24.91c0-1-.08-1.56-.45-1.87-.02-.02-.05-.05-.07-.07-.02-.02-.05-.05-.07-.07-.02-.02-.05-.05-.07-.07-.02-.02-.05-.05-.07-.07-.02-.02-.05-.05-.07-.07-.02-.02-.33-.34-.36-.36-.02-.02-.05-.05-.07-.07-.02-.02-.05-.05-.07-.07-.02-.02-.05-.05-.07-.07-.02-.02-.05-.05-.07-.07-.02-.02-.05-.05-.07-.07-.02-.02-.05-.05-.07-.07-.02-.02-.05-.05-.07-.07-.02-.02-.05-.05-.07-.07-.02-.02-.05-.05-.07-.07-.02-.02-.05-.05-.07-.07-.02-.02-.05-.05-.07-.07-.02-.02-.05-.05-.07-.07-.02-.02-.05-.05-.07-.07-.02-.02-.05-.05-.07-.07-.02-.02-.05-.05-.07-.07-.02-.02-.05-.05-.07-.07-.02-.02-.05-.05-.07-.07-.02-.02-.05-.05-.07-.07-.02-.02-.05-.05-.07-.07-.02-.02-.05-.05-.07-.07-.02-.02-.05-.05-.07-.07-.02-.02-.05-.05-.07-.07-.02-.02-.05-.05-.07-.07-.02-.02-.05-.05-.07-.07-.02-.02-.05-.05-.07-.07-.02-.02-.05-.05-.07-.07-.02-.02-.05-.05-.07-.07-.02-.02-.05-.05-.07-.07-.02-.02-.05-.05-.07-.07-.02-.02-.05-.05-.07-.07-.02-.02-.05-.05-.07-.07-.02-.02-.05-.05-.07-.07-.02-.02-.05-.05-.07-.07-.02-.02-.05-.05-.07-.07-.02-.02-.05-.05-.07-.07-.02-.02-.05-.05-.07-.07-.02-.02-.05-.05-.07-.07-.02-.02-.05-.05-.07-.07-.02-.02-.05-.05-.07-.07-.02-.02-.05-.05-.07-.07-.02-.02-.05-.05-.07-.07-.02-.02-.05-.05-.07-.07-.02-.02-.05-.05-.07-.07-.02-.02-.05-.05-.07-.07-.02-.02-.05-.05-.07-.07-.02-.02-.05-.05-.07-.07-.02-.02-.05-.05-.07-.07-.02-.02-.05-.05-.07-.07-.02-.02-.05-.05-.07-.07-.02-.02-.05-.05-.07-.07-.02-.02-.05-.05-.07-.07-.02-.02-.05-.05-.07-.07-.02-.02-.05-.05-.07-.07-.02-.02-.05-.05-.07-.07-.02-.02-.05-.05-.07-.07-.02-.02-.05-.05-.07-.07-.02-.02-.05-.05-.07-.07-.02-.02-.05-.05-.07-.07-.02-.02-.05-.05-.07-.07-.02-.02-.05-.05-.07-.07-.02-.02-.05-.05-.07-.07-.02-.02-.05-.05-.07-.07-.02-.02-.05-.05-.07-.07-.02-.02-.05-.05-.07-.07-.02-.02-.05-.05-.07-.07-.02-.02-.05-.05-.07-.07-.02-.02-.05-.05-.07-.07-.02-.02-.05-.05-.07-.07-.02-.02-.05-.05-.07-.07-.02-.02-.05-.05-.07-.07-.02-.02-.05-.05-.07-.07-.02-.02-.05-.05-.07-.07-.02-.02-.05-.05-.07-.07-.02-.02-.05-.05-.07-.07-.02-.02-.05-.05-.07-.07-.02-.02-.05-.05-.07-.07-.02-.02-.05-.05-.07-.07-.02-.02-.05-.05-.07-.07-.02-.02-.05-.05-.07-.07-.02-.02-.05-.05-.07-.07-.02-.02-.05-.05-.07-.07-.02-.02-.05-.05-.07-.07-.02-.02-.05-.05-.07-.07-.02-.02-.05-.05-.07-.07-.02-.02-.05-.05-.07-.07-.02-.02-.05-.05-.07-.07-.02-.02-.05-.05-.07-.07-.02-.02-.05-.05-.07-.07-.02-.02-.05-.05-.07-.07.3.32.38.87.38,1.8v27.29c0,1.29.43,1.73,1.66,1.73h1.58c1.15,0,1.44.29,1.44,1.44v1.66c0,1.15-.29,1.44-1.44,1.44h-1.58c-1.22,0-1.66.43-1.66,1.73v4.1c0,3.17.86,4.61,1.94,5.69.86.86.29,2.3-.79,2.3h-10.44c-.45,0-.81-.18-1.05-.44.02.03.05.05.07.07.02.03.05.05.07.07.02.03.05.05.07.07.02.03.05.05.07.07.02.03.05.05.07.07.02.03.05.05.07.07.02.03.05.05.07.07.02.03.05.05.07.07.02.03.05.05.07.07.02.03.05.05.07.07.02.03.05.05.07.07.02.03.05.05.07.07.02.03.05.05.07.07.02.03.05.05.07.07.02.03.05.05.07.07.02.03.05.05.07.07.02.03.05.05.07.07.02.03.05.05.07.07.02.03.05.05.07.07.02.03.05.05.07.07.02.03.05.05.07.07.02.03.05.05.07.07.02.03.05.05.07.07.02.03.05.05.07.07.02.03.05.05.07.07.02.03.05.05.07.07.02.03.05.05.07.07.02.03.05.05.07.07.02.03.05.05.07.07.02.03.05.05.07.07.02.03.05.05.07.07.02.03.05.05.07.07.02.03.05.05.07.07.02.03.05.05.07.07.02.03.05.05.07.07.02.03.05.05.07.07.02.03.05.05.07.07.02.03.05.05.07.07.02.03.05.05.07.07.02.03.05.05.07.07.02.03.05.05.07.07.02.03.05.05.07.07.02.03.05.05.07.07.02.03.05.05.07.07.02.03.05.05.07.07.02.03.05.05.07.07.02.03.05.05.07.07.02.03.05.05.07.07.02.03.05.05.07.07.02.03.05.05.07.07.02.03.05.05.07.07.02.03.05.05.07.07.02.03.05.05.07.07.02.03.05.05.07.07.02.03.05.05.07.07.02.03.05.05.07.07.02.03.05.05.07.07.02.03.05.05.07.07.02.03.05.05.07.07.02.03.05.05.07.07.02.03.05.05.07.07.02.03.05.05.07.07.02.03.05.05.07.07.02.03.05.05.07.07.02.03.05.05.07.07.02.03.05.05.07.07.02.03.05.05.07.07.02.03.05.05.07.07.02.03.05.05.07.07.02.03.05.05.07.07.02.03.05.05.07.07.02.03.05.05.07.07.02.03.05.05.07.07.02.03.05.05.07.07.02.03.05.05.07.07.02.03.05.05.07.07.02.03.05.05.07.07.02.03.05.05.07.07.02.03.05.05.07.07.02.03.05.05.07.07.02.03.05.05.07.07.02.03.05.05.07.07.02.03.05.05.07.07.02.03.05.05.07.07.02.03.05.05.07.07.02.03.05.05.07.07.02.03.05.05.07.07.02.03.05.05.07.07.02.03.05.05.07.07.02.03.05.05.07.07.02.03.05.05.07.07.02.03.05.05.07.07.02.03.05.05.07.07.02.03.05.05.07.07.02.03.05.05.07.07.02.03.05.05.07.07.02.03.05.05.07.07.02.03.05.05.07.07.02.03.05.05.07.07.24.31.63.52,1.13.52h10.44c1.08,0,1.66-1.44.79-2.3-1.08-1.08-1.94-2.52-1.94-5.69v-4.1c0-1.3.43-1.73,1.66-1.73h1.58c1.15,0,1.44-.29,1.44-1.44v-1.66c0-.61-.08-.97-.33-1.18Z"/>
    <path class="cls-1" d="M38.32,68.35v-4.1c0-1.3-.43-1.73-1.73-1.73h-8.06c-1.12,0-1.83-.14-2.26-.54.02.02.05.05.07.07.02.02.05.05.07.07.02.02.05.05.07.07.02.02.05.05.07.07.02.02.05.05.07.07.02.02.05.05.07.07.02.02.05.05.07.07.02.02.05.05.07.07.02.02.05.05.07.07.02.02.05.05.07.07.02.02.05.05.07.07.02.02.05.05.07.07.02.02.05.05.07.07.02.02.05.05.07.07.02.02.05.05.07.07.02.02.05.05.07.07.02.02.05.05.07.07.02.02.05.05.07.07.02.02.05.05.07.07.02.02.05.05.07.07.02.02.05.05.07.07.02.02.05.05.07.07.02.02.05.05.07.07.02.02.05.05.07.07.02.02.05.05.07.07.02.02.05.05.07.07.02.02.05.05.07.07.02.02.05.05.07.07.02.02.05.05.07.07.02.02.05.05.07.07.02.02.05.05.07.07.02.02.05.05.07.07.02.02.05.05.07.07.02.02.05.05.07.07.02.02.05.05.07.07.02.02.05.05.07.07.02.02.05.05.07.07.02.02.05.05.07.07.02.02.05.05.07.07.02.02.05.05.07.07.02.02.05.05.07.07.02.02.05.05.07.07.02.02.05.05.07.07.02.02.05.05.07.07.02.02.05.05.07.07.02.02.05.05.07.07.02.02.05.05.07.07.02.02.05.05.07.07.02.02.05.05.07.07.02.02.05.05.07.07.02.02.05.05.07.07.02.02.05.05.07.07.02.02.05.05.07.07.02.02.05.05.07.07.02.02.05.05.07.07.02.02.05.05.07.07.02.02.05.05.07.07.02.02.05.05.07.07.02.02.05.05.07.07.02.02.05.05.07.07.02.02.05.05.07.07.02.02.05.05.07.07.02.02.05.05.07.07.02.02.05.05.07.07.02.02.05.05.07.07.02.02.05.05.07.07.02.02.05.05.07.07.02.02.05.05.07.07.02.02.05.05.07.07.02.02.05.05.07.07.02.02.05.05.07.07.02.02.05.05.07.07.02.02.05.05.07.07.02.02.05.05.07.07.02.02.05.05.07.07.02.02.05.05.07.07.02.02.05.05.07.07.02.02.05.05.07.07.02.02.05.05.07.07.02.02.05.05.07.07.02.02.05.05.07.07.02.02.05.05.07.07.02.02.05.05.07.07.02.02.05.05.07.07.02.02.05.05.07.07.02.02.05.05.07.07.02.02.05.05.07.07.02.02.05.05.07.07.02.02.05.05.07.07.02.02.05.05.07.07.02.02.05.05.07.07.02.02.05.05.07.07.02.02.05.05.07.07.02.02.05.05.07.07.02.02.05.05.07.07.02.02.05.05.07.07.02.02.05.05.07.07.02.02.05.05.07.07.02.02.05.05.07.07.43.45,1.15.61,2.34.61h2.52c.04-.42.07-.87.07-1.37Z"/>
    <path class="cls-1" d="M33.06,57.98h3.53c1.3,0,1.73-.43,1.73-1.73v-13.68c0-2.09-.72-2.09-1.44-.14l-4.82,14.11c-.43,1.15,0,1.44,1.01,1.44Z"/>
    <path class="cls-3" d="M37.31,76.34h10.44c1.08,0,1.66-1.44.79-2.3-1.08-1.08-1.94-2.52-1.94-5.69v-4.1c0-1.3.43-1.73,1.66-1.73h1.58c1.15,0,1.44-.29,1.44-1.44v-1.66c0-1.15-.29-1.44-1.44-1.44h-1.58c-1.22,0-1.66-.43-1.66-1.73v-27.29c0-.93-.07-1.47-.38-1.8-.33-.35-.94-.44-2.07-.44h-2.88c-1.44,0-1.58.14-2.16,1.44l-13.11,30.03c-.29.72-.36,1.08-.36,1.51,0,1.15.16,1.85.62,2.27.44.4,1.14.54,2.26.54h8.06c1.3,0,1.73.43,1.73,1.73v4.1c0,.5-.03.95-.07,1.37-.22,2.24-.98,3.41-1.95,4.32-.56.56-.51,1.37-.04,1.86.25.26.6.44,1.05.44ZM32.06,56.54l4.82-14.11c.72-1.94,1.44-1.94,1.44.14v13.68c0,1.29-.43,1.73-1.73,1.73h-3.53c-1.01,0-1.44-.29-1.01-1.44Z"/>
    <path class="cls-1" d="M121.85,186.56s.05.05.07.07c.02.03.05.05.07.07.02.03.05.05.07.07.02.03.05.05.07.07.02.03.05.05.07.07.02.03.05.05.07.07.02.03.05.05.07.07.02.03.05.05.07.07.02.03.05.05.07.07.02.03.05.05.07.07.02.03.05.05.07.07.02.03.05.05.07.07.02.03.05.05.07.07.02.03.05.05.07.07.02.03.05.05.07.07.02.03.05.05.07.07.02.03.05.05.07.07.02.03.05.05.07.07.02.03.05.05.07.07.02.03.05.05.07.07.02.03.05.05.07.07.02.03.05.05.07.07.02.03.05.05.07.07.02.03.05.05.07.07.02.03.05.05.07.07.02.03.05.05.07.07.02.03.05.05.07.07.02.03.05.05.07.07.02.03.05.05.07.07.02.03.05.05.07.07.02.03.05.05.07.07.02.03.05.05.07.07.02.03.05.05.07.07.02.03.05.05.07.07.02.03.05.05.07.07.02.03.05.05.07.07.02.03.05.05.07.07.02.03.05.05.07.07.02.03.05.05.07.07.02.03.05.05.07.07.02.03.05.05.07.07.02.03.05.05.07.07.02.03.05.05.07.07.02.03.05.05.07.07.02.03.05.05.07.07.02.03.05.05.07.07.02.03.05.05.07.07.02.03.05.05.07.07.02.03.05.05.07.07.02.03.05.05.07.07.02.03.05.05.07.07.02.03.05.05.07.07.02.03.05.05.07.07.02.03.05.05.07.07.02.03.05.05.07.07.02.03.05.05.07.07.02.03.05.05.07.07.02.03.05.05.07.07.02.03.05.05.07.07.02.03.05.05.07.07.01.01.02.03.03.04v24.91c0,1,.08,1.56.45,1.87.02.02.05.05.07.07.02.02.05.05.07.07.02.02.05.05.07.07.02.02.05.05.07.07.02.02.05.05.07.07.02.02.05.05.07.07.02.02.05.05.07.07.02.02.05.05.07.07.02.02.05.05.07.07.02.02.05.05.07.07.02.02.05.05.07.07.02.02.05.05.07.07.02.02.05.05.07.07.02.02.05.05.07.07.02.02.05.05.07.07.02.02.05.05.07.07.02.02.05.05.07.07.02.02.05.05.07.07.02.02.05.05.07.07.02.02.05.05.07.07.02.02.05.05.07.07.02.02.05.05.07.07.02.02.05.05.07.07.02.02.05.05.07.07.02.02.05.05.07.07.02.02.05.05.07.07.02.02.05.05.07.07.02.02.05.05.07.07.02.02.05.05.07.07.02.02.05.05.07.07.02.02.05.05.07.07.02.02.05.05.07.07.02.02.05.05.07.07.02.02.05.05.07.07.02.02.05.05.07.07.02.02.05.05.07.07.02.02.05.05.07.07.02.02.05.05.07.07.02.02.05.05.07.07.02.02.05.05.07.07.02.02.05.05.07.07.02.02.05.05.07.07.02.02.05.05.07.07.02.02.05.05.07.07.02.02.05.05.07.07.02.02.05.05.07.07.02.02.05.05.07.07.02.02.05.05.07.07.02.02.05.05.07.07.02.02.05.05.07.07.02.02.05.05.07.07.02.02.05.05.07.07.02.02.05.05.07.07.02.02.05.05.07.07.02.02.05.05.07.07.02.02.05.05.07.07.02.02.05.05.07.07.02.02.05.05.07.07.02.02.05.05.07.07.02.02.05.05.07.07.02.02.05.05.07.07.02.02.05.05.07.07.02.02.05.05.07.07.02.02.05.05.07.07.02.02.05.05.07.07.02.02.05.05.07.07.02.02.05.05.07.07.02.02.05.05.07.07.02.02.05.05.07.07.02.02.05.05.07.07.02.02.05.05.07.07.02.02.05.05.07.07.02.02.05.05.07.07.02.02.05.05.07.07.02.02.05.05.07.07.02.02.05.05.07.07.02.02.05.05.07.07.02.02.05.05.07.07.02.02.05.05.07.07.02.02.05.05.07.07.02.02.05.05.07.07.02.02.05.05.07.07.02.02.05.05.07.07.02.02.05.05.07.07.02.02.05.05.07.07.02.02.05.05.07.07.02.02.05.05.07.07.02.02.05.05.07.07.02.02.05.05.07.07.02.02.05.05.07.07.02.02.05.05.07.07.02.02.05.05.07.07.02.02.05.05.07.07.02.02.05.05.07.07.02.02.05.05.07.07.02.02.05.05.07.07.02.02.05.05.07.07.02.02.05.05.07.07.02.02.05.05.07.07-.3-.32-.38-.87-.38-1.8v-27.29c0-1.3-.43-1.73-1.66-1.73h-1.58c-1.15,0-1.44-.29-1.44-1.44v-1.66c0-1.15.29-1.44,1.44-1.44h1.58c1.22,0,1.66-.43,1.66-1.73v-4.1c0-3.17-.86-4.61-1.94-5.69-.86-.86-.29-2.3.79-2.3h10.44c.45,0,.81.18,1.05.44-.02-.03-.05-.05-.07-.07-.02-.03-.05-.05-.07-.07-.02-.03-.05-.05-.07-.07-.02-.03-.05-.05-.07-.07-.02-.03-.05-.05-.07-.07-.02-.03-.05-.05-.07-.07-.02-.03-.05-.05-.07-.07-.02-.03-.05-.05-.07-.07-.02-.03-.05-.05-.07-.07-.02-.03-.05-.05-.07-.07-.02-.03-.05-.05-.07-.07-.02-.03-.05-.05-.07-.07-.02-.03-.05-.05-.07-.07-.02-.03-.05-.05-.07-.07-.02-.03-.05-.05-.07-.07-.02-.03-.05-.05-.07-.07-.02-.03-.05-.05-.07-.07-.02-.03-.05-.05-.07-.07-.02-.03-.05-.05-.07-.07-.02-.03-.05-.05-.07-.07-.02-.03-.05-.05-.07-.07-.02-.03-.05-.05-.07-.07-.02-.03-.05-.05-.07-.07-.02-.03-.05-.05-.07-.07-.02-.03-.05-.05-.07-.07-.02-.03-.05-.05-.07-.07-.02-.03-.05-.05-.07-.07-.02-.03-.05-.05-.07-.07-.02-.03-.05-.05-.07-.07-.02-.03-.05-.05-.07-.07-.02-.03-.05-.05-.07-.07-.02-.03-.05-.05-.07-.07-.02-.03-.05-.05-.07-.07-.02-.03-.05-.05-.07-.07-.02-.03-.05-.05-.07-.07-.02-.03-.05-.05-.07-.07-.02-.03-.05-.05-.07-.07-.02-.03-.05-.05-.07-.07-.02-.03-.05-.05-.07-.07-.02-.03-.05-.05-.07-.07-.02-.03-.05-.05-.07-.07-.02-.03-.05-.05-.07-.07-.02-.03-.05-.05-.07-.07-.02-.03-.05-.05-.07-.07-.02-.03-.05-.05-.07-.07-.02-.03-.05-.05-.07-.07-.02-.03-.05-.05-.07-.07-.02-.03-.05-.05-.07-.07-.02-.03-.05-.05-.07-.07-.02-.03-.05-.05-.07-.07-.02-.03-.05-.05-.07-.07-.02-.03-.05-.05-.07-.07-.02-.03-.05-.05-.07-.07-.02-.03-.05-.05-.07-.07-.02-.03-.05-.05-.07-.07-.02-.03-.05-.05-.07-.07-.02-.03-.05-.05-.07-.07-.02-.03-.05-.05-.07-.07-.02-.03-.05-.05-.07-.07-.02-.03-.05-.05-.07-.07-.02-.03-.05-.05-.07-.07-.02-.03-.05-.05-.07-.07-.02-.03-.05-.05-.07-.07-.02-.03-.05-.05-.07-.07-.02-.03-.05-.05-.07-.07-.02-.03-.05-.05-.07-.07-.02-.03-.05-.05-.07-.07-.02-.03-.05-.05-.07-.07-.02-.03-.05-.05-.07-.07-.02-.03-.05-.05-.07-.07-.02-.03-.05-.05-.07-.07-.02-.03-.05-.05-.07-.07-.02-.03-.05-.05-.07-.07-.02-.03-.05-.05-.07-.07-.02-.03-.05-.05-.07-.07-.02-.03-.05-.05-.07-.07-.02-.03-.05-.05-.07-.07-.02-.03-.05-.05-.07-.07-.02-.03-.05-.05-.07-.07-.02-.03-.05-.05-.07-.07-.02-.03-.05-.05-.07-.07-.02-.03-.05-.05-.07-.07-.02-.03-.05-.05-.07-.07-.02-.03-.05-.05-.07-.07-.02-.03-.05-.05-.07-.07-.02-.03-.05-.05-.07-.07-.02-.03-.05-.05-.07-.07-.02-.03-.05-.05-.07-.07-.02-.03-.05-.05-.07-.07-.02-.03-.05-.05-.07-.07-.02-.03-.05-.05-.07-.07-.02-.03-.05-.05-.07-.07-.02-.03-.05-.05-.07-.07-.02-.03-.05-.05-.07-.07-.02-.03-.05-.05-.07-.07-.02-.03-.05-.05-.07-.07-.02-.03-.05-.05-.07-.07-.02-.03-.05-.05-.07-.07-.02-.03-.05-.05-.07-.07-.25-.31-.63-.52-1.13-.52h-10.44c-1.08,0-1.66,1.44-.79,2.3,1.08,1.08,1.94,2.52,1.94,5.69v4.1c0,1.3-.43,1.73-1.66,1.73h-1.58c-1.15,0-1.44.29-1.44,1.44v1.66c0,.61.08.97.33,1.18Z"/>
    <path class="cls-1" d="M141.68,183.65v4.1c0,1.3.43,1.73,1.73,1.73h8.06c1.12,0,1.83.14,2.26.54-.02-.02-.05-.05-.07-.07-.02-.02-.05-.05-.07-.07-.02-.02-.05-.05-.07-.07-.02-.02-.05-.05-.07-.07-.02-.02-.05-.05-.07-.07-.02-.02-.05-.05-.07-.07-.02-.02-.05-.05-.07-.07-.02-.02-.05-.05-.07-.07-.02-.02-.05-.05-.07-.07-.02-.02-.05-.05-.07-.07-.02-.02-.05-.05-.07-.07-.02-.02-.05-.05-.07-.07-.02-.02-.05-.05-.07-.07-.02-.02-.05-.05-.07-.07-.02-.02-.05-.05-.07-.07-.02-.02-.05-.05-.07-.07-.02-.02-.05-.05-.07-.07-.02-.02-.05-.05-.07-.07-.02-.02-.05-.05-.07-.07-.02-.02-.05-.05-.07-.07-.02-.02-.05-.05-.07-.07-.02-.02-.05-.05-.07-.07-.02-.02-.05-.05-.07-.07-.02-.02-.05-.05-.07-.07-.02-.02-.05-.05-.07-.07-.02-.02-.05-.05-.07-.07-.02-.02-.05-.05-.07-.07-.02-.02-.05-.05-.07-.07-.02-.02-.05-.05-.07-.07-.02-.02-.05-.05-.07-.07-.02-.02-.05-.05-.07-.07-.02-.02-.05-.05-.07-.07-.02-.02-.05-.05-.07-.07-.02-.02-.05-.05-.07-.07-.02-.02-.05-.05-.07-.07-.02-.02-.05-.05-.07-.07-.02-.02-.05-.05-.07-.07-.02-.02-.05-.05-.07-.07-.02-.02-.05-.05-.07-.07-.02-.02-.05-.05-.07-.07-.02-.02-.05-.05-.07-.07-.02-.02-.05-.05-.07-.07-.02-.02-.05-.05-.07-.07-.02-.02-.05-.05-.07-.07-.02-.02-.05-.05-.07-.07-.02-.02-.05-.05-.07-.07-.02-.02-.05-.05-.07-.07-.02-.02-.05-.05-.07-.07-.02-.02-.05-.05-.07-.07-.02-.02-.05-.05-.07-.07-.02-.02-.05-.05-.07-.07-.02-.02-.05-.05-.07-.07-.02-.02-.05-.05-.07-.07-.02-.02-.05-.05-.07-.07-.02-.02-.05-.05-.07-.07-.02-.02-.05-.05-.07-.07-.02-.02-.05-.05-.07-.07-.02-.02-.05-.05-.07-.07-.02-.02-.05-.05-.07-.07-.02-.02-.05-.05-.07-.07-.02-.02-.05-.05-.07-.07-.02-.02-.05-.05-.07-.07-.02-.02-.05-.05-.07-.07-.02-.02-.05-.05-.07-.07-.02-.02-.05-.05-.07-.07-.02-.02-.05-.05-.07-.07-.02-.02-.05-.05-.07-.07-.02-.02-.05-.05-.07-.07-.02-.02-.05-.05-.07-.07-.02-.02-.05-.05-.07-.07-.02-.02-.05-.05-.07-.07-.02-.02-.05-.05-.07-.07-.02-.02-.05-.05-.07-.07-.02-.02-.05-.05-.07-.07-.02-.02-.05-.05-.07-.07-.02-.02-.05-.05-.07-.07-.02-.02-.05-.05-.07-.07-.02-.02-.05-.05-.07-.07-.02-.02-.05-.05-.07-.07-.02-.02-.05-.05-.07-.07-.02-.02-.05-.05-.07-.07-.02-.02-.05-.05-.07-.07-.02-.02-.05-.05-.07-.07-.02-.02-.05-.05-.07-.07-.02-.02-.05-.05-.07-.07-.02-.02-.05-.05-.07-.07-.02-.02-.05-.05-.07-.07-.02-.02-.05-.05-.07-.07-.02-.02-.05-.05-.07-.07-.02-.02-.05-.05-.07-.07-.02-.02-.05-.05-.07-.07-.02-.02-.05-.05-.07-.07-.02-.02-.05-.05-.07-.07-.02-.02-.05-.05-.07-.07-.02-.02-.05-.05-.07-.07-.02-.02-.05-.05-.07-.07-.02-.02-.05-.05-.07-.07-.02-.02-.05-.05-.07-.07-.02-.02-.05-.05-.07-.07-.43-.45-1.15-.61-2.34-.61h-2.52c-.04.42-.07.87-.07,1.37Z"/>
    <path class="cls-1" d="M146.94,194.02h-3.53c-1.3,0-1.73.43-1.73,1.73v13.68c0,2.09.72,2.09,1.44.14l4.82-14.11c.43-1.15,0-1.44-1.01-1.44Z"/>
    <path class="cls-3" d="M142.69,175.66h-10.44c-1.08,0-1.66,1.44-.79,2.3,1.08,1.08,1.94,2.52,1.94,5.69v4.1c0,1.3-.43,1.73-1.66,1.73h-1.58c-1.15,0-1.44.29-1.44,1.44v1.66c0,1.15.29,1.44,1.44,1.44h1.58c1.22,0,1.66.43,1.66,1.73v27.29c0,.93.07,1.47.38,1.8.33.35.94.44,2.07.44h2.88c1.44,0,1.58-.14,2.16-1.44l13.1-30.03c.29-.72.36-1.08.36-1.51,0-1.15-.16-1.85-.62-2.27-.44-.4-1.14-.54-2.26-.54h-8.06c-1.3,0-1.73-.43-1.73-1.73v-4.1c0-.5.03-.95.07-1.37.22-2.23.98-3.41,1.95-4.32.56-.56.51-1.36.05-1.86-.25-.26-.6-.44-1.05-.44ZM147.94,195.46l-4.82,14.11c-.72,1.94-1.44,1.94-1.44-.14v-13.68c0-1.3.43-1.73,1.73-1.73h3.53c1.01,0,1.44.29,1.01,1.44Z"/>
  </g>
  <g>
    <polygon class="cls-1" points="59.47 99 65.24 112.06 78.56 106.91 73.41 120.22 86.47 126 73.41 131.78 78.56 145.09 65.24 139.94 59.47 153 53.69 139.94 40.38 145.09 45.53 131.78 32.47 126 45.53 120.22 40.38 106.91 53.69 112.06 59.47 99"/>
    <polygon class="cls-1" points="59.47 160.71 65.24 173.76 78.56 168.62 73.41 181.93 86.47 187.71 73.41 193.48 78.56 206.8 65.24 201.65 59.47 214.71 53.69 201.65 40.38 206.8 45.53 193.48 32.47 187.71 45.53 181.93 40.38 168.62 53.69 173.76 59.47 160.71"/>
    <polygon class="cls-1" points="120.53 99 126.31 112.06 139.62 106.91 134.47 120.22 147.53 126 134.47 131.78 139.62 145.09 126.31 139.94 120.53 153 114.76 139.94 101.44 145.09 106.59 131.78 93.53 126 106.59 120.22 101.44 106.91 114.76 112.06 120.53 99"/>
    <polygon class="cls-1" points="120.53 37.29 126.31 50.35 139.62 45.2 134.47 58.52 147.53 64.29 134.47 70.07 139.62 83.38 126.31 78.24 120.53 91.29 114.76 78.24 101.44 83.38 106.59 70.07 93.53 64.29 106.59 58.52 101.44 45.2 114.76 50.35 120.53 37.29"/>
  </g>
</svg>