<?xml version="1.0" encoding="UTF-8"?>
<svg id="Customer_Art" data-name="Customer Art" xmlns="http://www.w3.org/2000/svg" viewBox="0 0 180 252">
  <defs>
    <style>
      .cls-1 {
        fill: #231f20;
      }

      .cls-2 {
        fill: #d72229;
      }

      .cls-3 {
        fill: #0072b2;
      }

      .cls-4 {
        fill: #e79024;
      }

      .cls-5 {
        fill: #f8f2e9;
      }
    </style>
  </defs>
  <rect class="cls-5" x="-9" y="-9" width="198" height="270"/>
  <g>
    <path class="cls-1" d="M51.99,166.38c-.79-2.63-1.56-3.05-2.88-2.66-2.45.73-3.09,5.16-1.71,9.77,1.4,4.67,4.36,8.02,6.81,7.28,1.32-.39,1.74-1.17.95-3.8l-3.17-10.59Z"/>
    <path class="cls-1" d="M112.74,110.39c3.41-1.02,2.03-8.24-.72-17.45-2.76-9.21-5.89-15.77-8.94-14.86-3.23.97-2.19,8.15.57,17.36,2.76,9.21,5.51,16.02,9.1,14.94Z"/>
    <path class="cls-1" d="M89.21,135.04c-3.41,1.02-2.03,8.24.72,17.45,2.76,9.21,5.89,15.77,8.94,14.86,3.23-.97,2.19-8.15-.57-17.36-2.76-9.21-5.51-16.02-9.1-14.94Z"/>
    <path class="cls-1" d="M162.56,151.03c.69-1.18.63-2.47-.61-5.1l-9.18-19.81c-.39-.86-.66-1.11-.9-1.04-.18.05-.27.41-.12,1.34l3.8,21.42c.5,2.98,1.06,3.98,2.29,4.6.93.5.93,1.81-.03,2.09l-7.36,2.2c-.9.27-1.66-.74-1.11-1.75.71-1.13.43-2.28-.79-5.04-.95-1.87-6.6-14-9.4-19.87-.5-1.02-.63-1.25-.87-1.17-.18.05-.23.53-.08,1.46l2.69,15.3c1.61,9.1,2.27,10.21,3.56,10.8.93.5.93,1.81.03,2.08l-7.12,2.13c-.16.05-.3.05-.44.03-.11.09-.24.18-.39.22l-8.62,2.58c-.96.29-1.79-.77-1.41-1.66.69-1.19,1.05-2.6.23-5.35l-2.47-8.26c-.57-1.91-1.08-2.29-2.99-1.71l-3.05.91c-1.91.57-2.25,1.19-1.68,3.11l2.47,8.26c.82,2.75,2.02,3.7,3.24,4.31.81.54.69,1.88-.26,2.16l-8.62,2.58c-.96.29-1.79-.77-1.41-1.66.69-1.18,1.05-2.6.22-5.35l-8.52-28.48c-.79-2.63-1.86-3.61-3.09-4.22-.81-.54-.69-1.88.27-2.17l8.62-2.58c.96-.29,1.79.77,1.41,1.66-.69,1.18-1.17,2.63-.38,5.26l3.08,10.29c.55,1.85,1.14,2.07,3.06,1.5l3.05-.91c1.91-.57,2.17-1.04,1.61-2.89l-3.08-10.29c-.79-2.63-1.86-3.61-3.09-4.22-.81-.54-.69-1.88.27-2.17l8.62-2.58c.96-.29,1.79.77,1.41,1.66-.69,1.18-1.17,2.63-.38,5.26l8.52,28.48c.74,2.46,1.77,3.48,2.86,4.1.66-1.34.94-3.98-.19-11.49l-3.78-28.33c-.23-1.63.17-2.27,1.72-2.73l2.27-.68c1.5-.45,2.24-.15,2.94,1.34l8.83,18.61c.37.8.62,1.19.86,1.11.24-.07.23-.53.1-1.4l-3.02-20.35c-.23-1.63.23-2.28,1.78-2.75l2.21-.66c1.56-.47,2.3-.17,3,1.32l13.37,27.17V18c0-2.49-2.01-4.5-4.5-4.5H18c-2.49,0-4.5,2.01-4.5,4.5v82.06l2.76-.83c.96-.29,1.67.8,1.17,1.73-.69,1.18-.63,2.47.61,5.1l9.18,19.81c.39.86.66,1.11.9,1.04.18-.05.27-.41.12-1.34l-3.8-21.42c-.5-2.98-1.06-3.98-2.29-4.6-.93-.5-.93-1.81.03-2.09l7.36-2.2c.9-.27,1.66.74,1.11,1.75-.71,1.13-.43,2.28.79,5.04.95,1.87,6.6,14,9.4,19.87.5,1.02.63,1.25.87,1.17.18-.05.23-.53.08-1.46l-2.69-15.3c-1.61-9.1-2.27-10.21-3.56-10.8-.93-.5-.93-1.81-.03-2.08l7.12-2.13c.16-.05.3-.05.44-.03.11-.09.24-.18.39-.22l8.62-2.58c.96-.29,1.79.77,1.41,1.66-.69,1.19-1.05,2.6-.23,5.35l2.47,8.26c.57,1.91,1.08,2.29,2.99,1.71l3.05-.91c1.91-.57,2.25-1.19,1.68-3.11l-2.47-8.26c-.82-2.75-2.02-3.7-3.24-4.31-.81-.54-.69-1.88.26-2.16l8.62-2.58c.96-.29,1.79.77,1.41,1.66-.69,1.18-1.05,2.6-.22,5.35l8.52,28.48c.79,2.63,1.86,3.61,3.09,4.22.81.54.69,1.88-.27,2.17l-8.62,2.58c-.96.29-1.79-.77-1.41-1.66.69-1.18,1.17-2.63.38-5.26l-3.08-10.29c-.55-1.85-1.14-2.07-3.06-1.5l-3.05.91c-1.91.57-2.17,1.04-1.61,2.89l3.08,10.29c.79,2.63,1.86,3.61,3.09,4.22.81.54.69,1.88-.27,2.17l-8.62,2.58c-.96.29-1.79-.77-1.41-1.66.69-1.18,1.17-2.63.38-5.26l-8.52-28.48c-.74-2.46-1.77-3.48-2.86-4.1-.66,1.34-.94,3.98.19,11.49l3.78,28.33c.23,1.63-.17,2.27-1.72,2.73l-2.27.68c-1.5.45-2.24.15-2.94-1.34l-8.83-18.61c-.37-.8-.62-1.19-.86-1.11-.24.07-.23.53-.1,1.4l3.02,20.35c.23,1.63-.23,2.28-1.78,2.75l-2.21.66c-1.56.47-2.3.17-3-1.32l-13.37-27.17v121.7c0,2.49,2.01,4.5,4.5,4.5h144c2.49,0,4.5-2.01,4.5-4.5v-82.06l-2.76.83c-.96.29-1.67-.8-1.17-1.73ZM147.52,106.04c-2.44,0-3.68-2.01-3.67-5.32,0-3.18,1.26-5.18,3.7-5.17,2.37,0,3.62,2.01,3.61,5.19,0,3.31-1.26,5.3-3.63,5.3ZM146.15,60.38h3.06c1.62.01,2.5.51,2.49,2.51-.02,6.49-1.12,17.37-2.39,27.86-.13,1.12-1,1.56-1.88,1.56-.75,0-1.56-.44-1.68-1.56-1.22-10.5-2.12-21.37-2.11-27.87,0-2,.88-2.5,2.5-2.49ZM114.79,69.76l9.09-2.72c8.02-2.4,13.85,2.7,15.83,9.34,2.58,8.62-1.55,14.22-7.6,16.42-1.64.62-1.62,1.14-1.19,2.57l2.18,7.3c.79,2.63,1.86,3.61,3.09,4.23.81.54.69,1.88-.27,2.17l-8.62,2.58c-.96.29-1.79-.77-1.41-1.66.69-1.18,1.17-2.63.38-5.26l-8.52-28.48c-.82-2.75-2.02-3.7-3.24-4.31-.81-.54-.69-1.88.26-2.16ZM74.23,104.77c-3.96-13.22-2.16-22.69,5.44-24.96,5.62-1.68,10.74,1.75,14.62,9.08-.76-8.26,1.67-13.96,7.34-15.65,7.54-2.26,14.18,4.69,18.13,17.91,3.94,13.16,2.18,22.55-5.35,24.81-5.66,1.69-10.82-1.69-14.71-8.98.77,8.22-1.63,13.87-7.25,15.55-7.6,2.27-14.28-4.59-18.22-17.76ZM32.48,145.96c2.44,0,3.68,2.01,3.67,5.32,0,3.18-1.26,5.18-3.7,5.17-2.37,0-3.62-2.01-3.61-5.19,0-3.31,1.26-5.3,3.63-5.3ZM33.85,191.62h-3.06c-1.62-.01-2.5-.51-2.49-2.51.02-6.49,1.12-17.37,2.39-27.86.13-1.12,1-1.56,1.88-1.56.75,0,1.56.44,1.68,1.56,1.22,10.5,2.12,21.37,2.11,27.87,0,2-.88,2.5-2.5,2.49ZM65.21,182.24l-9.09,2.72c-8.02,2.4-13.85-2.7-15.83-9.34-2.58-8.62,1.55-14.22,7.6-16.42,1.64-.62,1.62-1.14,1.19-2.57l-2.18-7.3c-.79-2.63-1.86-3.61-3.09-4.23-.81-.54-.69-1.88.27-2.17l8.62-2.58c.96-.29,1.79.77,1.41,1.66-.69,1.18-1.17,2.63-.38,5.26l8.52,28.48c.82,2.75,2.02,3.7,3.24,4.31.81.54.69,1.88-.26,2.16ZM100.33,172.19c-5.62,1.68-10.74-1.75-14.62-9.08.76,8.26-1.67,13.96-7.34,15.65-7.54,2.26-14.18-4.69-18.13-17.91-3.94-13.16-2.18-22.55,5.35-24.81,5.66-1.69,10.82,1.69,14.71,8.98-.77-8.22,1.63-13.87,7.25-15.55,7.6-2.27,14.28,4.59,18.22,17.76,3.96,13.22,2.16,22.69-5.44,24.96Z"/>
    <path class="cls-1" d="M90.79,116.96c3.41-1.02,2.03-8.24-.72-17.45-2.76-9.21-5.89-15.77-8.94-14.86-3.23.97-2.19,8.15.57,17.36,2.76,9.21,5.51,16.02,9.1,14.94Z"/>
    <path class="cls-1" d="M128.01,85.62c.79,2.63,1.56,3.05,2.88,2.66,2.45-.73,3.09-5.16,1.71-9.77-1.4-4.67-4.36-8.02-6.81-7.28-1.32.39-1.74,1.17-.95,3.8l3.17,10.59Z"/>
    <path class="cls-1" d="M67.26,141.61c-3.41,1.02-2.03,8.24.72,17.45,2.76,9.21,5.89,15.77,8.94,14.86,3.23-.97,2.19-8.15-.57-17.36-2.76-9.21-5.51-16.02-9.1-14.94Z"/>
    <path class="cls-4" d="M92.45,122.52c5.62-1.68,8.02-7.33,7.25-15.55,3.89,7.28,9.04,10.67,14.71,8.98,7.54-2.26,9.29-11.65,5.35-24.81-3.96-13.22-10.6-20.16-18.13-17.91-5.66,1.69-8.1,7.39-7.34,15.65-3.88-7.33-9-10.77-14.62-9.08-7.6,2.27-9.39,11.74-5.44,24.96,3.94,13.16,10.62,20.03,18.22,17.76ZM103.07,78.08c3.05-.91,6.19,5.64,8.94,14.86,2.76,9.21,4.13,16.43.72,17.45-3.59,1.07-6.34-5.73-9.1-14.94-2.76-9.21-3.8-16.4-.57-17.36ZM81.12,84.65c3.05-.91,6.19,5.64,8.94,14.86,2.76,9.21,4.13,16.43.72,17.45-3.59,1.07-6.34-5.73-9.1-14.94-2.76-9.21-3.8-16.4-.57-17.36Z"/>
    <path class="cls-3" d="M114.52,71.92c1.23.61,2.42,1.56,3.24,4.31l8.52,28.48c.79,2.63.31,4.08-.38,5.26-.38.9.45,1.95,1.41,1.66l8.62-2.58c.96-.29,1.08-1.63.27-2.17-1.23-.61-2.3-1.59-3.09-4.23l-2.18-7.3c-.43-1.44-.45-1.95,1.19-2.57,6.05-2.2,10.18-7.8,7.6-16.42-1.99-6.64-7.82-11.74-15.83-9.34l-9.09,2.72c-.96.29-1.08,1.63-.26,2.16ZM125.79,71.22c2.45-.73,5.41,2.62,6.81,7.28,1.38,4.61.75,9.03-1.71,9.77-1.32.39-2.09-.03-2.88-2.66l-3.17-10.59c-.79-2.63-.37-3.41.95-3.8Z"/>
    <path class="cls-2" d="M147.43,92.3c.87,0,1.75-.43,1.88-1.56,1.27-10.49,2.37-21.36,2.39-27.86,0-2-.87-2.5-2.49-2.5h-3.06c-1.62-.01-2.5.49-2.5,2.49-.02,6.49.88,17.37,2.11,27.87.12,1.12.93,1.56,1.68,1.56Z"/>
    <path class="cls-2" d="M147.55,95.55c-2.44,0-3.69,1.99-3.7,5.17,0,3.31,1.24,5.31,3.67,5.32,2.37,0,3.63-1.99,3.63-5.3,0-3.18-1.24-5.19-3.61-5.19Z"/>
    <path class="cls-4" d="M87.55,129.48c-5.62,1.68-8.02,7.33-7.25,15.55-3.89-7.28-9.04-10.67-14.71-8.98-7.54,2.26-9.29,11.65-5.35,24.81,3.96,13.22,10.6,20.16,18.13,17.91,5.66-1.69,8.1-7.39,7.34-15.65,3.88,7.33,9,10.77,14.62,9.08,7.6-2.27,9.39-11.74,5.44-24.96-3.94-13.16-10.62-20.03-18.22-17.76ZM76.93,173.92c-3.05.91-6.19-5.64-8.94-14.86-2.76-9.21-4.13-16.43-.72-17.45,3.59-1.07,6.34,5.73,9.1,14.94,2.76,9.21,3.8,16.4.57,17.36ZM98.88,167.35c-3.05.91-6.19-5.64-8.94-14.86-2.76-9.21-4.13-16.43-.72-17.45,3.59-1.07,6.34,5.73,9.1,14.94,2.76,9.21,3.8,16.4.57,17.36Z"/>
    <path class="cls-3" d="M65.48,180.08c-1.23-.61-2.42-1.56-3.24-4.31l-8.52-28.48c-.79-2.63-.31-4.08.38-5.26.38-.9-.45-1.95-1.41-1.66l-8.62,2.58c-.96.29-1.08,1.63-.27,2.17,1.23.61,2.3,1.59,3.09,4.23l2.18,7.3c.43,1.44.45,1.95-1.19,2.57-6.05,2.2-10.18,7.8-7.6,16.42,1.99,6.64,7.82,11.74,15.83,9.34l9.09-2.72c.96-.29,1.08-1.63.26-2.16ZM54.21,180.78c-2.45.73-5.41-2.62-6.81-7.28-1.38-4.61-.75-9.03,1.71-9.77,1.32-.39,2.09.03,2.88,2.66l3.17,10.59c.79,2.63.37,3.41-.95,3.8Z"/>
    <path class="cls-2" d="M32.57,159.7c-.87,0-1.75.43-1.88,1.56-1.27,10.49-2.37,21.36-2.39,27.86,0,2,.87,2.5,2.49,2.5h3.06c1.62.01,2.5-.49,2.5-2.49.02-6.49-.88-17.37-2.11-27.87-.12-1.12-.93-1.56-1.68-1.56Z"/>
    <path class="cls-2" d="M32.45,156.45c2.44,0,3.69-1.99,3.7-5.17,0-3.31-1.24-5.31-3.67-5.32-2.37,0-3.63,1.99-3.63,5.3,0,3.18,1.24,5.19,3.61,5.19Z"/>
  </g>
</svg>